NotoNastaliqUrdu-Bold.ufo
<glyph name="exclam" format="2">
  <advance width="487"/>
  <unicode hex="0021"/>
  <note>
exclam
</note>
  <outline>
    <contour>
      <point x="269" y="267" type="curve"/>
      <point x="295" y="267" type="line"/>
      <point x="298" y="305"/>
      <point x="302" y="342"/>
      <point x="307" y="376" type="curve" smooth="yes"/>
      <point x="325" y="495"/>
      <point x="347" y="640"/>
      <point x="347" y="717" type="curve" smooth="yes"/>
      <point x="347" y="801"/>
      <point x="335" y="862"/>
      <point x="326" y="876" type="curve"/>
      <point x="317" y="876" type="line"/>
      <point x="296" y="865"/>
      <point x="212" y="787"/>
      <point x="204" y="753" type="curve"/>
      <point x="204" y="749" type="line" smooth="yes"/>
      <point x="204" y="729"/>
      <point x="209" y="674"/>
      <point x="221" y="606" type="curve" smooth="yes"/>
      <point x="235" y="527" type="line" smooth="yes"/>
      <point x="249" y="449"/>
      <point x="262" y="361"/>
    </contour>
    <contour>
      <point x="275" y="1" type="curve"/>
      <point x="283" y="1" type="line"/>
      <point x="350" y="46"/>
      <point x="382" y="87"/>
      <point x="382" y="114" type="curve" smooth="yes"/>
      <point x="382" y="145"/>
      <point x="352" y="172"/>
      <point x="289" y="212" type="curve"/>
      <point x="279" y="212" type="line"/>
      <point x="260" y="197"/>
      <point x="189" y="119"/>
      <point x="176" y="98" type="curve"/>
      <point x="176" y="88" type="line"/>
      <point x="204" y="67"/>
      <point x="236" y="39"/>
    </contour>
  </outline>
</glyph>
<glyph name="parenleft" format="2">
  <advance width="400"/>
  <unicode hex="0028"/>
  <note>
parenleft
</note>
  <outline>
    <contour>
      <point x="377" y="-240" type="curve"/>
      <point x="395" y="-212" type="line"/>
      <point x="250" y="-108"/>
      <point x="188" y="97"/>
      <point x="188" y="340" type="curve" smooth="yes"/>
      <point x="188" y="553"/>
      <point x="243" y="759"/>
      <point x="399" y="869" type="curve"/>
      <point x="381" y="898" type="line"/>
      <point x="203" y="800"/>
      <point x="30" y="600"/>
      <point x="30" y="324" type="curve" smooth="yes"/>
      <point x="30" y="58"/>
      <point x="147" y="-120"/>
    </contour>
  </outline>
</glyph>
<glyph name="parenright" format="2">
  <advance width="400"/>
  <unicode hex="0029"/>
  <note>
parenright
</note>
  <outline>
    <contour>
      <point x="19" y="-240" type="line"/>
      <point x="199" y="-141"/>
      <point x="370" y="60"/>
      <point x="370" y="334" type="curve" smooth="yes"/>
      <point x="370" y="605"/>
      <point x="248" y="781"/>
      <point x="23" y="898" type="curve"/>
      <point x="5" y="870" type="line"/>
      <point x="140" y="774"/>
      <point x="212" y="581"/>
      <point x="212" y="318" type="curve" smooth="yes"/>
      <point x="212" y="74"/>
      <point x="140" y="-115"/>
      <point x="1" y="-211" type="curve"/>
    </contour>
  </outline>
</glyph>
<glyph name="plus" format="2">
  <advance width="593"/>
  <unicode hex="002B"/>
  <note>
plus
</note>
  <outline>
    <contour>
      <point x="270" y="62" type="line"/>
      <point x="321" y="62" type="line"/>
      <point x="321" y="287" type="line"/>
      <point x="554" y="287" type="line"/>
      <point x="554" y="338" type="line"/>
      <point x="321" y="338" type="line"/>
      <point x="321" y="562" type="line"/>
      <point x="270" y="562" type="line"/>
      <point x="270" y="338" type="line"/>
      <point x="40" y="338" type="line"/>
      <point x="40" y="287" type="line"/>
      <point x="270" y="287" type="line"/>
    </contour>
  </outline>
</glyph>
<glyph name="comma" format="2">
  <advance width="366"/>
  <unicode hex="002C"/>
  <note>
comma
</note>
  <outline>
    <contour>
      <point x="156" y="-178" type="line"/>
      <point x="233" y="-95"/>
      <point x="286" y="8"/>
      <point x="286" y="77" type="curve" smooth="yes"/>
      <point x="286" y="137"/>
      <point x="256" y="176"/>
      <point x="200" y="208" type="curve"/>
      <point x="189" y="208" type="line"/>
      <point x="162" y="189"/>
      <point x="140" y="169"/>
      <point x="121" y="147" type="curve" smooth="yes"/>
      <point x="102" y="125"/>
      <point x="93" y="108"/>
      <point x="93" y="95" type="curve" smooth="yes"/>
      <point x="93" y="68"/>
      <point x="113" y="53"/>
      <point x="137" y="32" type="curve" smooth="yes"/>
      <point x="159" y="13" type="line" smooth="yes"/>
      <point x="182" y="-7"/>
      <point x="188" y="-20"/>
      <point x="188" y="-39" type="curve" smooth="yes"/>
      <point x="188" y="-70"/>
      <point x="170" y="-101"/>
      <point x="130" y="-161" type="curve"/>
    </contour>
  </outline>
</glyph>
<glyph name="hyphen" format="2">
  <advance width="487"/>
  <unicode hex="002D"/>
  <note>
hyphen
</note>
  <outline>
    <contour>
      <point x="56" y="270" type="line"/>
      <point x="423" y="270" type="line"/>
      <point x="431" y="343" type="line"/>
      <point x="64" y="343" type="line"/>
    </contour>
  </outline>
</glyph>
<glyph name="period" format="2">
  <advance width="286"/>
  <unicode hex="002E"/>
  <note>
period
</note>
  <outline>
    <contour>
      <point x="139" y="1" type="curve"/>
      <point x="147" y="1" type="line"/>
      <point x="214" y="45"/>
      <point x="254" y="90"/>
      <point x="254" y="122" type="curve" smooth="yes"/>
      <point x="254" y="157"/>
      <point x="220" y="185"/>
      <point x="155" y="228" type="curve"/>
      <point x="143" y="228" type="line"/>
      <point x="124" y="216"/>
      <point x="63" y="150"/>
      <point x="32" y="107" type="curve"/>
      <point x="32" y="95" type="line"/>
      <point x="67" y="70"/>
      <point x="100" y="39"/>
    </contour>
  </outline>
</glyph>
<glyph name="slash" format="2">
  <advance width="554"/>
  <unicode hex="002F"/>
  <note>
slash
</note>
  <outline>
    <contour>
      <point x="104" y="-113" type="line"/>
      <point x="155" y="1"/>
      <point x="220" y="140"/>
      <point x="286" y="279" type="curve" smooth="yes"/>
      <point x="370" y="455"/>
      <point x="457" y="632"/>
      <point x="524" y="762" type="curve"/>
      <point x="469" y="778" type="line"/>
      <point x="372" y="592"/>
      <point x="257" y="359"/>
      <point x="151" y="125" type="curve" smooth="yes"/>
      <point x="52" y="-93" type="line"/>
    </contour>
  </outline>
</glyph>
<glyph name="zero" format="2">
  <advance width="580"/>
  <unicode hex="0030"/>
  <note>
zero
</note>
  <outline>
    <contour>
      <point x="293" y="0" type="curve" smooth="yes"/>
      <point x="463" y="0"/>
      <point x="537" y="161"/>
      <point x="537" y="348" type="curve" smooth="yes"/>
      <point x="537" y="529"/>
      <point x="456" y="683"/>
      <point x="293" y="683" type="curve" smooth="yes"/>
      <point x="126" y="683"/>
      <point x="43" y="535"/>
      <point x="43" y="352" type="curve" smooth="yes"/>
      <point x="43" y="157"/>
      <point x="123" y="0"/>
    </contour>
    <contour>
      <point x="293" y="39" type="curve" smooth="yes"/>
      <point x="240" y="39"/>
      <point x="222" y="109"/>
      <point x="222" y="348" type="curve" smooth="yes"/>
      <point x="222" y="565"/>
      <point x="236" y="642"/>
      <point x="293" y="642" type="curve" smooth="yes"/>
      <point x="342" y="642"/>
      <point x="355" y="570"/>
      <point x="355" y="330" type="curve" smooth="yes"/>
      <point x="355" y="192"/>
      <point x="355" y="39"/>
    </contour>
  </outline>
</glyph>
<glyph name="one" format="2">
  <advance width="580"/>
  <unicode hex="0031"/>
  <note>
one
</note>
  <outline>
    <contour>
      <point x="236" y="0" type="line"/>
      <point x="253" y="0" type="line"/>
      <point x="370" y="74"/>
      <point x="407" y="110"/>
      <point x="407" y="204" type="curve" smooth="yes"/>
      <point x="407" y="675" type="line"/>
      <point x="390" y="683" type="line"/>
      <point x="304" y="637"/>
      <point x="169" y="573"/>
      <point x="74" y="536" type="curve"/>
      <point x="95" y="490" type="line"/>
      <point x="136" y="504"/>
      <point x="182" y="523"/>
      <point x="236" y="548" type="curve"/>
    </contour>
  </outline>
</glyph>
<glyph name="two" format="2">
  <advance width="580"/>
  <unicode hex="0032"/>
  <note>
two
</note>
  <outline>
    <contour>
      <point x="74" y="-2" type="line"/>
      <point x="148" y="20"/>
      <point x="226" y="24"/>
      <point x="303" y="24" type="curve" smooth="yes"/>
      <point x="390" y="24"/>
      <point x="455" y="16"/>
      <point x="498" y="0" type="curve"/>
      <point x="512" y="0" type="line"/>
      <point x="525" y="45"/>
      <point x="529" y="62"/>
      <point x="529" y="85" type="curve" smooth="yes"/>
      <point x="529" y="127"/>
      <point x="510" y="146"/>
      <point x="484" y="156" type="curve" smooth="yes"/>
      <point x="449" y="169"/>
      <point x="399" y="176"/>
      <point x="336" y="176" type="curve" smooth="yes"/>
      <point x="260" y="176"/>
      <point x="245" y="173"/>
      <point x="187" y="163" type="curve"/>
      <point x="209" y="197"/>
      <point x="241" y="226"/>
      <point x="295" y="264" type="curve" smooth="yes"/>
      <point x="451" y="374"/>
      <point x="497" y="444"/>
      <point x="497" y="512" type="curve" smooth="yes"/>
      <point x="497" y="628"/>
      <point x="410" y="683"/>
      <point x="276" y="683" type="curve" smooth="yes"/>
      <point x="186" y="683"/>
      <point x="128" y="655"/>
      <point x="74" y="597" type="curve"/>
      <point x="108" y="562" type="line"/>
      <point x="156" y="608"/>
      <point x="186" y="622"/>
      <point x="227" y="622" type="curve" smooth="yes"/>
      <point x="297" y="622"/>
      <point x="321" y="565"/>
      <point x="321" y="509" type="curve" smooth="yes"/>
      <point x="321" y="434"/>
      <point x="289" y="375"/>
      <point x="200" y="289" type="curve" smooth="yes"/>
      <point x="97" y="190"/>
      <point x="53" y="112"/>
      <point x="53" y="3" type="curve"/>
    </contour>
  </outline>
</glyph>
<glyph name="three" format="2">
  <advance width="580"/>
  <unicode hex="0033"/>
  <note>
three
</note>
  <outline>
    <contour>
      <point x="259" y="0" type="curve" smooth="yes"/>
      <point x="378" y="0"/>
      <point x="522" y="56"/>
      <point x="522" y="209" type="curve" smooth="yes"/>
      <point x="522" y="321"/>
      <point x="415" y="365"/>
      <point x="357" y="371" type="curve"/>
      <point x="443" y="401"/>
      <point x="496" y="458"/>
      <point x="496" y="533" type="curve" smooth="yes"/>
      <point x="496" y="628"/>
      <point x="406" y="683"/>
      <point x="276" y="683" type="curve" smooth="yes"/>
      <point x="188" y="683"/>
      <point x="126" y="661"/>
      <point x="76" y="614" type="curve"/>
      <point x="111" y="573" type="line"/>
      <point x="148" y="605"/>
      <point x="188" y="621"/>
      <point x="230" y="621" type="curve" smooth="yes"/>
      <point x="290" y="621"/>
      <point x="319" y="578"/>
      <point x="319" y="522" type="curve" smooth="yes"/>
      <point x="319" y="465"/>
      <point x="286" y="416"/>
      <point x="223" y="391" type="curve" smooth="yes"/>
      <point x="174" y="372" type="line"/>
      <point x="198" y="309" type="line"/>
      <point x="253" y="328" type="line"/>
      <point x="305" y="321"/>
      <point x="342" y="282"/>
      <point x="342" y="202" type="curve" smooth="yes"/>
      <point x="342" y="121"/>
      <point x="297" y="71"/>
      <point x="225" y="71" type="curve" smooth="yes"/>
      <point x="181" y="71"/>
      <point x="147" y="80"/>
      <point x="78" y="126" type="curve"/>
      <point x="42" y="81" type="line"/>
      <point x="101" y="27"/>
      <point x="174" y="0"/>
    </contour>
  </outline>
</glyph>
<glyph name="four" format="2">
  <advance width="580"/>
  <unicode hex="0034"/>
  <note>
four
</note>
  <outline>
    <contour>
      <point x="280" y="0" type="line"/>
      <point x="302" y="0" type="line"/>
      <point x="442" y="22"/>
      <point x="451" y="59"/>
      <point x="451" y="92" type="curve" smooth="yes"/>
      <point x="451" y="160" type="line"/>
      <point x="492" y="160"/>
      <point x="526" y="159"/>
      <point x="553" y="158" type="curve"/>
      <point x="565" y="260" type="line"/>
      <point x="540" y="262"/>
      <point x="502" y="263"/>
      <point x="451" y="263" type="curve"/>
      <point x="451" y="683" type="line"/>
      <point x="344" y="683" type="line"/>
      <point x="192" y="475"/>
      <point x="106" y="351"/>
      <point x="26" y="215" type="curve"/>
      <point x="26" y="153" type="line"/>
      <point x="111" y="157"/>
      <point x="195" y="159"/>
      <point x="280" y="159" type="curve"/>
    </contour>
    <contour>
      <point x="129" y="256" type="curve"/>
      <point x="163" y="316"/>
      <point x="215" y="396"/>
      <point x="285" y="497" type="curve"/>
      <point x="282" y="464"/>
      <point x="280" y="421"/>
      <point x="280" y="367" type="curve" smooth="yes"/>
      <point x="280" y="262" type="line"/>
      <point x="217" y="262"/>
      <point x="166" y="260"/>
    </contour>
  </outline>
</glyph>
<glyph name="five" format="2">
  <advance width="580"/>
  <unicode hex="0035"/>
  <note>
five
</note>
  <outline>
    <contour>
      <point x="271" y="0" type="curve" smooth="yes"/>
      <point x="418" y="0"/>
      <point x="521" y="86"/>
      <point x="521" y="208" type="curve" smooth="yes"/>
      <point x="521" y="343"/>
      <point x="444" y="411"/>
      <point x="276" y="411" type="curve" smooth="yes"/>
      <point x="229" y="411"/>
      <point x="191" y="407"/>
      <point x="162" y="398" type="curve"/>
      <point x="177" y="519" type="line"/>
      <point x="226" y="506"/>
      <point x="247" y="502"/>
      <point x="307" y="502" type="curve" smooth="yes"/>
      <point x="363" y="502"/>
      <point x="401" y="511"/>
      <point x="433" y="528" type="curve" smooth="yes"/>
      <point x="470" y="548"/>
      <point x="491" y="574"/>
      <point x="491" y="628" type="curve" smooth="yes"/>
      <point x="491" y="647"/>
      <point x="487" y="664"/>
      <point x="480" y="679" type="curve"/>
      <point x="459" y="679" type="line"/>
      <point x="400" y="658"/>
      <point x="375" y="654"/>
      <point x="311" y="654" type="curve" smooth="yes"/>
      <point x="233" y="654"/>
      <point x="211" y="659"/>
      <point x="141" y="683" type="curve"/>
      <point x="114" y="679" type="line"/>
      <point x="80" y="333" type="line"/>
      <point x="125" y="320" type="line"/>
      <point x="158" y="335"/>
      <point x="182" y="343"/>
      <point x="229" y="343" type="curve" smooth="yes"/>
      <point x="306" y="343"/>
      <point x="344" y="298"/>
      <point x="344" y="208" type="curve" smooth="yes"/>
      <point x="344" y="120"/>
      <point x="297" y="76"/>
      <point x="226" y="76" type="curve" smooth="yes"/>
      <point x="176" y="76"/>
      <point x="136" y="95"/>
      <point x="87" y="129" type="curve"/>
      <point x="50" y="72" type="line"/>
      <point x="77" y="50"/>
      <point x="110" y="33"/>
      <point x="148" y="20" type="curve" smooth="yes"/>
      <point x="186" y="7"/>
      <point x="227" y="0"/>
    </contour>
  </outline>
</glyph>
<glyph name="six" format="2">
  <advance width="580"/>
  <unicode hex="0036"/>
  <note>
six
</note>
  <outline>
    <contour>
      <point x="303" y="0" type="curve" smooth="yes"/>
      <point x="442" y="0"/>
      <point x="532" y="98"/>
      <point x="532" y="218" type="curve" smooth="yes"/>
      <point x="532" y="334"/>
      <point x="461" y="415"/>
      <point x="342" y="415" type="curve" smooth="yes"/>
      <point x="292" y="415"/>
      <point x="251" y="405"/>
      <point x="220" y="384" type="curve"/>
      <point x="225" y="543"/>
      <point x="273" y="623"/>
      <point x="366" y="623" type="curve" smooth="yes"/>
      <point x="416" y="623"/>
      <point x="442" y="609"/>
      <point x="478" y="589" type="curve"/>
      <point x="510" y="631" type="line"/>
      <point x="469" y="666"/>
      <point x="416" y="683"/>
      <point x="352" y="683" type="curve" smooth="yes"/>
      <point x="124" y="683"/>
      <point x="60" y="474"/>
      <point x="60" y="328" type="curve" smooth="yes"/>
      <point x="60" y="190"/>
      <point x="103" y="88"/>
      <point x="178" y="37" type="curve" smooth="yes"/>
      <point x="215" y="12"/>
      <point x="256" y="0"/>
    </contour>
    <contour>
      <point x="308" y="50" type="curve" smooth="yes"/>
      <point x="243" y="50"/>
      <point x="222" y="131"/>
      <point x="219" y="312" type="curve"/>
      <point x="239" y="332"/>
      <point x="268" y="346"/>
      <point x="299" y="346" type="curve" smooth="yes"/>
      <point x="342" y="346"/>
      <point x="372" y="293"/>
      <point x="372" y="209" type="curve" smooth="yes"/>
      <point x="372" y="158"/>
      <point x="367" y="119"/>
      <point x="358" y="92" type="curve" smooth="yes"/>
      <point x="349" y="64"/>
      <point x="331" y="50"/>
    </contour>
  </outline>
</glyph>
<glyph name="seven" format="2">
  <advance width="580"/>
  <unicode hex="0037"/>
  <note>
seven
</note>
  <outline>
    <contour>
      <point x="172" y="0" type="curve"/>
      <point x="206" y="0" type="line"/>
      <point x="349" y="77" type="line"/>
      <point x="384" y="253"/>
      <point x="451" y="446"/>
      <point x="550" y="656" type="curve"/>
      <point x="526" y="671" type="line"/>
      <point x="455" y="654"/>
      <point x="374" y="645"/>
      <point x="283" y="645" type="curve" smooth="yes"/>
      <point x="216" y="645"/>
      <point x="160" y="658"/>
      <point x="113" y="683" type="curve"/>
      <point x="89" y="683" type="line"/>
      <point x="79" y="653"/>
      <point x="74" y="621"/>
      <point x="74" y="586" type="curve" smooth="yes"/>
      <point x="74" y="539"/>
      <point x="91" y="517"/>
      <point x="129" y="509" type="curve" smooth="yes"/>
      <point x="166" y="501"/>
      <point x="207" y="497"/>
      <point x="254" y="497" type="curve" smooth="yes"/>
      <point x="330" y="497"/>
      <point x="374" y="504"/>
      <point x="432" y="524" type="curve"/>
      <point x="288" y="307"/>
      <point x="201" y="133"/>
    </contour>
  </outline>
</glyph>
<glyph name="eight" format="2">
  <advance width="580"/>
  <unicode hex="0038"/>
  <note>
eight
</note>
  <outline>
    <contour>
      <point x="284" y="1" type="curve" smooth="yes"/>
      <point x="447" y="1"/>
      <point x="536" y="76"/>
      <point x="536" y="184" type="curve" smooth="yes"/>
      <point x="536" y="270"/>
      <point x="500" y="318"/>
      <point x="388" y="375" type="curve"/>
      <point x="478" y="412"/>
      <point x="513" y="460"/>
      <point x="513" y="530" type="curve" smooth="yes"/>
      <point x="513" y="615"/>
      <point x="436" y="682"/>
      <point x="297" y="682" type="curve" smooth="yes"/>
      <point x="111" y="682"/>
      <point x="66" y="587"/>
      <point x="66" y="511" type="curve" smooth="yes"/>
      <point x="66" y="437"/>
      <point x="102" y="388"/>
      <point x="188" y="342" type="curve"/>
      <point x="143" y="327"/>
      <point x="108" y="306"/>
      <point x="83" y="279" type="curve" smooth="yes"/>
      <point x="58" y="252"/>
      <point x="45" y="216"/>
      <point x="45" y="171" type="curve" smooth="yes"/>
      <point x="45" y="122"/>
      <point x="65" y="81"/>
      <point x="105" y="49" type="curve" smooth="yes"/>
      <point x="144" y="17"/>
      <point x="204" y="1"/>
    </contour>
    <contour>
      <point x="289" y="63" type="curve" smooth="yes"/>
      <point x="241" y="63"/>
      <point x="198" y="96"/>
      <point x="198" y="181" type="curve" smooth="yes"/>
      <point x="198" y="234"/>
      <point x="215" y="275"/>
      <point x="249" y="304" type="curve"/>
      <point x="327" y="265"/>
      <point x="366" y="218"/>
      <point x="366" y="163" type="curve" smooth="yes"/>
      <point x="366" y="131"/>
      <point x="359" y="106"/>
      <point x="345" y="89" type="curve" smooth="yes"/>
      <point x="331" y="72"/>
      <point x="312" y="63"/>
    </contour>
    <contour>
      <point x="319" y="408" type="curve"/>
      <point x="257" y="436"/>
      <point x="232" y="478"/>
      <point x="232" y="530" type="curve" smooth="yes"/>
      <point x="232" y="590"/>
      <point x="253" y="620"/>
      <point x="295" y="620" type="curve" smooth="yes"/>
      <point x="340" y="620"/>
      <point x="363" y="576"/>
      <point x="363" y="526" type="curve" smooth="yes"/>
      <point x="363" y="471"/>
      <point x="348" y="431"/>
    </contour>
  </outline>
</glyph>
<glyph name="nine" format="2">
  <advance width="580"/>
  <unicode hex="0039"/>
  <note>
nine
</note>
  <outline>
    <contour>
      <point x="247" y="0" type="curve" smooth="yes"/>
      <point x="343" y="0"/>
      <point x="413" y="32"/>
      <point x="457" y="97" type="curve" smooth="yes"/>
      <point x="501" y="162"/>
      <point x="522" y="254"/>
      <point x="522" y="375" type="curve" smooth="yes"/>
      <point x="522" y="620"/>
      <point x="389" y="681"/>
      <point x="278" y="681" type="curve" smooth="yes"/>
      <point x="162" y="681"/>
      <point x="53" y="609"/>
      <point x="53" y="458" type="curve" smooth="yes"/>
      <point x="53" y="323"/>
      <point x="139" y="249"/>
      <point x="247" y="249" type="curve" smooth="yes"/>
      <point x="296" y="249"/>
      <point x="336" y="262"/>
      <point x="365" y="287" type="curve"/>
      <point x="362" y="218"/>
      <point x="351" y="164"/>
      <point x="330" y="123" type="curve" smooth="yes"/>
      <point x="309" y="82"/>
      <point x="273" y="61"/>
      <point x="222" y="61" type="curve" smooth="yes"/>
      <point x="175" y="61"/>
      <point x="147" y="72"/>
      <point x="109" y="97" type="curve"/>
      <point x="75" y="54" type="line"/>
      <point x="95" y="39"/>
      <point x="120" y="26"/>
      <point x="149" y="16" type="curve" smooth="yes"/>
      <point x="178" y="6"/>
      <point x="210" y="0"/>
    </contour>
    <contour>
      <point x="290" y="317" type="curve" smooth="yes"/>
      <point x="242" y="317"/>
      <point x="211" y="353"/>
      <point x="211" y="467" type="curve" smooth="yes"/>
      <point x="211" y="528"/>
      <point x="217" y="571"/>
      <point x="229" y="595" type="curve" smooth="yes"/>
      <point x="241" y="619"/>
      <point x="258" y="631"/>
      <point x="282" y="631" type="curve" smooth="yes"/>
      <point x="348" y="631"/>
      <point x="360" y="512"/>
      <point x="361" y="363" type="curve"/>
      <point x="356" y="350"/>
      <point x="347" y="339"/>
      <point x="335" y="330" type="curve"/>
      <point x="322" y="321"/>
      <point x="307" y="317"/>
    </contour>
  </outline>
</glyph>
<glyph name="colon" format="2">
  <advance width="315"/>
  <unicode hex="003A"/>
  <note>
colon
</note>
  <outline>
    <contour>
      <point x="153" y="346" type="curve"/>
      <point x="161" y="346" type="line"/>
      <point x="207" y="378"/>
      <point x="253" y="418"/>
      <point x="253" y="451" type="curve" smooth="yes"/>
      <point x="253" y="483"/>
      <point x="222" y="508"/>
      <point x="167" y="543" type="curve"/>
      <point x="157" y="543" type="line"/>
      <point x="140" y="532"/>
      <point x="79" y="465"/>
      <point x="61" y="437" type="curve"/>
      <point x="61" y="427" type="line"/>
      <point x="90" y="406"/>
      <point x="100" y="398"/>
    </contour>
    <contour>
      <point x="155" y="11" type="curve"/>
      <point x="163" y="11" type="line"/>
      <point x="209" y="43"/>
      <point x="255" y="83"/>
      <point x="255" y="116" type="curve" smooth="yes"/>
      <point x="255" y="148"/>
      <point x="224" y="173"/>
      <point x="169" y="208" type="curve"/>
      <point x="159" y="208" type="line"/>
      <point x="142" y="197"/>
      <point x="81" y="130"/>
      <point x="63" y="102" type="curve"/>
      <point x="63" y="92" type="line"/>
      <point x="92" y="71"/>
      <point x="103" y="61"/>
    </contour>
  </outline>
</glyph>
<glyph name="equal" format="2">
  <advance width="593"/>
  <unicode hex="003D"/>
  <note>
equal
</note>
  <outline>
    <contour>
      <point x="40" y="377" type="line"/>
      <point x="554" y="377" type="line"/>
      <point x="554" y="429" type="line"/>
      <point x="40" y="429" type="line"/>
    </contour>
    <contour>
      <point x="40" y="190" type="line"/>
      <point x="554" y="190" type="line"/>
      <point x="554" y="242" type="line"/>
      <point x="40" y="242" type="line"/>
    </contour>
  </outline>
</glyph>
<glyph name="bracketleft" format="2">
  <advance width="399"/>
  <unicode hex="005B"/>
  <note>
bracketleft
</note>
  <outline>
    <contour>
      <point x="132" y="-191" type="line"/>
      <point x="377" y="-191" type="line"/>
      <point x="377" y="-149" type="line"/>
      <point x="235" y="-149" type="line"/>
      <point x="235" y="807" type="line"/>
      <point x="377" y="807" type="line"/>
      <point x="377" y="849" type="line"/>
      <point x="132" y="849" type="line"/>
    </contour>
  </outline>
</glyph>
<glyph name="backslash" format="2">
  <advance width="533"/>
  <unicode hex="005C"/>
  <note>
backslash
</note>
  <outline>
    <contour>
      <point x="436" y="-120" type="curve"/>
      <point x="491" y="-105" type="line"/>
      <point x="383" y="124"/>
      <point x="210" y="529"/>
      <point x="105" y="785" type="curve"/>
      <point x="52" y="768" type="line"/>
      <point x="182" y="442"/>
      <point x="313" y="139"/>
    </contour>
  </outline>
</glyph>
<glyph name="bracketright" format="2">
  <advance width="399"/>
  <unicode hex="005D"/>
  <note>
bracketright
</note>
  <outline>
    <contour>
      <point x="21" y="-191" type="line"/>
      <point x="266" y="-191" type="line"/>
      <point x="266" y="849" type="line"/>
      <point x="21" y="849" type="line"/>
      <point x="21" y="807" type="line"/>
      <point x="162" y="807" type="line"/>
      <point x="162" y="-149" type="line"/>
      <point x="21" y="-149" type="line"/>
    </contour>
  </outline>
</glyph>
<glyph name="braceleft" format="2">
  <advance width="392"/>
  <unicode hex="007B"/>
  <note>
braceleft
</note>
  <outline>
    <contour>
      <point x="323" y="-210" type="curve" smooth="yes"/>
      <point x="348" y="-210"/>
      <point x="359" y="-209"/>
      <point x="370" y="-207" type="curve"/>
      <point x="363" y="-165" type="line"/>
      <point x="358" y="-167"/>
      <point x="347" y="-168"/>
      <point x="328" y="-168" type="curve" smooth="yes"/>
      <point x="264" y="-168"/>
      <point x="239" y="-126"/>
      <point x="239" y="-31" type="curve" smooth="yes"/>
      <point x="239" y="1"/>
      <point x="247" y="103"/>
      <point x="247" y="157" type="curve" smooth="yes"/>
      <point x="247" y="253"/>
      <point x="197" y="304"/>
      <point x="97" y="320" type="curve"/>
      <point x="97" y="324" type="line"/>
      <point x="197" y="338"/>
      <point x="247" y="389"/>
      <point x="247" y="487" type="curve" smooth="yes"/>
      <point x="247" y="560"/>
      <point x="239" y="610"/>
      <point x="239" y="689" type="curve" smooth="yes"/>
      <point x="239" y="767"/>
      <point x="254" y="825"/>
      <point x="328" y="825" type="curve" smooth="yes"/>
      <point x="343" y="825"/>
      <point x="354" y="824"/>
      <point x="363" y="821" type="curve"/>
      <point x="368" y="864" type="line"/>
      <point x="349" y="866"/>
      <point x="337" y="867"/>
      <point x="323" y="867" type="curve" smooth="yes"/>
      <point x="210" y="867"/>
      <point x="92" y="794"/>
      <point x="92" y="641" type="curve" smooth="yes"/>
      <point x="92" y="579"/>
      <point x="101" y="524"/>
      <point x="101" y="454" type="curve" smooth="yes"/>
      <point x="101" y="368"/>
      <point x="80" y="345"/>
      <point x="37" y="342" type="curve" smooth="yes"/>
      <point x="25" y="341" type="line"/>
      <point x="25" y="303" type="line"/>
      <point x="37" y="302" type="line" smooth="yes"/>
      <point x="87" y="299"/>
      <point x="101" y="269"/>
      <point x="101" y="193" type="curve" smooth="yes"/>
      <point x="101" y="133"/>
      <point x="92" y="32"/>
      <point x="92" y="16" type="curve" smooth="yes"/>
      <point x="92" y="-143"/>
      <point x="218" y="-209"/>
    </contour>
  </outline>
</glyph>
<glyph name="bar" format="2">
  <advance width="116"/>
  <unicode hex="007C"/>
  <note>
bar
</note>
  <outline>
    <contour>
      <point x="26" y="-164" type="line"/>
      <point x="90" y="-164" type="line"/>
      <point x="90" y="1140" type="line"/>
      <point x="26" y="1140" type="line"/>
    </contour>
  </outline>
</glyph>
<glyph name="braceright" format="2">
  <advance width="392"/>
  <unicode hex="007D"/>
  <note>
braceright
</note>
  <outline>
    <contour>
      <point x="69" y="-210" type="curve" smooth="yes"/>
      <point x="179" y="-210"/>
      <point x="300" y="-139"/>
      <point x="300" y="16" type="curve" smooth="yes"/>
      <point x="300" y="92"/>
      <point x="291" y="157"/>
      <point x="291" y="203" type="curve" smooth="yes"/>
      <point x="291" y="291"/>
      <point x="313" y="312"/>
      <point x="355" y="315" type="curve" smooth="yes"/>
      <point x="367" y="316" type="line"/>
      <point x="367" y="354" type="line"/>
      <point x="355" y="355" type="line" smooth="yes"/>
      <point x="294" y="360"/>
      <point x="291" y="408"/>
      <point x="291" y="464" type="curve" smooth="yes"/>
      <point x="291" y="520"/>
      <point x="300" y="579"/>
      <point x="300" y="641" type="curve" smooth="yes"/>
      <point x="300" y="808"/>
      <point x="166" y="867"/>
      <point x="69" y="867" type="curve" smooth="yes"/>
      <point x="39" y="867"/>
      <point x="35" y="866"/>
      <point x="22" y="864" type="curve"/>
      <point x="29" y="822" type="line"/>
      <point x="37" y="824"/>
      <point x="45" y="825"/>
      <point x="64" y="825" type="curve" smooth="yes"/>
      <point x="137" y="825"/>
      <point x="153" y="769"/>
      <point x="153" y="688" type="curve" smooth="yes"/>
      <point x="153" y="657"/>
      <point x="145" y="564"/>
      <point x="145" y="500" type="curve" smooth="yes"/>
      <point x="145" y="410"/>
      <point x="189" y="354"/>
      <point x="295" y="337" type="curve"/>
      <point x="295" y="333" type="line"/>
      <point x="192" y="319"/>
      <point x="145" y="264"/>
      <point x="145" y="170" type="curve" smooth="yes"/>
      <point x="145" y="95"/>
      <point x="153" y="25"/>
      <point x="153" y="-32" type="curve" smooth="yes"/>
      <point x="153" y="-132"/>
      <point x="123" y="-168"/>
      <point x="64" y="-168" type="curve" smooth="yes"/>
      <point x="49" y="-168"/>
      <point x="38" y="-167"/>
      <point x="29" y="-164" type="curve"/>
      <point x="24" y="-207" type="line"/>
      <point x="43" y="-209"/>
      <point x="55" y="-210"/>
    </contour>
  </outline>
</glyph>
<glyph name="guillemotleft" format="2">
  <advance width="520"/>
  <unicode hex="00AB"/>
  <note>
guillemotleft
</note>
  <outline>
    <contour>
      <point x="392" y="50" type="curve"/>
      <point x="407" y="52" type="line"/>
      <point x="410" y="55"/>
      <point x="446" y="150"/>
      <point x="446" y="162" type="curve"/>
      <point x="386" y="216"/>
      <point x="358" y="273"/>
      <point x="358" y="361" type="curve" smooth="yes"/>
      <point x="358" y="423"/>
      <point x="384" y="508"/>
      <point x="430" y="569" type="curve"/>
      <point x="406" y="586" type="line"/>
      <point x="316" y="491"/>
      <point x="274" y="385"/>
      <point x="274" y="275" type="curve" smooth="yes"/>
      <point x="274" y="187"/>
      <point x="313" y="103"/>
    </contour>
    <contour>
      <point x="176" y="15" type="curve"/>
      <point x="191" y="17" type="line"/>
      <point x="194" y="20"/>
      <point x="231" y="117"/>
      <point x="234" y="134" type="curve"/>
      <point x="184" y="184"/>
      <point x="158" y="242"/>
      <point x="158" y="347" type="curve" smooth="yes"/>
      <point x="158" y="417"/>
      <point x="188" y="506"/>
      <point x="232" y="567" type="curve"/>
      <point x="208" y="585" type="line"/>
      <point x="139" y="510"/>
      <point x="74" y="398"/>
      <point x="74" y="255" type="curve" smooth="yes"/>
      <point x="74" y="142"/>
      <point x="112" y="60"/>
    </contour>
  </outline>
</glyph>
<glyph name="periodcentered" format="2">
  <advance width="256"/>
  <unicode hex="00B7"/>
  <note>
periodcentered
</note>
  <outline>
    <contour>
      <point x="124" y="257" type="curve"/>
      <point x="132" y="257" type="line"/>
      <point x="178" y="289"/>
      <point x="224" y="329"/>
      <point x="224" y="362" type="curve" smooth="yes"/>
      <point x="224" y="394"/>
      <point x="193" y="419"/>
      <point x="138" y="454" type="curve"/>
      <point x="128" y="454" type="line"/>
      <point x="111" y="443"/>
      <point x="50" y="376"/>
      <point x="32" y="348" type="curve"/>
      <point x="32" y="338" type="line"/>
      <point x="61" y="317"/>
      <point x="70" y="309"/>
    </contour>
  </outline>
</glyph>
<glyph name="guillemotright" format="2">
  <advance width="520"/>
  <unicode hex="00BB"/>
  <note>
guillemotright
</note>
  <outline>
    <contour>
      <point x="114" y="24" type="line"/>
      <point x="184" y="98"/>
      <point x="246" y="201"/>
      <point x="246" y="335" type="curve" smooth="yes"/>
      <point x="246" y="434"/>
      <point x="198" y="513"/>
      <point x="128" y="560" type="curve"/>
      <point x="113" y="558" type="line"/>
      <point x="111" y="556"/>
      <point x="74" y="461"/>
      <point x="74" y="448" type="curve"/>
      <point x="132" y="396"/>
      <point x="162" y="339"/>
      <point x="162" y="249" type="curve" smooth="yes"/>
      <point x="162" y="196"/>
      <point x="141" y="108"/>
      <point x="90" y="41" type="curve"/>
    </contour>
    <contour>
      <point x="312" y="25" type="line"/>
      <point x="382" y="101"/>
      <point x="446" y="213"/>
      <point x="446" y="355" type="curve" smooth="yes"/>
      <point x="446" y="474"/>
      <point x="405" y="552"/>
      <point x="344" y="595" type="curve"/>
      <point x="329" y="593" type="line"/>
      <point x="319" y="571"/>
      <point x="286" y="491"/>
      <point x="286" y="476" type="curve"/>
      <point x="335" y="427"/>
      <point x="362" y="367"/>
      <point x="362" y="263" type="curve" smooth="yes"/>
      <point x="362" y="193"/>
      <point x="334" y="106"/>
      <point x="288" y="43" type="curve"/>
    </contour>
  </outline>
</glyph>
<glyph name="MultiplyArabic" format="2">
  <advance width="589"/>
  <unicode hex="00D7"/>
  <note>
MultiplyArabic
</note>
  <outline>
    <contour>
      <point x="482" y="89" type="line"/>
      <point x="517" y="123" type="line"/>
      <point x="327" y="312" type="line"/>
      <point x="518" y="503" type="line"/>
      <point x="485" y="534" type="line"/>
      <point x="296" y="345" type="line"/>
      <point x="106" y="534" type="line"/>
      <point x="71" y="502" type="line"/>
      <point x="261" y="312" type="line"/>
      <point x="71" y="121" type="line"/>
      <point x="103" y="90" type="line"/>
      <point x="292" y="279" type="line"/>
    </contour>
  </outline>
</glyph>
<glyph name="DivideArabic" format="2">
  <advance width="593"/>
  <unicode hex="00F7"/>
  <note>
DivideArabic
</note>
  <outline>
    <contour>
      <point x="288" y="414" type="curve"/>
      <point x="296" y="414" type="line"/>
      <point x="344" y="448"/>
      <point x="374" y="479"/>
      <point x="374" y="504" type="curve" smooth="yes"/>
      <point x="374" y="532"/>
      <point x="346" y="555"/>
      <point x="300" y="583" type="curve"/>
      <point x="292" y="583" type="line"/>
      <point x="281" y="575"/>
      <point x="227" y="518"/>
      <point x="210" y="492" type="curve"/>
      <point x="210" y="484" type="line"/>
      <point x="236" y="463"/>
      <point x="262" y="443"/>
    </contour>
    <contour>
      <point x="288" y="42" type="curve"/>
      <point x="296" y="42" type="line"/>
      <point x="344" y="76"/>
      <point x="374" y="107"/>
      <point x="374" y="132" type="curve" smooth="yes"/>
      <point x="374" y="160"/>
      <point x="346" y="183"/>
      <point x="300" y="211" type="curve"/>
      <point x="292" y="211" type="line"/>
      <point x="259" y="182"/>
      <point x="232" y="149"/>
      <point x="210" y="120" type="curve"/>
      <point x="210" y="112" type="line"/>
      <point x="236" y="91"/>
      <point x="262" y="70"/>
    </contour>
    <contour>
      <point x="40" y="286" type="line"/>
      <point x="554" y="286" type="line"/>
      <point x="554" y="338" type="line"/>
      <point x="40" y="338" type="line"/>
    </contour>
  </outline>
</glyph>
<glyph name="Sanah" format="2">
  <advance width="1582"/>
  <unicode hex="0601"/>
  <note>
Sanah
</note>
  <outline>
    <contour>
      <point x="128" y="-254" type="line"/>
      <point x="168" y="-194"/>
      <point x="207" y="-157"/>
      <point x="265" y="-157" type="curve" smooth="yes"/>
      <point x="297" y="-157"/>
      <point x="341" y="-173"/>
      <point x="387" y="-173" type="curve" smooth="yes"/>
      <point x="458" y="-173"/>
      <point x="515" y="-119"/>
      <point x="559" y="-57" type="curve" smooth="yes"/>
      <point x="579" y="-29"/>
      <point x="595" y="-14"/>
      <point x="609" y="-14" type="curve" smooth="yes"/>
      <point x="620" y="-14"/>
      <point x="640" y="-20"/>
      <point x="670" y="-32" type="curve" smooth="yes"/>
      <point x="700" y="-44"/>
      <point x="741" y="-51"/>
      <point x="793" y="-51" type="curve" smooth="yes"/>
      <point x="968" y="-51"/>
      <point x="1160" y="43"/>
      <point x="1290" y="145" type="curve" smooth="yes"/>
      <point x="1347" y="190"/>
      <point x="1390" y="218"/>
      <point x="1419" y="225" type="curve"/>
      <point x="1433" y="245"/>
      <point x="1474" y="344"/>
      <point x="1486" y="382" type="curve"/>
      <point x="1483" y="391" type="line"/>
      <point x="1468" y="389"/>
      <point x="1452" y="378"/>
      <point x="1424" y="355" type="curve" smooth="yes"/>
      <point x="1235" y="200"/>
      <point x="1060" y="135"/>
      <point x="831" y="135" type="curve" smooth="yes"/>
      <point x="742" y="135"/>
      <point x="692" y="157"/>
      <point x="674" y="157" type="curve" smooth="yes"/>
      <point x="656" y="157"/>
      <point x="643" y="144"/>
      <point x="632" y="132" type="curve" smooth="yes"/>
      <point x="566" y="60"/>
      <point x="555" y="42"/>
      <point x="502" y="42" type="curve" smooth="yes"/>
      <point x="467" y="42"/>
      <point x="424" y="55"/>
      <point x="397" y="55" type="curve" smooth="yes"/>
      <point x="325" y="55"/>
      <point x="266" y="30"/>
      <point x="219" y="-21" type="curve" smooth="yes"/>
      <point x="172" y="-72"/>
      <point x="130" y="-145"/>
      <point x="95" y="-240" type="curve"/>
    </contour>
  </outline>
</glyph>
<glyph name="Footnote" format="2">
  <advance width="1648"/>
  <unicode hex="0602"/>
  <note>
Footnote
</note>
  <outline>
    <contour>
      <point x="337" y="-43" type="curve" smooth="yes"/>
      <point x="812" y="-43"/>
      <point x="1235" y="41"/>
      <point x="1488" y="160" type="curve"/>
      <point x="1507" y="191"/>
      <point x="1535" y="261"/>
      <point x="1544" y="323" type="curve"/>
      <point x="1533" y="325" type="line"/>
      <point x="1267" y="214"/>
      <point x="923" y="150"/>
      <point x="502" y="132" type="curve"/>
      <point x="513" y="165"/>
      <point x="522" y="203"/>
      <point x="522" y="250" type="curve" smooth="yes"/>
      <point x="522" y="346"/>
      <point x="468" y="395"/>
      <point x="382" y="395" type="curve" smooth="yes"/>
      <point x="315" y="395"/>
      <point x="255" y="360"/>
      <point x="202" y="290" type="curve" smooth="yes"/>
      <point x="149" y="219"/>
      <point x="122" y="154"/>
      <point x="122" y="95" type="curve" smooth="yes"/>
      <point x="122" y="2"/>
      <point x="183" y="-43"/>
    </contour>
    <contour>
      <point x="405" y="130" type="line" smooth="yes"/>
      <point x="241" y="130"/>
      <point x="201" y="151"/>
      <point x="201" y="185" type="curve" smooth="yes"/>
      <point x="201" y="225"/>
      <point x="251" y="257"/>
      <point x="311" y="257" type="curve" smooth="yes"/>
      <point x="384" y="257"/>
      <point x="454" y="226"/>
      <point x="458" y="136" type="curve"/>
      <point x="458" y="130" type="line"/>
    </contour>
  </outline>
</glyph>
<glyph name="Safhah" format="2">
  <advance width="1463"/>
  <unicode hex="0603"/>
  <note>
Safhah
</note>
  <outline>
    <contour>
      <point x="227" y="-80" type="curve" smooth="yes"/>
      <point x="443" y="-80"/>
      <point x="614" y="-41"/>
      <point x="743" y="46" type="curve" smooth="yes"/>
      <point x="751" y="51"/>
      <point x="754" y="54"/>
      <point x="762" y="54" type="curve" smooth="yes"/>
      <point x="770" y="54"/>
      <point x="771" y="52"/>
      <point x="784" y="44" type="curve" smooth="yes"/>
      <point x="840" y="9"/>
      <point x="896" y="-2"/>
      <point x="959" y="-2" type="curve" smooth="yes"/>
      <point x="1061" y="-2"/>
      <point x="1148" y="40"/>
      <point x="1219" y="125" type="curve" smooth="yes"/>
      <point x="1290" y="209"/>
      <point x="1326" y="289"/>
      <point x="1326" y="365" type="curve" smooth="yes"/>
      <point x="1326" y="422"/>
      <point x="1287" y="466"/>
      <point x="1215" y="466" type="curve" smooth="yes"/>
      <point x="1081" y="466"/>
      <point x="985" y="357"/>
      <point x="879" y="203" type="curve"/>
      <point x="850" y="216"/>
      <point x="837" y="218"/>
      <point x="827" y="218" type="curve" smooth="yes"/>
      <point x="812" y="218"/>
      <point x="800" y="210"/>
      <point x="774" y="190" type="curve" smooth="yes"/>
      <point x="663" y="104"/>
      <point x="554" y="45"/>
      <point x="448" y="12" type="curve" smooth="yes"/>
      <point x="341" y="-21"/>
      <point x="226" y="-41"/>
      <point x="101" y="-48" type="curve"/>
      <point x="94" y="-73" type="line"/>
      <point x="114" y="-75"/>
      <point x="170" y="-80"/>
    </contour>
    <contour>
      <point x="1024" y="173" type="curve" smooth="yes"/>
      <point x="991" y="173"/>
      <point x="964" y="174"/>
      <point x="924" y="186" type="curve"/>
      <point x="983" y="259"/>
      <point x="1068" y="303"/>
      <point x="1151" y="303" type="curve" smooth="yes"/>
      <point x="1199" y="303"/>
      <point x="1239" y="286"/>
      <point x="1239" y="256" type="curve" smooth="yes"/>
      <point x="1239" y="210"/>
      <point x="1090" y="173"/>
    </contour>
  </outline>
</glyph>
<glyph name="Afghani" format="2">
  <advance width="331"/>
  <unicode hex="060B"/>
  <note>
Afghani
</note>
  <outline>
    <contour>
      <point x="53" y="0" type="curve" smooth="yes"/>
      <point x="265" y="0"/>
      <point x="359" y="217"/>
      <point x="359" y="435" type="curve" smooth="yes"/>
      <point x="359" y="540"/>
      <point x="319" y="660"/>
      <point x="217" y="660" type="curve" smooth="yes"/>
      <point x="184" y="660"/>
      <point x="154" y="642"/>
      <point x="132" y="599" type="curve" smooth="yes"/>
      <point x="98" y="534" type="line" smooth="yes"/>
      <point x="82" y="503"/>
      <point x="70" y="471"/>
      <point x="70" y="441" type="curve" smooth="yes"/>
      <point x="70" y="382"/>
      <point x="126" y="345"/>
      <point x="180" y="345" type="curve" smooth="yes"/>
      <point x="216" y="345"/>
      <point x="270" y="360"/>
      <point x="285" y="370" type="curve"/>
      <point x="292" y="361"/>
      <point x="298" y="344"/>
      <point x="298" y="326" type="curve" smooth="yes"/>
      <point x="298" y="266"/>
      <point x="251" y="190"/>
      <point x="86" y="190" type="curve" smooth="yes"/>
      <point x="39" y="190"/>
      <point x="13" y="142"/>
      <point x="13" y="80" type="curve" smooth="yes"/>
      <point x="13" y="27"/>
      <point x="26" y="0"/>
    </contour>
    <contour>
      <point x="153" y="-405" type="line"/>
      <point x="175" y="-355"/>
      <point x="188" y="-301"/>
      <point x="191" y="-254" type="curve" smooth="yes"/>
      <point x="194" y="-202"/>
      <point x="195" y="-182"/>
      <point x="197" y="-160" type="curve" smooth="yes"/>
      <point x="203" y="-89"/>
      <point x="206" y="-66"/>
      <point x="211" y="-50" type="curve"/>
      <point x="194" y="-46" type="line"/>
      <point x="169" y="-95"/>
      <point x="150" y="-144"/>
      <point x="148" y="-226" type="curve" smooth="yes"/>
      <point x="146" y="-299" type="line" smooth="yes"/>
      <point x="145" y="-336"/>
      <point x="142" y="-371"/>
      <point x="136" y="-403" type="curve"/>
    </contour>
    <contour>
      <point x="180" y="787" type="curve"/>
      <point x="188" y="787" type="line"/>
      <point x="234" y="819"/>
      <point x="280" y="859"/>
      <point x="280" y="892" type="curve" smooth="yes"/>
      <point x="280" y="924"/>
      <point x="249" y="949"/>
      <point x="194" y="984" type="curve"/>
      <point x="184" y="984" type="line"/>
      <point x="167" y="973"/>
      <point x="106" y="906"/>
      <point x="88" y="878" type="curve"/>
      <point x="88" y="868" type="line"/>
      <point x="117" y="847"/>
      <point x="129" y="835"/>
    </contour>
  </outline>
</glyph>
<glyph name="CommaArabic" format="2">
  <advance width="366"/>
  <unicode hex="060C"/>
  <note>
CommaArabic
</note>
  <outline>
    <contour>
      <point x="179" y="2" type="curve"/>
      <point x="190" y="2" type="line"/>
      <point x="217" y="21"/>
      <point x="239" y="41"/>
      <point x="258" y="63" type="curve" smooth="yes"/>
      <point x="277" y="85"/>
      <point x="286" y="102"/>
      <point x="286" y="115" type="curve" smooth="yes"/>
      <point x="286" y="137"/>
      <point x="277" y="147"/>
      <point x="242" y="178" type="curve" smooth="yes"/>
      <point x="220" y="197" type="line" smooth="yes"/>
      <point x="196" y="218"/>
      <point x="191" y="232"/>
      <point x="191" y="249" type="curve" smooth="yes"/>
      <point x="191" y="276"/>
      <point x="203" y="302"/>
      <point x="249" y="371" type="curve"/>
      <point x="223" y="388" type="line"/>
      <point x="144" y="304"/>
      <point x="93" y="201"/>
      <point x="93" y="133" type="curve" smooth="yes"/>
      <point x="93" y="76"/>
      <point x="120" y="36"/>
    </contour>
  </outline>
</glyph>
<glyph name="DateSeparatorArabic" format="2">
  <advance width="548"/>
  <unicode hex="060D"/>
  <note>
DateSeparatorArabic
</note>
  <outline>
    <contour>
      <point x="133" y="-4" type="line"/>
      <point x="181" y="92"/>
      <point x="240" y="149"/>
      <point x="300" y="188" type="curve" smooth="yes"/>
      <point x="331" y="208"/>
      <point x="356" y="221"/>
      <point x="371" y="228" type="curve" smooth="yes"/>
      <point x="386" y="235"/>
      <point x="400" y="263"/>
      <point x="412" y="312" type="curve" smooth="yes"/>
      <point x="424" y="361"/>
      <point x="432" y="397"/>
      <point x="435" y="420" type="curve"/>
      <point x="422" y="427" type="line"/>
      <point x="312" y="382"/>
      <point x="172" y="253"/>
      <point x="104" y="7" type="curve"/>
    </contour>
  </outline>
</glyph>
<glyph name="VerseSign" format="2">
  <advance width="1750"/>
  <unicode hex="060E"/>
  <note>
VerseSign
</note>
  <outline>
    <contour>
      <point x="430" y="-30" type="curve" smooth="yes"/>
      <point x="867" y="-30"/>
      <point x="1328" y="41"/>
      <point x="1606" y="174" type="curve"/>
      <point x="1630" y="213"/>
      <point x="1652" y="298"/>
      <point x="1655" y="326" type="curve"/>
      <point x="1644" y="328" type="line"/>
      <point x="1350" y="207"/>
      <point x="924" y="147"/>
      <point x="566" y="135" type="curve"/>
      <point x="586" y="184"/>
      <point x="596" y="240"/>
      <point x="596" y="286" type="curve" smooth="yes"/>
      <point x="596" y="372"/>
      <point x="538" y="459"/>
      <point x="416" y="459" type="curve" smooth="yes"/>
      <point x="347" y="459"/>
      <point x="277" y="421"/>
      <point x="208" y="346" type="curve" smooth="yes"/>
      <point x="139" y="270"/>
      <point x="104" y="193"/>
      <point x="104" y="114" type="curve" smooth="yes"/>
      <point x="104" y="-8"/>
      <point x="237" y="-30"/>
    </contour>
    <contour>
      <point x="502" y="135" type="line" smooth="yes"/>
      <point x="272" y="135"/>
      <point x="195" y="160"/>
      <point x="195" y="215" type="curve" smooth="yes"/>
      <point x="195" y="275"/>
      <point x="281" y="311"/>
      <point x="348" y="311" type="curve" smooth="yes"/>
      <point x="456" y="311"/>
      <point x="522" y="257"/>
      <point x="522" y="141" type="curve" smooth="yes"/>
      <point x="522" y="135" type="line"/>
    </contour>
  </outline>
</glyph>
<glyph name="Misra" format="2">
  <advance width="930"/>
  <unicode hex="060F"/>
  <note>
Misra
</note>
  <outline>
    <contour>
      <point x="103" y="-441" type="line"/>
      <point x="112" y="-419"/>
      <point x="122" y="-398"/>
      <point x="131" y="-378" type="curve" smooth="yes"/>
      <point x="156" y="-322" type="line"/>
      <point x="206" y="-352"/>
      <point x="274" y="-373"/>
      <point x="358" y="-373" type="curve" smooth="yes"/>
      <point x="637" y="-373"/>
      <point x="873" y="-184"/>
      <point x="873" y="129" type="curve" smooth="yes"/>
      <point x="873" y="298"/>
      <point x="765" y="359"/>
      <point x="659" y="359" type="curve" smooth="yes"/>
      <point x="493" y="359"/>
      <point x="344" y="219"/>
      <point x="210" y="-81" type="curve"/>
      <point x="162" y="-43"/>
      <point x="138" y="10"/>
      <point x="138" y="79" type="curve" smooth="yes"/>
      <point x="138" y="167"/>
      <point x="169" y="239"/>
      <point x="256" y="321" type="curve" smooth="yes"/>
      <point x="317" y="378"/>
      <point x="446" y="460"/>
      <point x="525" y="503" type="curve" smooth="yes"/>
      <point x="552" y="518"/>
      <point x="576" y="539"/>
      <point x="595" y="566" type="curve" smooth="yes"/>
      <point x="614" y="593"/>
      <point x="627" y="614"/>
      <point x="633" y="629" type="curve"/>
      <point x="616" y="641" type="line"/>
      <point x="570" y="608"/>
      <point x="521" y="577"/>
      <point x="474" y="552" type="curve" smooth="yes"/>
      <point x="439" y="533"/>
      <point x="428" y="530"/>
      <point x="391" y="530" type="curve" smooth="yes"/>
      <point x="316" y="530"/>
      <point x="254" y="562"/>
      <point x="254" y="627" type="curve" smooth="yes"/>
      <point x="254" y="664"/>
      <point x="292" y="717"/>
      <point x="383" y="717" type="curve" smooth="yes"/>
      <point x="419" y="717"/>
      <point x="449" y="701"/>
      <point x="466" y="685" type="curve"/>
      <point x="478" y="684" type="line"/>
      <point x="502" y="698"/>
      <point x="515" y="727"/>
      <point x="515" y="754" type="curve" smooth="yes"/>
      <point x="515" y="802"/>
      <point x="475" y="829"/>
      <point x="427" y="829" type="curve" smooth="yes"/>
      <point x="383" y="829"/>
      <point x="337" y="811"/>
      <point x="295" y="772" type="curve" smooth="yes"/>
      <point x="202" y="687"/>
      <point x="127" y="608"/>
      <point x="127" y="508" type="curve" smooth="yes"/>
      <point x="127" y="445"/>
      <point x="154" y="401"/>
      <point x="231" y="373" type="curve"/>
      <point x="86" y="250"/>
      <point x="18" y="123"/>
      <point x="18" y="-52" type="curve" smooth="yes"/>
      <point x="18" y="-151"/>
      <point x="50" y="-236"/>
      <point x="120" y="-296" type="curve"/>
      <point x="98" y="-354"/>
      <point x="82" y="-406"/>
      <point x="75" y="-434" type="curve"/>
    </contour>
    <contour>
      <point x="416" y="-139" type="curve" smooth="yes"/>
      <point x="353" y="-139"/>
      <point x="299" y="-129"/>
      <point x="256" y="-108" type="curve"/>
      <point x="328" y="43"/>
      <point x="470" y="199"/>
      <point x="653" y="199" type="curve" smooth="yes"/>
      <point x="743" y="199"/>
      <point x="822" y="169"/>
      <point x="822" y="90" type="curve" smooth="yes"/>
      <point x="822" y="-58"/>
      <point x="605" y="-139"/>
    </contour>
  </outline>
</glyph>
<glyph name="SallallahNS" format="2">
  <unicode hex="0610"/>
  <note>
SallallahNS
</note>
  <outline>
    <contour>
      <point x="-105" y="819" type="line"/>
      <point x="-86" y="869"/>
      <point x="-81" y="890"/>
      <point x="-81" y="953" type="curve"/>
      <point x="-66" y="941"/>
      <point x="-46" y="939"/>
      <point x="-26" y="939" type="curve" smooth="yes"/>
      <point x="25" y="939"/>
      <point x="70" y="960"/>
      <point x="107" y="1002" type="curve" smooth="yes"/>
      <point x="144" y="1044"/>
      <point x="162" y="1083"/>
      <point x="162" y="1119" type="curve" smooth="yes"/>
      <point x="162" y="1149"/>
      <point x="138" y="1160"/>
      <point x="116" y="1160" type="curve" smooth="yes"/>
      <point x="46" y="1160"/>
      <point x="-4" y="1095"/>
      <point x="-62" y="1017" type="curve"/>
      <point x="-78" y="1022"/>
      <point x="-87" y="1038"/>
      <point x="-88" y="1064" type="curve" smooth="yes"/>
      <point x="-89" y="1090"/>
      <point x="-93" y="1113"/>
      <point x="-99" y="1133" type="curve"/>
      <point x="-109" y="1133" type="line"/>
      <point x="-124" y="1098"/>
      <point x="-129" y="1085"/>
      <point x="-134" y="1072" type="curve"/>
      <point x="-134" y="1062"/>
      <point x="-130" y="1043"/>
      <point x="-126" y="1012" type="curve" smooth="yes"/>
      <point x="-122" y="981"/>
      <point x="-118" y="944"/>
      <point x="-118" y="877" type="curve" smooth="yes"/>
      <point x="-118" y="864"/>
      <point x="-119" y="843"/>
      <point x="-120" y="820" type="curve"/>
    </contour>
    <contour>
      <point x="-18" y="1008" type="curve"/>
      <point x="-25" y="1009"/>
      <point x="-30" y="1009"/>
      <point x="-35" y="1009" type="curve"/>
      <point x="-19" y="1028" type="line" smooth="yes"/>
      <point x="17" y="1071"/>
      <point x="47" y="1090"/>
      <point x="80" y="1090" type="curve" smooth="yes"/>
      <point x="95" y="1090"/>
      <point x="115" y="1086"/>
      <point x="115" y="1069" type="curve" smooth="yes"/>
      <point x="115" y="1045"/>
      <point x="53" y="1008"/>
    </contour>
  </outline>
</glyph>
<glyph name="AlayhissalamNS" format="2">
  <unicode hex="0611"/>
  <note>
AlayhissalamNS
</note>
  <outline>
    <contour>
      <point x="-100" y="810" type="line"/>
      <point x="-79" y="859"/>
      <point x="-76" y="879"/>
      <point x="-76" y="948" type="curve"/>
      <point x="-63" y="938"/>
      <point x="-48" y="933"/>
      <point x="-29" y="933" type="curve" smooth="yes"/>
      <point x="45" y="933"/>
      <point x="134" y="989"/>
      <point x="163" y="1065" type="curve"/>
      <point x="152" y="1074" type="line"/>
      <point x="129" y="1050"/>
      <point x="96" y="1022"/>
      <point x="66" y="1022" type="curve" smooth="yes"/>
      <point x="38" y="1022"/>
      <point x="3" y="1035"/>
      <point x="3" y="1059" type="curve" smooth="yes"/>
      <point x="3" y="1084"/>
      <point x="32" y="1099"/>
      <point x="53" y="1099" type="curve" smooth="yes"/>
      <point x="71" y="1099"/>
      <point x="86" y="1092"/>
      <point x="93" y="1080" type="curve"/>
      <point x="101" y="1080" type="line"/>
      <point x="109" y="1086"/>
      <point x="119" y="1096"/>
      <point x="119" y="1115" type="curve" smooth="yes"/>
      <point x="119" y="1138"/>
      <point x="99" y="1147"/>
      <point x="74" y="1147" type="curve" smooth="yes"/>
      <point x="21" y="1147"/>
      <point x="-54" y="1072"/>
      <point x="-54" y="1020" type="curve" smooth="yes"/>
      <point x="-54" y="1011"/>
      <point x="-53" y="1006"/>
      <point x="-49" y="999" type="curve"/>
      <point x="-70" y="1004"/>
      <point x="-81" y="1023"/>
      <point x="-83" y="1056" type="curve" smooth="yes"/>
      <point x="-85" y="1089"/>
      <point x="-89" y="1112"/>
      <point x="-94" y="1124" type="curve"/>
      <point x="-104" y="1124" type="line"/>
      <point x="-115" y="1099"/>
      <point x="-124" y="1077"/>
      <point x="-129" y="1062" type="curve"/>
      <point x="-128" y="1050"/>
      <point x="-126" y="1033"/>
      <point x="-121" y="1001" type="curve" smooth="yes"/>
      <point x="-116" y="969"/>
      <point x="-113" y="901"/>
      <point x="-113" y="868" type="curve" smooth="yes"/>
      <point x="-113" y="849"/>
      <point x="-114" y="830"/>
      <point x="-115" y="811" type="curve"/>
    </contour>
  </outline>
</glyph>
<glyph name="RahmatullahNS" format="2">
  <unicode hex="0612"/>
  <note>
RahmatullahNS
</note>
  <outline>
    <contour>
      <point x="-143" y="843" type="line"/>
      <point x="-133" y="843" type="line"/>
      <point x="-122" y="890"/>
      <point x="-96" y="935"/>
      <point x="-56" y="976" type="curve" smooth="yes"/>
      <point x="-16" y="1017"/>
      <point x="18" y="1045"/>
      <point x="47" y="1061" type="curve" smooth="yes"/>
      <point x="75" y="1077"/>
      <point x="95" y="1098"/>
      <point x="107" y="1124" type="curve"/>
      <point x="107" y="1132" type="line"/>
      <point x="86" y="1143"/>
      <point x="10" y="1152"/>
      <point x="-26" y="1152" type="curve" smooth="yes"/>
      <point x="-93" y="1152"/>
      <point x="-117" y="1129"/>
      <point x="-138" y="1062" type="curve"/>
      <point x="-120" y="1058" type="line"/>
      <point x="-109" y="1081"/>
      <point x="-96" y="1086"/>
      <point x="-60" y="1086" type="curve" smooth="yes"/>
      <point x="-46" y="1086" type="line" smooth="yes"/>
      <point x="-10" y="1086"/>
      <point x="17" y="1082"/>
      <point x="22" y="1078" type="curve"/>
      <point x="-93" y="1002"/>
      <point x="-138" y="940"/>
      <point x="-166" y="867" type="curve"/>
    </contour>
    <contour>
      <point x="-39" y="856" type="line"/>
      <point x="16" y="870"/>
      <point x="45" y="877"/>
      <point x="89" y="894" type="curve"/>
      <point x="119" y="919"/>
      <point x="160" y="1002"/>
      <point x="183" y="1111" type="curve"/>
      <point x="167" y="1114" type="line"/>
      <point x="150" y="1068"/>
      <point x="134" y="1034"/>
      <point x="119" y="1011" type="curve" smooth="yes"/>
      <point x="86" y="959"/>
      <point x="-12" y="889"/>
      <point x="-43" y="872" type="curve"/>
    </contour>
  </outline>
</glyph>
<glyph name="RadiallahNS" format="2">
  <unicode hex="0613"/>
  <note>
RadiallahNS
</note>
  <outline>
    <contour>
      <point x="-161" y="812" type="line"/>
      <point x="-142" y="862"/>
      <point x="-137" y="883"/>
      <point x="-137" y="946" type="curve"/>
      <point x="-122" y="934"/>
      <point x="-102" y="932"/>
      <point x="-82" y="932" type="curve" smooth="yes"/>
      <point x="-31" y="932"/>
      <point x="14" y="953"/>
      <point x="51" y="995" type="curve" smooth="yes"/>
      <point x="88" y="1037"/>
      <point x="106" y="1076"/>
      <point x="106" y="1112" type="curve" smooth="yes"/>
      <point x="106" y="1142"/>
      <point x="82" y="1153"/>
      <point x="60" y="1153" type="curve" smooth="yes"/>
      <point x="-10" y="1153"/>
      <point x="-60" y="1088"/>
      <point x="-118" y="1010" type="curve"/>
      <point x="-134" y="1015"/>
      <point x="-143" y="1031"/>
      <point x="-144" y="1057" type="curve" smooth="yes"/>
      <point x="-145" y="1083"/>
      <point x="-149" y="1106"/>
      <point x="-155" y="1126" type="curve"/>
      <point x="-165" y="1126" type="line"/>
      <point x="-180" y="1091"/>
      <point x="-185" y="1078"/>
      <point x="-190" y="1065" type="curve"/>
      <point x="-190" y="1055"/>
      <point x="-186" y="1036"/>
      <point x="-182" y="1005" type="curve" smooth="yes"/>
      <point x="-178" y="974"/>
      <point x="-174" y="937"/>
      <point x="-174" y="870" type="curve" smooth="yes"/>
      <point x="-174" y="857"/>
      <point x="-175" y="836"/>
      <point x="-176" y="813" type="curve"/>
    </contour>
    <contour>
      <point x="-74" y="1001" type="curve"/>
      <point x="-81" y="1002"/>
      <point x="-86" y="1002"/>
      <point x="-91" y="1002" type="curve"/>
      <point x="-75" y="1021" type="line" smooth="yes"/>
      <point x="-39" y="1064"/>
      <point x="-9" y="1083"/>
      <point x="24" y="1083" type="curve" smooth="yes"/>
      <point x="39" y="1083"/>
      <point x="59" y="1079"/>
      <point x="59" y="1062" type="curve" smooth="yes"/>
      <point x="59" y="1038"/>
      <point x="-3" y="1001"/>
    </contour>
    <contour>
      <point x="-15" y="841" type="line"/>
      <point x="23" y="850"/>
      <point x="79" y="864"/>
      <point x="113" y="879" type="curve"/>
      <point x="143" y="904"/>
      <point x="184" y="987"/>
      <point x="207" y="1096" type="curve"/>
      <point x="191" y="1099" type="line"/>
      <point x="174" y="1053"/>
      <point x="158" y="1019"/>
      <point x="143" y="996" type="curve" smooth="yes"/>
      <point x="110" y="944"/>
      <point x="12" y="874"/>
      <point x="-19" y="857" type="curve"/>
    </contour>
    <contour>
      <point x="-48" y="1139" type="curve"/>
      <point x="-44" y="1139" type="line"/>
      <point x="-20" y="1155"/>
      <point x="-7" y="1171"/>
      <point x="-7" y="1182" type="curve" smooth="yes"/>
      <point x="-7" y="1192"/>
      <point x="-19" y="1204"/>
      <point x="-42" y="1219" type="curve"/>
      <point x="-46" y="1219" type="line"/>
      <point x="-85" y="1176" type="line"/>
      <point x="-85" y="1171" type="line"/>
      <point x="-73" y="1162"/>
      <point x="-60" y="1151"/>
    </contour>
  </outline>
</glyph>
<glyph name="TakhallusNS" format="2">
  <unicode hex="0614"/>
  <note>
TakhallusNS
</note>
  <outline>
    <contour>
      <point x="-132" y="882" type="curve" smooth="yes"/>
      <point x="-83" y="882"/>
      <point x="-23" y="909"/>
      <point x="13" y="935" type="curve" smooth="yes"/>
      <point x="42" y="956"/>
      <point x="61" y="973"/>
      <point x="66" y="973" type="curve" smooth="yes"/>
      <point x="70" y="973"/>
      <point x="77" y="969"/>
      <point x="87" y="960" type="curve" smooth="yes"/>
      <point x="97" y="951"/>
      <point x="109" y="947"/>
      <point x="123" y="947" type="curve" smooth="yes"/>
      <point x="159" y="947"/>
      <point x="184" y="975"/>
      <point x="207" y="1055" type="curve"/>
      <point x="185" y="1060" type="line"/>
      <point x="174" y="1032"/>
      <point x="163" y="1017"/>
      <point x="141" y="1017" type="curve" smooth="yes"/>
      <point x="133" y="1017"/>
      <point x="125" y="1021"/>
      <point x="117" y="1029" type="curve"/>
      <point x="108" y="1037"/>
      <point x="100" y="1041"/>
      <point x="93" y="1041" type="curve" smooth="yes"/>
      <point x="86" y="1041"/>
      <point x="77" y="1033"/>
      <point x="65" y="1020" type="curve" smooth="yes"/>
      <point x="13" y="962"/>
      <point x="-96" y="946"/>
      <point x="-234" y="936" type="curve"/>
      <point x="-237" y="925" type="line"/>
      <point x="-224" y="914"/>
      <point x="-149" y="882"/>
    </contour>
  </outline>
</glyph>
<glyph name="SemicolonArabic" format="2">
  <advance width="338"/>
  <unicode hex="061B"/>
  <note>
SemicolonArabic
</note>
  <outline>
    <contour>
      <point x="163" y="354" type="curve"/>
      <point x="174" y="354" type="line"/>
      <point x="201" y="373"/>
      <point x="223" y="393"/>
      <point x="242" y="415" type="curve" smooth="yes"/>
      <point x="261" y="437"/>
      <point x="270" y="454"/>
      <point x="270" y="467" type="curve" smooth="yes"/>
      <point x="270" y="490"/>
      <point x="260" y="500"/>
      <point x="226" y="530" type="curve" smooth="yes"/>
      <point x="211" y="543"/>
      <point x="200" y="552"/>
      <point x="192" y="561" type="curve" smooth="yes"/>
      <point x="180" y="574"/>
      <point x="175" y="584"/>
      <point x="175" y="601" type="curve" smooth="yes"/>
      <point x="175" y="628"/>
      <point x="187" y="654"/>
      <point x="233" y="723" type="curve"/>
      <point x="207" y="740" type="line"/>
      <point x="128" y="656"/>
      <point x="77" y="553"/>
      <point x="77" y="485" type="curve" smooth="yes"/>
      <point x="77" y="428"/>
      <point x="104" y="388"/>
    </contour>
    <contour>
      <point x="167" y="1" type="curve"/>
      <point x="175" y="1" type="line"/>
      <point x="234" y="40"/>
      <point x="278" y="86"/>
      <point x="278" y="122" type="curve" smooth="yes"/>
      <point x="278" y="155"/>
      <point x="253" y="183"/>
      <point x="183" y="228" type="curve"/>
      <point x="171" y="228" type="line"/>
      <point x="150" y="213"/>
      <point x="86" y="139"/>
      <point x="63" y="106" type="curve"/>
      <point x="63" y="94" type="line"/>
      <point x="103" y="64"/>
      <point x="132" y="35"/>
    </contour>
  </outline>
</glyph>
<glyph name="ThreeDotPunct" format="2">
  <advance width="512"/>
  <unicode hex="061E"/>
  <note>
ThreeDotPunct
</note>
  <outline>
    <contour>
      <point x="256" y="226" type="curve"/>
      <point x="264" y="226" type="line"/>
      <point x="310" y="258"/>
      <point x="356" y="298"/>
      <point x="356" y="331" type="curve" smooth="yes"/>
      <point x="356" y="363"/>
      <point x="325" y="388"/>
      <point x="270" y="423" type="curve"/>
      <point x="260" y="423" type="line"/>
      <point x="243" y="412"/>
      <point x="182" y="345"/>
      <point x="164" y="317" type="curve"/>
      <point x="164" y="307" type="line"/>
      <point x="191" y="287"/>
      <point x="215" y="267"/>
    </contour>
    <contour>
      <point x="133" y="11" type="curve"/>
      <point x="141" y="11" type="line"/>
      <point x="187" y="43"/>
      <point x="233" y="83"/>
      <point x="233" y="116" type="curve" smooth="yes"/>
      <point x="233" y="148"/>
      <point x="202" y="173"/>
      <point x="147" y="208" type="curve"/>
      <point x="137" y="208" type="line"/>
      <point x="120" y="197"/>
      <point x="59" y="130"/>
      <point x="41" y="102" type="curve"/>
      <point x="41" y="92" type="line"/>
      <point x="70" y="71"/>
      <point x="104" y="40"/>
    </contour>
    <contour>
      <point x="374" y="11" type="curve"/>
      <point x="382" y="11" type="line"/>
      <point x="428" y="43"/>
      <point x="474" y="83"/>
      <point x="474" y="116" type="curve" smooth="yes"/>
      <point x="474" y="148"/>
      <point x="443" y="173"/>
      <point x="388" y="208" type="curve"/>
      <point x="378" y="208" type="line"/>
      <point x="361" y="197"/>
      <point x="300" y="130"/>
      <point x="282" y="102" type="curve"/>
      <point x="282" y="92" type="line"/>
      <point x="309" y="72"/>
      <point x="339" y="46"/>
    </contour>
  </outline>
</glyph>
<glyph name="QuestionmarkArabic" format="2">
  <advance width="504"/>
  <unicode hex="061F"/>
  <note>
QuestionmarkArabic
</note>
  <outline>
    <contour>
      <point x="297" y="267" type="line"/>
      <point x="302" y="290"/>
      <point x="305" y="313"/>
      <point x="305" y="336" type="curve" smooth="yes"/>
      <point x="305" y="420"/>
      <point x="279" y="475"/>
      <point x="217" y="526" type="curve" smooth="yes"/>
      <point x="159" y="573"/>
      <point x="132" y="601"/>
      <point x="132" y="635" type="curve" smooth="yes"/>
      <point x="132" y="699"/>
      <point x="211" y="731"/>
      <point x="287" y="731" type="curve" smooth="yes"/>
      <point x="323" y="731"/>
      <point x="351" y="727"/>
      <point x="364" y="722" type="curve"/>
      <point x="374" y="722" type="line"/>
      <point x="395" y="745"/>
      <point x="408" y="771"/>
      <point x="408" y="806" type="curve" smooth="yes"/>
      <point x="408" y="860"/>
      <point x="354" y="876"/>
      <point x="307" y="876" type="curve" smooth="yes"/>
      <point x="181" y="876"/>
      <point x="78" y="765"/>
      <point x="78" y="643" type="curve" smooth="yes"/>
      <point x="78" y="580"/>
      <point x="94" y="532"/>
      <point x="127" y="496" type="curve" smooth="yes"/>
      <point x="159" y="461"/>
      <point x="189" y="430"/>
      <point x="216" y="405" type="curve" smooth="yes"/>
      <point x="243" y="380"/>
      <point x="262" y="334"/>
      <point x="272" y="268" type="curve"/>
    </contour>
    <contour>
      <point x="277" y="1" type="curve"/>
      <point x="285" y="1" type="line"/>
      <point x="352" y="46"/>
      <point x="384" y="87"/>
      <point x="384" y="114" type="curve" smooth="yes"/>
      <point x="384" y="145"/>
      <point x="354" y="172"/>
      <point x="291" y="212" type="curve"/>
      <point x="281" y="212" type="line"/>
      <point x="262" y="197"/>
      <point x="191" y="119"/>
      <point x="178" y="98" type="curve"/>
      <point x="178" y="88" type="line"/>
      <point x="206" y="67"/>
      <point x="238" y="39"/>
    </contour>
  </outline>
</glyph>
<glyph name="YehKashmiri" format="2">
  <advance width="878"/>
  <unicode hex="0620"/>
  <note>
YehKashmiri
</note>
  <outline>
    <contour>
      <point x="254" y="-377" type="curve" smooth="yes"/>
      <point x="329" y="-377"/>
      <point x="399" y="-350"/>
      <point x="465" y="-297" type="curve" smooth="yes"/>
      <point x="610" y="-181"/>
      <point x="698" y="54"/>
      <point x="698" y="167" type="curve" smooth="yes"/>
      <point x="698" y="210"/>
      <point x="690" y="239"/>
      <point x="674" y="252" type="curve" smooth="yes"/>
      <point x="658" y="265"/>
      <point x="633" y="276"/>
      <point x="599" y="285" type="curve" smooth="yes"/>
      <point x="565" y="294"/>
      <point x="548" y="312"/>
      <point x="548" y="340" type="curve" smooth="yes"/>
      <point x="548" y="369"/>
      <point x="570" y="400"/>
      <point x="614" y="431" type="curve" smooth="yes"/>
      <point x="657" y="462"/>
      <point x="696" y="478"/>
      <point x="730" y="478" type="curve" smooth="yes"/>
      <point x="742" y="478"/>
      <point x="757" y="474"/>
      <point x="761" y="472" type="curve"/>
      <point x="774" y="474" type="line"/>
      <point x="840" y="630" type="line" smooth="yes"/>
      <point x="845" y="641"/>
      <point x="846" y="648"/>
      <point x="846" y="654" type="curve" smooth="yes"/>
      <point x="846" y="672"/>
      <point x="829" y="682"/>
      <point x="797" y="682" type="curve" smooth="yes"/>
      <point x="657" y="682"/>
      <point x="450" y="353"/>
      <point x="450" y="185" type="curve" smooth="yes"/>
      <point x="450" y="152"/>
      <point x="458" y="125"/>
      <point x="475" y="105" type="curve" smooth="yes"/>
      <point x="492" y="85"/>
      <point x="517" y="70"/>
      <point x="554" y="61" type="curve" smooth="yes"/>
      <point x="591" y="52"/>
      <point x="609" y="38"/>
      <point x="609" y="20" type="curve" smooth="yes"/>
      <point x="609" y="-57"/>
      <point x="442" y="-168"/>
      <point x="38" y="-231" type="curve"/>
      <point x="30" y="-250" type="line"/>
      <point x="37" y="-273"/>
      <point x="63" y="-300"/>
      <point x="108" y="-331" type="curve" smooth="yes"/>
      <point x="153" y="-362"/>
      <point x="201" y="-377"/>
    </contour>
  </outline>
</glyph>
<glyph name="Hamza" format="2">
  <advance width="583"/>
  <unicode hex="0621"/>
  <note>
Hamza
</note>
  <outline>
    <contour>
      <point x="72" y="12" type="line"/>
      <point x="124" y="68"/>
      <point x="182" y="113"/>
      <point x="245" y="156" type="curve" smooth="yes"/>
      <point x="449" y="296" type="line" smooth="yes"/>
      <point x="480" y="318"/>
      <point x="502" y="341"/>
      <point x="516" y="366" type="curve" smooth="yes"/>
      <point x="530" y="391"/>
      <point x="538" y="411"/>
      <point x="543" y="426" type="curve"/>
      <point x="528" y="437" type="line"/>
      <point x="483" y="403" type="line" smooth="yes"/>
      <point x="464" y="388"/>
      <point x="471" y="394"/>
      <point x="402" y="346" type="curve" smooth="yes"/>
      <point x="372" y="325"/>
      <point x="357" y="325"/>
      <point x="330" y="325" type="curve" smooth="yes"/>
      <point x="276" y="325"/>
      <point x="204" y="355"/>
      <point x="204" y="419" type="curve" smooth="yes"/>
      <point x="204" y="466"/>
      <point x="246" y="495"/>
      <point x="299" y="495" type="curve" smooth="yes"/>
      <point x="339" y="495"/>
      <point x="371" y="469"/>
      <point x="385" y="452" type="curve"/>
      <point x="392" y="452" type="line"/>
      <point x="424" y="464"/>
      <point x="439" y="491"/>
      <point x="439" y="523" type="curve" smooth="yes"/>
      <point x="439" y="564"/>
      <point x="397" y="585"/>
      <point x="356" y="585" type="curve" smooth="yes"/>
      <point x="299" y="585"/>
      <point x="238" y="555"/>
      <point x="171" y="494" type="curve" smooth="yes"/>
      <point x="104" y="433"/>
      <point x="70" y="372"/>
      <point x="70" y="313" type="curve" smooth="yes"/>
      <point x="70" y="267"/>
      <point x="92" y="211"/>
      <point x="169" y="191" type="curve"/>
      <point x="136" y="164"/>
      <point x="111" y="135"/>
      <point x="95" y="106" type="curve" smooth="yes"/>
      <point x="79" y="77"/>
      <point x="65" y="49"/>
      <point x="56" y="22" type="curve"/>
    </contour>
  </outline>
</glyph>
<glyph name="AlefMadda" format="2">
  <advance width="320"/>
  <unicode hex="0622"/>
  <note>
AlefMadda
</note>
  <outline>
    <contour>
      <point x="117" y="101" type="line"/>
      <point x="159" y="199"/>
      <point x="186" y="318"/>
      <point x="192" y="433" type="curve" smooth="yes"/>
      <point x="208" y="730" type="line" smooth="yes"/>
      <point x="215" y="858"/>
      <point x="226" y="919"/>
      <point x="236" y="950" type="curve"/>
      <point x="211" y="958" type="line"/>
      <point x="147" y="824"/>
      <point x="133" y="770"/>
      <point x="126" y="621" type="curve" smooth="yes"/>
      <point x="113" y="334" type="line" smooth="yes"/>
      <point x="107" y="199"/>
      <point x="96" y="132"/>
      <point x="91" y="107" type="curve"/>
    </contour>
    <contour>
      <point x="-42" y="1033" type="line"/>
      <point x="-22" y="1060"/>
      <point x="-8" y="1079"/>
      <point x="23" y="1079" type="curve" smooth="yes"/>
      <point x="44" y="1079"/>
      <point x="60" y="1073"/>
      <point x="96" y="1067" type="curve" smooth="yes"/>
      <point x="132" y="1061"/>
      <point x="171" y="1058"/>
      <point x="200" y="1058" type="curve" smooth="yes"/>
      <point x="307" y="1058"/>
      <point x="420" y="1101"/>
      <point x="508" y="1221" type="curve"/>
      <point x="491" y="1235" type="line"/>
      <point x="433" y="1187"/>
      <point x="373" y="1170"/>
      <point x="277" y="1170" type="curve" smooth="yes"/>
      <point x="253" y="1170"/>
      <point x="209" y="1171"/>
      <point x="151" y="1182" type="curve" smooth="yes"/>
      <point x="104" y="1191"/>
      <point x="103" y="1192"/>
      <point x="83" y="1192" type="curve" smooth="yes"/>
      <point x="28" y="1192"/>
      <point x="-22" y="1132"/>
      <point x="-64" y="1043" type="curve"/>
    </contour>
  </outline>
</glyph>
<glyph name="AlefHamzaAbove" format="2">
  <advance width="320"/>
  <unicode hex="0623"/>
  <note>
AlefHamzaAbove
</note>
  <outline>
    <contour>
      <point x="117" y="101" type="line"/>
      <point x="159" y="199"/>
      <point x="186" y="318"/>
      <point x="192" y="433" type="curve" smooth="yes"/>
      <point x="208" y="730" type="line" smooth="yes"/>
      <point x="215" y="858"/>
      <point x="226" y="919"/>
      <point x="236" y="950" type="curve"/>
      <point x="211" y="958" type="line"/>
      <point x="147" y="824"/>
      <point x="133" y="770"/>
      <point x="126" y="621" type="curve" smooth="yes"/>
      <point x="113" y="334" type="line" smooth="yes"/>
      <point x="107" y="199"/>
      <point x="96" y="132"/>
      <point x="91" y="107" type="curve"/>
    </contour>
    <contour>
      <point x="106" y="976" type="curve" smooth="yes"/>
      <point x="136" y="976"/>
      <point x="164" y="999"/>
      <point x="191" y="1046" type="curve" smooth="yes"/>
      <point x="218" y="1093"/>
      <point x="241" y="1116"/>
      <point x="260" y="1116" type="curve" smooth="yes"/>
      <point x="278" y="1116"/>
      <point x="288" y="1105"/>
      <point x="288" y="1092" type="curve" smooth="yes"/>
      <point x="288" y="1089"/>
      <point x="287" y="1085"/>
      <point x="286" y="1081" type="curve"/>
      <point x="304" y="1076" type="line"/>
      <point x="321" y="1096"/>
      <point x="338" y="1141"/>
      <point x="338" y="1168" type="curve" smooth="yes"/>
      <point x="338" y="1204"/>
      <point x="316" y="1214"/>
      <point x="296" y="1214" type="curve" smooth="yes"/>
      <point x="266" y="1214"/>
      <point x="246" y="1193"/>
      <point x="221" y="1154" type="curve" smooth="yes"/>
      <point x="192" y="1109" type="line" smooth="yes"/>
      <point x="174" y="1082"/>
      <point x="159" y="1074"/>
      <point x="145" y="1074" type="curve" smooth="yes"/>
      <point x="128" y="1074"/>
      <point x="120" y="1083"/>
      <point x="120" y="1097" type="curve" smooth="yes"/>
      <point x="120" y="1101"/>
      <point x="121" y="1105"/>
      <point x="122" y="1109" type="curve"/>
      <point x="103" y="1114" type="line"/>
      <point x="88" y="1096"/>
      <point x="67" y="1058"/>
      <point x="67" y="1021" type="curve" smooth="yes"/>
      <point x="67" y="992"/>
      <point x="83" y="976"/>
    </contour>
  </outline>
</glyph>
<glyph name="WawHamza" format="2">
  <advance width="485"/>
  <unicode hex="0624"/>
  <note>
WawHamza
</note>
  <outline>
    <contour>
      <point x="17" y="-99" type="line"/>
      <point x="92" y="-84"/>
      <point x="268" y="-21"/>
      <point x="304" y="6" type="curve" smooth="yes"/>
      <point x="332" y="27"/>
      <point x="418" y="171"/>
      <point x="418" y="311" type="curve" smooth="yes"/>
      <point x="418" y="373"/>
      <point x="408" y="424"/>
      <point x="388" y="464" type="curve" smooth="yes"/>
      <point x="368" y="504"/>
      <point x="337" y="524"/>
      <point x="298" y="524" type="curve" smooth="yes"/>
      <point x="260" y="524"/>
      <point x="231" y="504"/>
      <point x="211" y="463" type="curve" smooth="yes"/>
      <point x="171" y="382" type="line" smooth="yes"/>
      <point x="153" y="345"/>
      <point x="146" y="312"/>
      <point x="146" y="288" type="curve" smooth="yes"/>
      <point x="146" y="229"/>
      <point x="200" y="192"/>
      <point x="255" y="192" type="curve" smooth="yes"/>
      <point x="294" y="192"/>
      <point x="322" y="200"/>
      <point x="342" y="211" type="curve"/>
      <point x="347" y="210" type="line"/>
      <point x="339" y="159"/>
      <point x="297" y="106"/>
      <point x="220" y="53" type="curve" smooth="yes"/>
      <point x="143" y="0"/>
      <point x="72" y="-43"/>
      <point x="9" y="-74" type="curve"/>
    </contour>
    <contour>
      <point x="179" y="649" type="curve" smooth="yes"/>
      <point x="209" y="649"/>
      <point x="237" y="672"/>
      <point x="264" y="719" type="curve" smooth="yes"/>
      <point x="291" y="766"/>
      <point x="314" y="789"/>
      <point x="333" y="789" type="curve" smooth="yes"/>
      <point x="351" y="789"/>
      <point x="361" y="778"/>
      <point x="361" y="765" type="curve" smooth="yes"/>
      <point x="361" y="762"/>
      <point x="360" y="758"/>
      <point x="359" y="754" type="curve"/>
      <point x="377" y="749" type="line"/>
      <point x="394" y="769"/>
      <point x="411" y="814"/>
      <point x="411" y="841" type="curve" smooth="yes"/>
      <point x="411" y="877"/>
      <point x="389" y="887"/>
      <point x="369" y="887" type="curve" smooth="yes"/>
      <point x="339" y="887"/>
      <point x="319" y="866"/>
      <point x="294" y="827" type="curve" smooth="yes"/>
      <point x="265" y="782" type="line" smooth="yes"/>
      <point x="247" y="755"/>
      <point x="232" y="747"/>
      <point x="218" y="747" type="curve" smooth="yes"/>
      <point x="201" y="747"/>
      <point x="193" y="756"/>
      <point x="193" y="770" type="curve" smooth="yes"/>
      <point x="193" y="774"/>
      <point x="194" y="778"/>
      <point x="195" y="782" type="curve"/>
      <point x="176" y="787" type="line"/>
      <point x="161" y="769"/>
      <point x="140" y="731"/>
      <point x="140" y="694" type="curve" smooth="yes"/>
      <point x="140" y="665"/>
      <point x="156" y="649"/>
    </contour>
  </outline>
</glyph>
<glyph name="AlefHamzaBelow" format="2">
  <advance width="320"/>
  <unicode hex="0625"/>
  <note>
AlefHamzaBelow
</note>
  <outline>
    <contour>
      <point x="117" y="101" type="line"/>
      <point x="159" y="199"/>
      <point x="186" y="318"/>
      <point x="192" y="433" type="curve" smooth="yes"/>
      <point x="208" y="730" type="line" smooth="yes"/>
      <point x="215" y="858"/>
      <point x="226" y="919"/>
      <point x="236" y="950" type="curve"/>
      <point x="211" y="958" type="line"/>
      <point x="147" y="824"/>
      <point x="133" y="770"/>
      <point x="126" y="621" type="curve" smooth="yes"/>
      <point x="113" y="334" type="line" smooth="yes"/>
      <point x="107" y="199"/>
      <point x="96" y="132"/>
      <point x="91" y="107" type="curve"/>
    </contour>
    <contour>
      <point x="-7" y="-227" type="curve" smooth="yes"/>
      <point x="23" y="-227"/>
      <point x="51" y="-204"/>
      <point x="78" y="-157" type="curve" smooth="yes"/>
      <point x="105" y="-110"/>
      <point x="128" y="-87"/>
      <point x="147" y="-87" type="curve" smooth="yes"/>
      <point x="165" y="-87"/>
      <point x="175" y="-98"/>
      <point x="175" y="-111" type="curve" smooth="yes"/>
      <point x="175" y="-114"/>
      <point x="174" y="-118"/>
      <point x="173" y="-122" type="curve"/>
      <point x="191" y="-127" type="line"/>
      <point x="208" y="-107"/>
      <point x="225" y="-62"/>
      <point x="225" y="-35" type="curve" smooth="yes"/>
      <point x="225" y="1"/>
      <point x="203" y="11"/>
      <point x="183" y="11" type="curve" smooth="yes"/>
      <point x="153" y="11"/>
      <point x="133" y="-10"/>
      <point x="108" y="-49" type="curve" smooth="yes"/>
      <point x="79" y="-94" type="line" smooth="yes"/>
      <point x="61" y="-121"/>
      <point x="46" y="-129"/>
      <point x="32" y="-129" type="curve" smooth="yes"/>
      <point x="15" y="-129"/>
      <point x="7" y="-120"/>
      <point x="7" y="-106" type="curve" smooth="yes"/>
      <point x="7" y="-102"/>
      <point x="8" y="-98"/>
      <point x="9" y="-94" type="curve"/>
      <point x="-10" y="-89" type="line"/>
      <point x="-25" y="-107"/>
      <point x="-46" y="-145"/>
      <point x="-46" y="-182" type="curve" smooth="yes"/>
      <point x="-46" y="-211"/>
      <point x="-30" y="-227"/>
    </contour>
  </outline>
</glyph>
<glyph name="Beh" format="2">
  <advance width="1227"/>
  <unicode hex="0628"/>
  <note>
Beh
</note>
  <outline>
    <contour>
      <point x="394" y="-27" type="curve" smooth="yes"/>
      <point x="518" y="-27"/>
      <point x="642" y="-8"/>
      <point x="765" y="29" type="curve" smooth="yes"/>
      <point x="888" y="66"/>
      <point x="979" y="116"/>
      <point x="1039" y="179" type="curve" smooth="yes"/>
      <point x="1099" y="242"/>
      <point x="1146" y="342"/>
      <point x="1179" y="479" type="curve"/>
      <point x="1146" y="485" type="line"/>
      <point x="1111" y="409"/>
      <point x="1062" y="354"/>
      <point x="999" y="320" type="curve" smooth="yes"/>
      <point x="883" y="257"/>
      <point x="656" y="195"/>
      <point x="431" y="195" type="curve" smooth="yes"/>
      <point x="328" y="195"/>
      <point x="249" y="204"/>
      <point x="194" y="222" type="curve" smooth="yes"/>
      <point x="139" y="240"/>
      <point x="111" y="278"/>
      <point x="111" y="335" type="curve" smooth="yes"/>
      <point x="111" y="361"/>
      <point x="113" y="371"/>
      <point x="115" y="383" type="curve"/>
      <point x="80" y="388" type="line"/>
      <point x="59" y="321"/>
      <point x="48" y="256"/>
      <point x="48" y="203" type="curve" smooth="yes"/>
      <point x="48" y="22"/>
      <point x="204" y="-27"/>
    </contour>
    <contour>
      <point x="562" y="-353" type="curve"/>
      <point x="570" y="-353" type="line"/>
      <point x="616" y="-321"/>
      <point x="662" y="-281"/>
      <point x="662" y="-248" type="curve" smooth="yes"/>
      <point x="662" y="-216"/>
      <point x="631" y="-191"/>
      <point x="576" y="-156" type="curve"/>
      <point x="566" y="-156" type="line"/>
      <point x="549" y="-167"/>
      <point x="488" y="-234"/>
      <point x="470" y="-262" type="curve"/>
      <point x="470" y="-272" type="line"/>
      <point x="499" y="-293"/>
      <point x="506" y="-301"/>
    </contour>
  </outline>
</glyph>
<glyph name="TehMarbuta" format="2">
  <advance width="377"/>
  <unicode hex="0629"/>
  <note>
TehMarbuta
</note>
  <outline>
    <contour>
      <point x="114" y="-17" type="curve" smooth="yes"/>
      <point x="183" y="-17"/>
      <point x="242" y="14"/>
      <point x="289" y="75" type="curve" smooth="yes"/>
      <point x="336" y="136"/>
      <point x="359" y="205"/>
      <point x="359" y="281" type="curve" smooth="yes"/>
      <point x="359" y="348"/>
      <point x="341" y="401"/>
      <point x="305" y="440" type="curve" smooth="yes"/>
      <point x="269" y="479"/>
      <point x="232" y="498"/>
      <point x="193" y="498" type="curve" smooth="yes"/>
      <point x="145" y="498"/>
      <point x="89" y="388"/>
      <point x="89" y="346" type="curve" smooth="yes"/>
      <point x="89" y="337"/>
      <point x="91" y="331"/>
      <point x="95" y="327" type="curve"/>
      <point x="20" y="238"/>
      <point x="1" y="168"/>
      <point x="1" y="92" type="curve" smooth="yes"/>
      <point x="1" y="26"/>
      <point x="47" y="-17"/>
    </contour>
    <contour>
      <point x="163" y="104" type="curve" smooth="yes"/>
      <point x="113" y="104"/>
      <point x="82" y="129"/>
      <point x="82" y="179" type="curve" smooth="yes"/>
      <point x="82" y="216"/>
      <point x="101" y="270"/>
      <point x="145" y="306" type="curve"/>
      <point x="218" y="292"/>
      <point x="278" y="241"/>
      <point x="278" y="183" type="curve" smooth="yes"/>
      <point x="278" y="155"/>
      <point x="267" y="135"/>
      <point x="246" y="123" type="curve" smooth="yes"/>
      <point x="225" y="111"/>
      <point x="197" y="104"/>
    </contour>
    <contour>
      <point x="117" y="567" type="curve"/>
      <point x="125" y="567" type="line"/>
      <point x="162" y="592"/>
      <point x="190" y="617"/>
      <point x="205" y="640" type="curve"/>
      <point x="221" y="627"/>
      <point x="237" y="612"/>
      <point x="265" y="585" type="curve"/>
      <point x="273" y="585" type="line"/>
      <point x="319" y="617"/>
      <point x="365" y="657"/>
      <point x="365" y="690" type="curve" smooth="yes"/>
      <point x="365" y="722"/>
      <point x="334" y="747"/>
      <point x="279" y="782" type="curve"/>
      <point x="269" y="782" type="line"/>
      <point x="257" y="774"/>
      <point x="227" y="743"/>
      <point x="199" y="710" type="curve"/>
      <point x="186" y="725"/>
      <point x="165" y="742"/>
      <point x="131" y="764" type="curve"/>
      <point x="121" y="764" type="line"/>
      <point x="104" y="753"/>
      <point x="43" y="686"/>
      <point x="25" y="658" type="curve"/>
      <point x="25" y="648" type="line"/>
      <point x="54" y="627"/>
      <point x="61" y="619"/>
    </contour>
  </outline>
</glyph>
<glyph name="Teh" format="2">
  <advance width="1227"/>
  <unicode hex="062A"/>
  <note>
Teh
</note>
  <outline>
    <contour>
      <point x="394" y="-27" type="curve" smooth="yes"/>
      <point x="518" y="-27"/>
      <point x="642" y="-8"/>
      <point x="765" y="29" type="curve" smooth="yes"/>
      <point x="888" y="66"/>
      <point x="979" y="116"/>
      <point x="1039" y="179" type="curve" smooth="yes"/>
      <point x="1099" y="242"/>
      <point x="1146" y="342"/>
      <point x="1179" y="479" type="curve"/>
      <point x="1146" y="485" type="line"/>
      <point x="1111" y="409"/>
      <point x="1062" y="354"/>
      <point x="999" y="320" type="curve" smooth="yes"/>
      <point x="883" y="257"/>
      <point x="656" y="195"/>
      <point x="431" y="195" type="curve" smooth="yes"/>
      <point x="328" y="195"/>
      <point x="249" y="204"/>
      <point x="194" y="222" type="curve" smooth="yes"/>
      <point x="139" y="240"/>
      <point x="111" y="278"/>
      <point x="111" y="335" type="curve" smooth="yes"/>
      <point x="111" y="361"/>
      <point x="113" y="371"/>
      <point x="115" y="383" type="curve"/>
      <point x="80" y="388" type="line"/>
      <point x="59" y="321"/>
      <point x="48" y="256"/>
      <point x="48" y="203" type="curve" smooth="yes"/>
      <point x="48" y="22"/>
      <point x="204" y="-27"/>
    </contour>
    <contour>
      <point x="508" y="495" type="curve"/>
      <point x="516" y="495" type="line"/>
      <point x="553" y="520"/>
      <point x="581" y="545"/>
      <point x="596" y="568" type="curve"/>
      <point x="612" y="555"/>
      <point x="628" y="540"/>
      <point x="656" y="513" type="curve"/>
      <point x="664" y="513" type="line"/>
      <point x="710" y="545"/>
      <point x="756" y="585"/>
      <point x="756" y="618" type="curve" smooth="yes"/>
      <point x="756" y="650"/>
      <point x="725" y="675"/>
      <point x="670" y="710" type="curve"/>
      <point x="660" y="710" type="line"/>
      <point x="648" y="702"/>
      <point x="618" y="671"/>
      <point x="590" y="638" type="curve"/>
      <point x="577" y="653"/>
      <point x="556" y="670"/>
      <point x="522" y="692" type="curve"/>
      <point x="512" y="692" type="line"/>
      <point x="495" y="681"/>
      <point x="434" y="614"/>
      <point x="416" y="586" type="curve"/>
      <point x="416" y="576" type="line"/>
      <point x="445" y="555"/>
      <point x="452" y="547"/>
    </contour>
  </outline>
</glyph>
<glyph name="Theh" format="2">
  <advance width="1227"/>
  <unicode hex="062B"/>
  <note>
Theh
</note>
  <outline>
    <contour>
      <point x="394" y="-27" type="curve" smooth="yes"/>
      <point x="518" y="-27"/>
      <point x="642" y="-8"/>
      <point x="765" y="29" type="curve" smooth="yes"/>
      <point x="888" y="66"/>
      <point x="979" y="116"/>
      <point x="1039" y="179" type="curve" smooth="yes"/>
      <point x="1099" y="242"/>
      <point x="1146" y="342"/>
      <point x="1179" y="479" type="curve"/>
      <point x="1146" y="485" type="line"/>
      <point x="1111" y="409"/>
      <point x="1062" y="354"/>
      <point x="999" y="320" type="curve" smooth="yes"/>
      <point x="883" y="257"/>
      <point x="656" y="195"/>
      <point x="431" y="195" type="curve" smooth="yes"/>
      <point x="328" y="195"/>
      <point x="249" y="204"/>
      <point x="194" y="222" type="curve" smooth="yes"/>
      <point x="139" y="240"/>
      <point x="111" y="278"/>
      <point x="111" y="335" type="curve" smooth="yes"/>
      <point x="111" y="349"/>
      <point x="113" y="369"/>
      <point x="115" y="383" type="curve"/>
      <point x="80" y="388" type="line"/>
      <point x="59" y="321"/>
      <point x="48" y="256"/>
      <point x="48" y="203" type="curve" smooth="yes"/>
      <point x="48" y="22"/>
      <point x="204" y="-27"/>
    </contour>
    <contour>
      <point x="507" y="494" type="curve"/>
      <point x="515" y="494" type="line"/>
      <point x="552" y="519"/>
      <point x="580" y="544"/>
      <point x="595" y="567" type="curve"/>
      <point x="611" y="554"/>
      <point x="627" y="539"/>
      <point x="655" y="512" type="curve"/>
      <point x="663" y="512" type="line"/>
      <point x="709" y="544"/>
      <point x="755" y="584"/>
      <point x="755" y="617" type="curve" smooth="yes"/>
      <point x="755" y="647"/>
      <point x="731" y="671"/>
      <point x="671" y="709" type="curve"/>
      <point x="661" y="709" type="line"/>
      <point x="649" y="701"/>
      <point x="617" y="670"/>
      <point x="589" y="637" type="curve"/>
      <point x="576" y="653"/>
      <point x="554" y="671"/>
      <point x="523" y="691" type="curve"/>
      <point x="513" y="691" type="line"/>
      <point x="500" y="683"/>
      <point x="436" y="616"/>
      <point x="415" y="585" type="curve"/>
      <point x="415" y="575" type="line"/>
      <point x="444" y="554"/>
      <point x="451" y="546"/>
    </contour>
    <contour>
      <point x="579" y="677" type="curve"/>
      <point x="588" y="677" type="line"/>
      <point x="644" y="721"/>
      <point x="666" y="749"/>
      <point x="666" y="769" type="curve" smooth="yes"/>
      <point x="666" y="787"/>
      <point x="649" y="806"/>
      <point x="592" y="844" type="curve"/>
      <point x="584" y="844" type="line"/>
      <point x="565" y="831"/>
      <point x="516" y="778"/>
      <point x="501" y="756" type="curve"/>
      <point x="501" y="748" type="line"/>
      <point x="560" y="695"/>
      <point x="542" y="714"/>
    </contour>
  </outline>
</glyph>
<glyph name="Jeem" format="2">
  <advance width="900"/>
  <unicode hex="062C"/>
  <note>
Jeem
</note>
  <outline>
    <contour>
      <point x="355" y="-373" type="curve" smooth="yes"/>
      <point x="574" y="-373"/>
      <point x="760" y="-207"/>
      <point x="889" y="124" type="curve"/>
      <point x="856" y="135" type="line"/>
      <point x="772" y="-39"/>
      <point x="632" y="-139"/>
      <point x="433" y="-139" type="curve" smooth="yes"/>
      <point x="284" y="-139"/>
      <point x="141" y="-67"/>
      <point x="141" y="100" type="curve" smooth="yes"/>
      <point x="141" y="165"/>
      <point x="159" y="227"/>
      <point x="194" y="285" type="curve" smooth="yes"/>
      <point x="229" y="342"/>
      <point x="274" y="394"/>
      <point x="329" y="439" type="curve" smooth="yes"/>
      <point x="384" y="484"/>
      <point x="442" y="526"/>
      <point x="503" y="563" type="curve" smooth="yes"/>
      <point x="564" y="600"/>
      <point x="609" y="648"/>
      <point x="639" y="705" type="curve"/>
      <point x="637" y="719" type="line"/>
      <point x="573" y="738"/>
      <point x="458" y="760"/>
      <point x="379" y="760" type="curve" smooth="yes"/>
      <point x="300" y="760"/>
      <point x="244" y="743"/>
      <point x="209" y="708" type="curve" smooth="yes"/>
      <point x="174" y="673"/>
      <point x="145" y="621"/>
      <point x="123" y="552" type="curve"/>
      <point x="156" y="542" type="line"/>
      <point x="179" y="589"/>
      <point x="206" y="597"/>
      <point x="276" y="597" type="curve" smooth="yes"/>
      <point x="308" y="597"/>
      <point x="351" y="593"/>
      <point x="403" y="589" type="curve" smooth="yes"/>
      <point x="415" y="588"/>
      <point x="424" y="586"/>
      <point x="430" y="584" type="curve"/>
      <point x="275" y="478"/>
      <point x="167" y="377"/>
      <point x="108" y="281" type="curve" smooth="yes"/>
      <point x="49" y="185"/>
      <point x="18" y="80"/>
      <point x="18" y="-35" type="curve" smooth="yes"/>
      <point x="18" y="-234"/>
      <point x="145" y="-373"/>
    </contour>
    <contour>
      <point x="434" y="124" type="curve"/>
      <point x="442" y="124" type="line"/>
      <point x="488" y="156"/>
      <point x="534" y="196"/>
      <point x="534" y="229" type="curve" smooth="yes"/>
      <point x="534" y="261"/>
      <point x="503" y="286"/>
      <point x="448" y="321" type="curve"/>
      <point x="438" y="321" type="line"/>
      <point x="421" y="310"/>
      <point x="360" y="243"/>
      <point x="342" y="215" type="curve"/>
      <point x="342" y="205" type="line"/>
      <point x="371" y="184"/>
      <point x="378" y="176"/>
    </contour>
  </outline>
</glyph>
<glyph name="Xah" format="2">
  <advance width="900"/>
  <unicode hex="062E"/>
  <note>
Xah
</note>
  <outline>
    <contour>
      <point x="355" y="-373" type="curve" smooth="yes"/>
      <point x="574" y="-373"/>
      <point x="760" y="-207"/>
      <point x="889" y="124" type="curve"/>
      <point x="856" y="135" type="line"/>
      <point x="772" y="-39"/>
      <point x="632" y="-139"/>
      <point x="433" y="-139" type="curve" smooth="yes"/>
      <point x="284" y="-139"/>
      <point x="141" y="-67"/>
      <point x="141" y="100" type="curve" smooth="yes"/>
      <point x="141" y="165"/>
      <point x="159" y="227"/>
      <point x="194" y="285" type="curve" smooth="yes"/>
      <point x="229" y="342"/>
      <point x="274" y="394"/>
      <point x="329" y="439" type="curve" smooth="yes"/>
      <point x="384" y="484"/>
      <point x="442" y="526"/>
      <point x="503" y="563" type="curve" smooth="yes"/>
      <point x="564" y="600"/>
      <point x="609" y="648"/>
      <point x="639" y="705" type="curve"/>
      <point x="637" y="719" type="line"/>
      <point x="573" y="738"/>
      <point x="458" y="760"/>
      <point x="379" y="760" type="curve" smooth="yes"/>
      <point x="300" y="760"/>
      <point x="244" y="743"/>
      <point x="209" y="708" type="curve" smooth="yes"/>
      <point x="174" y="673"/>
      <point x="145" y="621"/>
      <point x="123" y="552" type="curve"/>
      <point x="156" y="542" type="line"/>
      <point x="179" y="589"/>
      <point x="206" y="597"/>
      <point x="276" y="597" type="curve" smooth="yes"/>
      <point x="307" y="597"/>
      <point x="339" y="594"/>
      <point x="403" y="589" type="curve" smooth="yes"/>
      <point x="415" y="588"/>
      <point x="424" y="586"/>
      <point x="430" y="584" type="curve"/>
      <point x="275" y="478"/>
      <point x="167" y="377"/>
      <point x="108" y="281" type="curve" smooth="yes"/>
      <point x="49" y="185"/>
      <point x="18" y="80"/>
      <point x="18" y="-35" type="curve" smooth="yes"/>
      <point x="18" y="-234"/>
      <point x="145" y="-373"/>
    </contour>
    <contour>
      <point x="409" y="920" type="line"/>
      <point x="417" y="920" type="line"/>
      <point x="463" y="952"/>
      <point x="509" y="992"/>
      <point x="509" y="1025" type="curve" smooth="yes"/>
      <point x="509" y="1057"/>
      <point x="478" y="1082"/>
      <point x="423" y="1117" type="curve"/>
      <point x="413" y="1117" type="line"/>
      <point x="396" y="1106"/>
      <point x="335" y="1039"/>
      <point x="317" y="1011" type="curve"/>
      <point x="317" y="1001" type="line"/>
      <point x="328" y="993"/>
      <point x="342" y="983"/>
      <point x="366" y="961" type="curve" smooth="yes"/>
    </contour>
  </outline>
</glyph>
<glyph name="Dhal" format="2">
  <advance width="362"/>
  <unicode hex="0630"/>
  <note>
Dhal
</note>
  <outline>
    <contour>
      <point x="-47" y="-99" type="line"/>
      <point x="72" y="-70"/>
      <point x="168" y="-34"/>
      <point x="202" y="-19" type="curve" smooth="yes"/>
      <point x="252" y="3"/>
      <point x="348" y="139"/>
      <point x="348" y="289" type="curve" smooth="yes"/>
      <point x="348" y="406"/>
      <point x="284" y="488"/>
      <point x="194" y="535" type="curve"/>
      <point x="180" y="535" type="line"/>
      <point x="154" y="499"/>
      <point x="98" y="371"/>
      <point x="80" y="305" type="curve"/>
      <point x="222" y="247"/>
      <point x="267" y="193"/>
      <point x="267" y="169" type="curve" smooth="yes"/>
      <point x="267" y="118"/>
      <point x="151" y="32"/>
      <point x="-55" y="-74" type="curve"/>
    </contour>
    <contour>
      <point x="184" y="684" type="curve"/>
      <point x="192" y="684" type="line"/>
      <point x="238" y="716"/>
      <point x="284" y="756"/>
      <point x="284" y="789" type="curve" smooth="yes"/>
      <point x="284" y="821"/>
      <point x="253" y="846"/>
      <point x="198" y="881" type="curve"/>
      <point x="188" y="881" type="line"/>
      <point x="171" y="870"/>
      <point x="110" y="803"/>
      <point x="92" y="775" type="curve"/>
      <point x="92" y="765" type="line"/>
      <point x="121" y="744"/>
      <point x="128" y="736"/>
    </contour>
  </outline>
</glyph>
<glyph name="Reh" format="2">
  <advance width="489"/>
  <unicode hex="0631"/>
  <note>
Reh
</note>
  <outline>
    <contour>
      <point x="-49" y="-80" type="line"/>
      <point x="-15" y="-71"/>
      <point x="40" y="-54"/>
      <point x="116" y="-28" type="curve" smooth="yes"/>
      <point x="192" y="-2"/>
      <point x="236" y="16"/>
      <point x="250" y="28" type="curve" smooth="yes"/>
      <point x="263" y="39"/>
      <point x="280" y="63"/>
      <point x="303" y="99" type="curve" smooth="yes"/>
      <point x="344" y="163"/>
      <point x="412" y="323"/>
      <point x="446" y="481" type="curve"/>
      <point x="410" y="486" type="line"/>
      <point x="369" y="379"/>
      <point x="355" y="348"/>
      <point x="307" y="268" type="curve" smooth="yes"/>
      <point x="253" y="178"/>
      <point x="32" y="7"/>
      <point x="-57" y="-55" type="curve"/>
    </contour>
  </outline>
</glyph>
<glyph name="Zain" format="2">
  <advance width="489"/>
  <unicode hex="0632"/>
  <note>
Zain
</note>
  <outline>
    <contour>
      <point x="-49" y="-80" type="line"/>
      <point x="-15" y="-71"/>
      <point x="40" y="-54"/>
      <point x="116" y="-28" type="curve" smooth="yes"/>
      <point x="192" y="-2"/>
      <point x="236" y="16"/>
      <point x="250" y="28" type="curve" smooth="yes"/>
      <point x="263" y="39"/>
      <point x="280" y="63"/>
      <point x="303" y="99" type="curve" smooth="yes"/>
      <point x="344" y="163"/>
      <point x="412" y="323"/>
      <point x="446" y="481" type="curve"/>
      <point x="410" y="486" type="line"/>
      <point x="370" y="381"/>
      <point x="351" y="339"/>
      <point x="307" y="268" type="curve" smooth="yes"/>
      <point x="251" y="178"/>
      <point x="32" y="7"/>
      <point x="-57" y="-55" type="curve"/>
    </contour>
    <contour>
      <point x="369" y="604" type="line"/>
      <point x="377" y="604" type="line"/>
      <point x="423" y="636"/>
      <point x="469" y="676"/>
      <point x="469" y="709" type="curve" smooth="yes"/>
      <point x="469" y="741"/>
      <point x="438" y="766"/>
      <point x="383" y="801" type="curve"/>
      <point x="373" y="801" type="line"/>
      <point x="356" y="790"/>
      <point x="295" y="723"/>
      <point x="277" y="695" type="curve"/>
      <point x="277" y="685" type="line"/>
      <point x="288" y="677"/>
      <point x="302" y="667"/>
      <point x="326" y="645" type="curve" smooth="yes"/>
    </contour>
  </outline>
</glyph>
<glyph name="Seen" format="2">
  <advance width="1192"/>
  <unicode hex="0633"/>
  <note>
Seen
</note>
  <outline>
    <contour>
      <point x="280" y="-371" type="curve" smooth="yes"/>
      <point x="383" y="-371"/>
      <point x="470" y="-341"/>
      <point x="542" y="-280" type="curve" smooth="yes"/>
      <point x="614" y="-219"/>
      <point x="668" y="-135"/>
      <point x="703" y="-26" type="curve" smooth="yes"/>
      <point x="738" y="82"/>
      <point x="757" y="185"/>
      <point x="761" y="283" type="curve"/>
      <point x="826" y="285"/>
      <point x="889" y="317"/>
      <point x="935" y="378" type="curve"/>
      <point x="954" y="371"/>
      <point x="975" y="369"/>
      <point x="988" y="369" type="curve" smooth="yes"/>
      <point x="1081" y="369"/>
      <point x="1147" y="457"/>
      <point x="1174" y="635" type="curve"/>
      <point x="1141" y="639" type="line"/>
      <point x="1125" y="569"/>
      <point x="1096" y="536"/>
      <point x="1045" y="536" type="curve" smooth="yes"/>
      <point x="1024" y="536"/>
      <point x="1010" y="541"/>
      <point x="980" y="558" type="curve"/>
      <point x="965" y="555" type="line"/>
      <point x="928" y="500"/>
      <point x="871" y="464"/>
      <point x="804" y="464" type="curve" smooth="yes"/>
      <point x="778" y="464"/>
      <point x="763" y="468"/>
      <point x="737" y="477" type="curve"/>
      <point x="712" y="471" type="line"/>
      <point x="707" y="303" type="line" smooth="yes"/>
      <point x="705" y="225"/>
      <point x="691" y="152"/>
      <point x="667" y="85" type="curve" smooth="yes"/>
      <point x="628" y="-23"/>
      <point x="528" y="-136"/>
      <point x="338" y="-136" type="curve" smooth="yes"/>
      <point x="195" y="-136"/>
      <point x="102" y="-78"/>
      <point x="102" y="75" type="curve" smooth="yes"/>
      <point x="102" y="147"/>
      <point x="117" y="217"/>
      <point x="156" y="310" type="curve"/>
      <point x="122" y="321" type="line"/>
      <point x="84" y="248"/>
      <point x="57" y="178"/>
      <point x="42" y="110" type="curve" smooth="yes"/>
      <point x="27" y="42"/>
      <point x="18" y="-22"/>
      <point x="18" y="-83" type="curve" smooth="yes"/>
      <point x="18" y="-268"/>
      <point x="120" y="-371"/>
    </contour>
  </outline>
</glyph>
<glyph name="Sheen" format="2">
  <advance width="1192"/>
  <unicode hex="0634"/>
  <note>
Sheen
</note>
  <outline>
    <contour>
      <point x="280" y="-371" type="curve" smooth="yes"/>
      <point x="383" y="-371"/>
      <point x="470" y="-341"/>
      <point x="542" y="-280" type="curve" smooth="yes"/>
      <point x="614" y="-219"/>
      <point x="668" y="-135"/>
      <point x="703" y="-26" type="curve" smooth="yes"/>
      <point x="738" y="82"/>
      <point x="757" y="185"/>
      <point x="761" y="283" type="curve"/>
      <point x="826" y="285"/>
      <point x="889" y="317"/>
      <point x="935" y="378" type="curve"/>
      <point x="954" y="371"/>
      <point x="975" y="369"/>
      <point x="988" y="369" type="curve" smooth="yes"/>
      <point x="1081" y="369"/>
      <point x="1147" y="457"/>
      <point x="1174" y="635" type="curve"/>
      <point x="1141" y="639" type="line"/>
      <point x="1125" y="569"/>
      <point x="1096" y="536"/>
      <point x="1045" y="536" type="curve" smooth="yes"/>
      <point x="1024" y="536"/>
      <point x="1010" y="541"/>
      <point x="980" y="558" type="curve"/>
      <point x="965" y="555" type="line"/>
      <point x="928" y="500"/>
      <point x="871" y="464"/>
      <point x="804" y="464" type="curve" smooth="yes"/>
      <point x="778" y="464"/>
      <point x="763" y="468"/>
      <point x="737" y="477" type="curve"/>
      <point x="712" y="471" type="line"/>
      <point x="707" y="303" type="line" smooth="yes"/>
      <point x="705" y="225"/>
      <point x="691" y="152"/>
      <point x="667" y="85" type="curve" smooth="yes"/>
      <point x="628" y="-23"/>
      <point x="528" y="-136"/>
      <point x="338" y="-136" type="curve" smooth="yes"/>
      <point x="195" y="-136"/>
      <point x="102" y="-78"/>
      <point x="102" y="75" type="curve" smooth="yes"/>
      <point x="102" y="147"/>
      <point x="117" y="217"/>
      <point x="156" y="310" type="curve"/>
      <point x="122" y="321" type="line"/>
      <point x="84" y="248"/>
      <point x="57" y="178"/>
      <point x="42" y="110" type="curve" smooth="yes"/>
      <point x="27" y="42"/>
      <point x="18" y="-22"/>
      <point x="18" y="-83" type="curve" smooth="yes"/>
      <point x="18" y="-268"/>
      <point x="120" y="-371"/>
    </contour>
    <contour>
      <point x="773" y="745" type="curve"/>
      <point x="781" y="745" type="line"/>
      <point x="818" y="770"/>
      <point x="846" y="795"/>
      <point x="861" y="818" type="curve"/>
      <point x="877" y="805"/>
      <point x="893" y="790"/>
      <point x="921" y="763" type="curve"/>
      <point x="929" y="763" type="line"/>
      <point x="975" y="795"/>
      <point x="1021" y="835"/>
      <point x="1021" y="868" type="curve" smooth="yes"/>
      <point x="1021" y="898"/>
      <point x="997" y="922"/>
      <point x="937" y="960" type="curve"/>
      <point x="927" y="960" type="line"/>
      <point x="915" y="952"/>
      <point x="883" y="921"/>
      <point x="855" y="888" type="curve"/>
      <point x="842" y="904"/>
      <point x="820" y="922"/>
      <point x="789" y="942" type="curve"/>
      <point x="779" y="942" type="line"/>
      <point x="766" y="934"/>
      <point x="702" y="867"/>
      <point x="681" y="836" type="curve"/>
      <point x="681" y="826" type="line"/>
      <point x="710" y="805"/>
      <point x="717" y="797"/>
    </contour>
    <contour>
      <point x="845" y="928" type="curve"/>
      <point x="854" y="928" type="line"/>
      <point x="910" y="972"/>
      <point x="932" y="1000"/>
      <point x="932" y="1020" type="curve" smooth="yes"/>
      <point x="932" y="1038"/>
      <point x="915" y="1057"/>
      <point x="858" y="1095" type="curve"/>
      <point x="850" y="1095" type="line"/>
      <point x="832" y="1083"/>
      <point x="785" y="1033"/>
      <point x="767" y="1007" type="curve"/>
      <point x="767" y="999" type="line"/>
      <point x="813" y="959"/>
      <point x="813" y="960"/>
    </contour>
  </outline>
</glyph>
<glyph name="Sad" format="2">
  <advance width="1303"/>
  <unicode hex="0635"/>
  <note>
Sad
</note>
  <outline>
    <contour>
      <point x="280" y="-371" type="curve" smooth="yes"/>
      <point x="515" y="-371"/>
      <point x="722" y="-206"/>
      <point x="760" y="274" type="curve"/>
      <point x="793" y="266"/>
      <point x="831" y="263"/>
      <point x="862" y="263" type="curve" smooth="yes"/>
      <point x="989" y="263"/>
      <point x="1091" y="305"/>
      <point x="1166" y="389" type="curve" smooth="yes"/>
      <point x="1241" y="472"/>
      <point x="1279" y="555"/>
      <point x="1279" y="636" type="curve" smooth="yes"/>
      <point x="1279" y="703"/>
      <point x="1231" y="735"/>
      <point x="1162" y="735" type="curve" smooth="yes"/>
      <point x="1070" y="735"/>
      <point x="995" y="683"/>
      <point x="906" y="575" type="curve" smooth="yes"/>
      <point x="861" y="520"/>
      <point x="891" y="558"/>
      <point x="816" y="449" type="curve"/>
      <point x="784" y="454"/>
      <point x="763" y="459"/>
      <point x="734" y="470" type="curve"/>
      <point x="712" y="464" type="line"/>
      <point x="712" y="254"/>
      <point x="703" y="179"/>
      <point x="665" y="77" type="curve" smooth="yes"/>
      <point x="626" y="-27"/>
      <point x="525" y="-136"/>
      <point x="338" y="-136" type="curve" smooth="yes"/>
      <point x="195" y="-136"/>
      <point x="102" y="-78"/>
      <point x="102" y="75" type="curve" smooth="yes"/>
      <point x="102" y="138"/>
      <point x="116" y="215"/>
      <point x="156" y="310" type="curve"/>
      <point x="122" y="321" type="line"/>
      <point x="48" y="180"/>
      <point x="18" y="42"/>
      <point x="18" y="-83" type="curve" smooth="yes"/>
      <point x="18" y="-268"/>
      <point x="120" y="-371"/>
    </contour>
    <contour>
      <point x="899" y="443" type="line"/>
      <point x="891" y="444"/>
      <point x="882" y="444"/>
      <point x="873" y="444" type="curve"/>
      <point x="911" y="491"/>
      <point x="951" y="524"/>
      <point x="992" y="543" type="curve" smooth="yes"/>
      <point x="1033" y="562"/>
      <point x="1070" y="570"/>
      <point x="1104" y="570" type="curve" smooth="yes"/>
      <point x="1134" y="570"/>
      <point x="1156" y="566"/>
      <point x="1171" y="557" type="curve" smooth="yes"/>
      <point x="1185" y="548"/>
      <point x="1192" y="537"/>
      <point x="1192" y="526" type="curve" smooth="yes"/>
      <point x="1192" y="506"/>
      <point x="1163" y="487"/>
      <point x="1106" y="470" type="curve" smooth="yes"/>
      <point x="1049" y="453"/>
      <point x="989" y="443"/>
      <point x="927" y="443" type="curve" smooth="yes"/>
    </contour>
  </outline>
</glyph>
<glyph name="Dad" format="2">
  <advance width="1303"/>
  <unicode hex="0636"/>
  <note>
Dad
</note>
  <outline>
    <contour>
      <point x="280" y="-371" type="curve" smooth="yes"/>
      <point x="515" y="-371"/>
      <point x="722" y="-206"/>
      <point x="760" y="274" type="curve"/>
      <point x="793" y="266"/>
      <point x="831" y="263"/>
      <point x="862" y="263" type="curve" smooth="yes"/>
      <point x="989" y="263"/>
      <point x="1091" y="305"/>
      <point x="1166" y="389" type="curve" smooth="yes"/>
      <point x="1241" y="472"/>
      <point x="1279" y="555"/>
      <point x="1279" y="636" type="curve" smooth="yes"/>
      <point x="1279" y="703"/>
      <point x="1231" y="735"/>
      <point x="1162" y="735" type="curve" smooth="yes"/>
      <point x="1070" y="735"/>
      <point x="996" y="683"/>
      <point x="906" y="575" type="curve" smooth="yes"/>
      <point x="860" y="520"/>
      <point x="891" y="558"/>
      <point x="816" y="449" type="curve"/>
      <point x="784" y="454"/>
      <point x="763" y="459"/>
      <point x="734" y="470" type="curve"/>
      <point x="712" y="464" type="line"/>
      <point x="712" y="254"/>
      <point x="703" y="179"/>
      <point x="665" y="77" type="curve" smooth="yes"/>
      <point x="626" y="-27"/>
      <point x="525" y="-136"/>
      <point x="338" y="-136" type="curve" smooth="yes"/>
      <point x="195" y="-136"/>
      <point x="102" y="-78"/>
      <point x="102" y="75" type="curve" smooth="yes"/>
      <point x="102" y="138"/>
      <point x="116" y="215"/>
      <point x="156" y="310" type="curve"/>
      <point x="122" y="321" type="line"/>
      <point x="48" y="180"/>
      <point x="18" y="42"/>
      <point x="18" y="-83" type="curve" smooth="yes"/>
      <point x="18" y="-268"/>
      <point x="120" y="-371"/>
    </contour>
    <contour>
      <point x="899" y="443" type="line"/>
      <point x="891" y="444"/>
      <point x="882" y="444"/>
      <point x="873" y="444" type="curve"/>
      <point x="911" y="491"/>
      <point x="951" y="524"/>
      <point x="992" y="543" type="curve" smooth="yes"/>
      <point x="1033" y="562"/>
      <point x="1070" y="570"/>
      <point x="1104" y="570" type="curve" smooth="yes"/>
      <point x="1134" y="570"/>
      <point x="1156" y="566"/>
      <point x="1171" y="557" type="curve" smooth="yes"/>
      <point x="1185" y="548"/>
      <point x="1192" y="537"/>
      <point x="1192" y="526" type="curve" smooth="yes"/>
      <point x="1192" y="506"/>
      <point x="1163" y="487"/>
      <point x="1106" y="470" type="curve" smooth="yes"/>
      <point x="1049" y="453"/>
      <point x="989" y="443"/>
      <point x="927" y="443" type="curve" smooth="yes"/>
    </contour>
    <contour>
      <point x="948" y="769" type="curve"/>
      <point x="956" y="769" type="line"/>
      <point x="1002" y="801"/>
      <point x="1048" y="841"/>
      <point x="1048" y="874" type="curve" smooth="yes"/>
      <point x="1048" y="906"/>
      <point x="1017" y="931"/>
      <point x="962" y="966" type="curve"/>
      <point x="952" y="966" type="line"/>
      <point x="935" y="955"/>
      <point x="874" y="888"/>
      <point x="856" y="860" type="curve"/>
      <point x="856" y="850" type="line"/>
      <point x="883" y="830"/>
      <point x="895" y="819"/>
    </contour>
  </outline>
</glyph>
<glyph name="Zah" format="2">
  <advance width="745"/>
  <unicode hex="0638"/>
  <note>
Zah
</note>
  <outline>
    <contour>
      <point x="293" y="-19" type="curve" smooth="yes"/>
      <point x="372" y="-19"/>
      <point x="426" y="-13"/>
      <point x="456" y="0" type="curve" smooth="yes"/>
      <point x="485" y="12"/>
      <point x="518" y="35"/>
      <point x="553" y="69" type="curve" smooth="yes"/>
      <point x="618" y="133"/>
      <point x="695" y="278"/>
      <point x="695" y="367" type="curve" smooth="yes"/>
      <point x="695" y="430"/>
      <point x="656" y="460"/>
      <point x="596" y="460" type="curve" smooth="yes"/>
      <point x="488" y="460"/>
      <point x="394" y="364"/>
      <point x="334" y="273" type="curve"/>
      <point x="359" y="341"/>
      <point x="370" y="387"/>
      <point x="376" y="475" type="curve" smooth="yes"/>
      <point x="384" y="597" type="line" smooth="yes"/>
      <point x="388" y="665"/>
      <point x="399" y="744"/>
      <point x="410" y="782" type="curve"/>
      <point x="385" y="790" type="line"/>
      <point x="356" y="731"/>
      <point x="335" y="686"/>
      <point x="325" y="644" type="curve" smooth="yes"/>
      <point x="310" y="582"/>
      <point x="305" y="548"/>
      <point x="302" y="491" type="curve" smooth="yes"/>
      <point x="297" y="396" type="line" smooth="yes"/>
      <point x="291" y="284"/>
      <point x="286" y="241"/>
      <point x="280" y="204" type="curve"/>
      <point x="194" y="72"/>
      <point x="198" y="79"/>
      <point x="187" y="59" type="curve"/>
      <point x="15" y="20" type="line"/>
      <point x="9" y="-6" type="line"/>
      <point x="69" y="-14"/>
      <point x="215" y="-19"/>
    </contour>
    <contour>
      <point x="260" y="78" type="curve"/>
      <point x="306" y="143" type="line" smooth="yes"/>
      <point x="379" y="246"/>
      <point x="446" y="295"/>
      <point x="531" y="295" type="curve" smooth="yes"/>
      <point x="567" y="295"/>
      <point x="608" y="283"/>
      <point x="608" y="254" type="curve" smooth="yes"/>
      <point x="608" y="222"/>
      <point x="573" y="191"/>
      <point x="504" y="160" type="curve" smooth="yes"/>
      <point x="434" y="129"/>
      <point x="353" y="102"/>
    </contour>
    <contour>
      <point x="508" y="527" type="curve"/>
      <point x="516" y="527" type="line"/>
      <point x="562" y="559"/>
      <point x="608" y="599"/>
      <point x="608" y="632" type="curve" smooth="yes"/>
      <point x="608" y="664"/>
      <point x="577" y="689"/>
      <point x="522" y="724" type="curve"/>
      <point x="512" y="724" type="line"/>
      <point x="495" y="713"/>
      <point x="434" y="646"/>
      <point x="416" y="618" type="curve"/>
      <point x="416" y="608" type="line"/>
      <point x="445" y="587"/>
      <point x="452" y="579"/>
    </contour>
  </outline>
</glyph>
<glyph name="Ghain" format="2">
  <advance width="917"/>
  <unicode hex="063A"/>
  <note>
Ghain
</note>
  <outline>
    <contour>
      <point x="358" y="-373" type="curve" smooth="yes"/>
      <point x="637" y="-373"/>
      <point x="816" y="-105"/>
      <point x="906" y="128" type="curve"/>
      <point x="873" y="139" type="line"/>
      <point x="760" y="-80"/>
      <point x="565" y="-139"/>
      <point x="416" y="-139" type="curve" smooth="yes"/>
      <point x="201" y="-139"/>
      <point x="138" y="-24"/>
      <point x="138" y="79" type="curve" smooth="yes"/>
      <point x="138" y="167"/>
      <point x="169" y="239"/>
      <point x="256" y="321" type="curve" smooth="yes"/>
      <point x="289" y="352"/>
      <point x="336" y="387"/>
      <point x="395" y="425" type="curve" smooth="yes"/>
      <point x="454" y="463"/>
      <point x="497" y="488"/>
      <point x="525" y="503" type="curve" smooth="yes"/>
      <point x="552" y="518"/>
      <point x="576" y="539"/>
      <point x="595" y="566" type="curve" smooth="yes"/>
      <point x="614" y="593"/>
      <point x="627" y="614"/>
      <point x="633" y="629" type="curve"/>
      <point x="616" y="641" type="line"/>
      <point x="570" y="608"/>
      <point x="521" y="577"/>
      <point x="474" y="552" type="curve" smooth="yes"/>
      <point x="447" y="538" type="line" smooth="yes"/>
      <point x="433" y="531"/>
      <point x="411" y="530"/>
      <point x="393" y="530" type="curve" smooth="yes"/>
      <point x="306" y="530"/>
      <point x="255" y="570"/>
      <point x="255" y="628" type="curve" smooth="yes"/>
      <point x="255" y="670"/>
      <point x="298" y="720"/>
      <point x="380" y="720" type="curve" smooth="yes"/>
      <point x="407" y="720"/>
      <point x="442" y="710"/>
      <point x="466" y="685" type="curve"/>
      <point x="478" y="684" type="line"/>
      <point x="502" y="698"/>
      <point x="515" y="727"/>
      <point x="515" y="754" type="curve" smooth="yes"/>
      <point x="515" y="802"/>
      <point x="475" y="829"/>
      <point x="427" y="829" type="curve" smooth="yes"/>
      <point x="382" y="829"/>
      <point x="338" y="810"/>
      <point x="295" y="772" type="curve" smooth="yes"/>
      <point x="251" y="734"/>
      <point x="212" y="693"/>
      <point x="178" y="648" type="curve" smooth="yes"/>
      <point x="144" y="603"/>
      <point x="127" y="557"/>
      <point x="127" y="508" type="curve" smooth="yes"/>
      <point x="127" y="445"/>
      <point x="154" y="401"/>
      <point x="231" y="373" type="curve"/>
      <point x="86" y="250"/>
      <point x="18" y="123"/>
      <point x="18" y="-52" type="curve" smooth="yes"/>
      <point x="18" y="-246"/>
      <point x="146" y="-373"/>
    </contour>
    <contour>
      <point x="318" y="906" type="curve"/>
      <point x="326" y="906" type="line"/>
      <point x="372" y="938"/>
      <point x="418" y="978"/>
      <point x="418" y="1011" type="curve" smooth="yes"/>
      <point x="418" y="1043"/>
      <point x="387" y="1068"/>
      <point x="332" y="1103" type="curve"/>
      <point x="322" y="1103" type="line"/>
      <point x="305" y="1092"/>
      <point x="244" y="1025"/>
      <point x="226" y="997" type="curve"/>
      <point x="226" y="987" type="line"/>
      <point x="253" y="967"/>
      <point x="265" y="956"/>
    </contour>
  </outline>
</glyph>
<glyph name="uni063B" format="2">
  <advance width="1226"/>
  <unicode hex="063B"/>
  <note>
uni063B
</note>
  <outline>
    <contour>
      <point x="358" y="-27" type="curve" smooth="yes"/>
      <point x="451" y="-27"/>
      <point x="552" y="-12"/>
      <point x="661" y="18" type="curve" smooth="yes"/>
      <point x="866" y="74"/>
      <point x="970" y="204"/>
      <point x="992" y="513" type="curve" smooth="yes"/>
      <point x="998" y="596" type="line" smooth="yes"/>
      <point x="1000" y="624"/>
      <point x="1007" y="727"/>
      <point x="1009" y="769" type="curve" smooth="yes"/>
      <point x="1012" y="834"/>
      <point x="1026" y="855"/>
      <point x="1252" y="1048" type="curve" smooth="yes"/>
      <point x="1348" y="1130"/>
      <point x="1425" y="1194"/>
      <point x="1477" y="1251" type="curve" smooth="yes"/>
      <point x="1524" y="1303"/>
      <point x="1563" y="1429"/>
      <point x="1575" y="1488" type="curve"/>
      <point x="1558" y="1494" type="line"/>
      <point x="1506" y="1442" type="line" smooth="yes"/>
      <point x="1453" y="1389"/>
      <point x="1427" y="1368"/>
      <point x="1307" y="1263" type="curve" smooth="yes"/>
      <point x="1164" y="1138"/>
      <point x="1077" y="1051"/>
      <point x="1048" y="1004" type="curve" smooth="yes"/>
      <point x="1019" y="957"/>
      <point x="993" y="905"/>
      <point x="970" y="849" type="curve" smooth="yes"/>
      <point x="947" y="793"/>
      <point x="933" y="719"/>
      <point x="930" y="627" type="curve" smooth="yes"/>
      <point x="923" y="399" type="line" smooth="yes"/>
      <point x="922" y="358"/>
      <point x="908" y="329"/>
      <point x="883" y="310" type="curve" smooth="yes"/>
      <point x="857" y="291"/>
      <point x="826" y="274"/>
      <point x="789" y="258" type="curve" smooth="yes"/>
      <point x="730" y="233"/>
      <point x="585" y="195"/>
      <point x="375" y="195" type="curve" smooth="yes"/>
      <point x="219" y="195"/>
      <point x="110" y="224"/>
      <point x="110" y="334" type="curve" smooth="yes"/>
      <point x="110" y="347"/>
      <point x="114" y="382"/>
      <point x="114" y="383" type="curve"/>
      <point x="79" y="388" type="line"/>
      <point x="60" y="317"/>
      <point x="48" y="254"/>
      <point x="48" y="201" type="curve" smooth="yes"/>
      <point x="48" y="13"/>
      <point x="188" y="-27"/>
    </contour>
    <contour>
      <point x="911" y="948" type="curve"/>
      <point x="917" y="952" type="line"/>
      <point x="941" y="1003"/>
      <point x="949" y="1025"/>
      <point x="949" y="1041" type="curve" smooth="yes"/>
      <point x="949" y="1043" type="line"/>
      <point x="973" y="1037"/>
      <point x="996" y="1031"/>
      <point x="1020" y="1023" type="curve"/>
      <point x="1027" y="1027" type="line"/>
      <point x="1046" y="1065"/>
      <point x="1055" y="1094"/>
      <point x="1055" y="1114" type="curve" smooth="yes"/>
      <point x="1055" y="1151"/>
      <point x="1017" y="1162"/>
      <point x="957" y="1168" type="curve"/>
      <point x="950" y="1164" type="line"/>
      <point x="942" y="1151"/>
      <point x="930" y="1107"/>
      <point x="924" y="1078" type="curve"/>
      <point x="909" y="1085"/>
      <point x="886" y="1090"/>
      <point x="849" y="1094" type="curve"/>
      <point x="842" y="1089" type="line"/>
      <point x="834" y="1076"/>
      <point x="814" y="1007"/>
      <point x="812" y="980" type="curve"/>
      <point x="816" y="973" type="line"/>
      <point x="848" y="967"/>
      <point x="859" y="965"/>
    </contour>
  </outline>
</glyph>
<glyph name="uni063C" format="2">
  <advance width="1226"/>
  <unicode hex="063C"/>
  <note>
uni063C
</note>
  <outline>
    <contour>
      <point x="358" y="-27" type="curve" smooth="yes"/>
      <point x="451" y="-27"/>
      <point x="552" y="-12"/>
      <point x="661" y="18" type="curve" smooth="yes"/>
      <point x="866" y="74"/>
      <point x="970" y="204"/>
      <point x="992" y="513" type="curve" smooth="yes"/>
      <point x="998" y="596" type="line" smooth="yes"/>
      <point x="1000" y="624"/>
      <point x="1007" y="721"/>
      <point x="1009" y="763" type="curve" smooth="yes"/>
      <point x="1012" y="828"/>
      <point x="1025" y="856"/>
      <point x="1252" y="1048" type="curve" smooth="yes"/>
      <point x="1324" y="1109"/>
      <point x="1374" y="1151"/>
      <point x="1402" y="1177" type="curve" smooth="yes"/>
      <point x="1429" y="1202"/>
      <point x="1454" y="1226"/>
      <point x="1477" y="1251" type="curve" smooth="yes"/>
      <point x="1524" y="1303"/>
      <point x="1563" y="1429"/>
      <point x="1575" y="1488" type="curve"/>
      <point x="1558" y="1494" type="line"/>
      <point x="1506" y="1442" type="line" smooth="yes"/>
      <point x="1476" y="1412"/>
      <point x="1449" y="1387"/>
      <point x="1425" y="1366" type="curve" smooth="yes"/>
      <point x="1307" y="1263" type="line" smooth="yes"/>
      <point x="1164" y="1138"/>
      <point x="1077" y="1051"/>
      <point x="1048" y="1004" type="curve" smooth="yes"/>
      <point x="1019" y="957"/>
      <point x="993" y="905"/>
      <point x="970" y="849" type="curve" smooth="yes"/>
      <point x="947" y="793"/>
      <point x="933" y="719"/>
      <point x="930" y="627" type="curve" smooth="yes"/>
      <point x="923" y="399" type="line" smooth="yes"/>
      <point x="922" y="358"/>
      <point x="908" y="329"/>
      <point x="883" y="310" type="curve" smooth="yes"/>
      <point x="857" y="291"/>
      <point x="826" y="274"/>
      <point x="789" y="258" type="curve" smooth="yes"/>
      <point x="730" y="233"/>
      <point x="585" y="195"/>
      <point x="375" y="195" type="curve" smooth="yes"/>
      <point x="219" y="195"/>
      <point x="110" y="225"/>
      <point x="110" y="334" type="curve" smooth="yes"/>
      <point x="110" y="349"/>
      <point x="114" y="382"/>
      <point x="114" y="383" type="curve"/>
      <point x="79" y="388" type="line"/>
      <point x="60" y="317"/>
      <point x="48" y="254"/>
      <point x="48" y="201" type="curve" smooth="yes"/>
      <point x="48" y="13"/>
      <point x="188" y="-27"/>
    </contour>
    <contour>
      <point x="444" y="-438" type="curve"/>
      <point x="453" y="-438" type="line"/>
      <point x="505" y="-399"/>
      <point x="531" y="-375"/>
      <point x="531" y="-351" type="curve" smooth="yes"/>
      <point x="531" y="-324"/>
      <point x="492" y="-293"/>
      <point x="460" y="-271" type="curve"/>
      <point x="452" y="-271" type="line"/>
      <point x="430" y="-286"/>
      <point x="387" y="-328"/>
      <point x="366" y="-359" type="curve"/>
      <point x="366" y="-367" type="line"/>
      <point x="424" y="-418"/>
      <point x="406" y="-400"/>
    </contour>
    <contour>
      <point x="369" y="-302" type="curve"/>
      <point x="377" y="-302" type="line"/>
      <point x="414" y="-275"/>
      <point x="441" y="-249"/>
      <point x="455" y="-228" type="curve"/>
      <point x="502" y="-269"/>
      <point x="509" y="-275"/>
      <point x="517" y="-284" type="curve"/>
      <point x="525" y="-284" type="line"/>
      <point x="571" y="-252"/>
      <point x="617" y="-212"/>
      <point x="617" y="-179" type="curve" smooth="yes"/>
      <point x="617" y="-147"/>
      <point x="586" y="-122"/>
      <point x="531" y="-87" type="curve"/>
      <point x="521" y="-87" type="line"/>
      <point x="510" y="-94"/>
      <point x="481" y="-124"/>
      <point x="451" y="-158" type="curve"/>
      <point x="438" y="-144"/>
      <point x="417" y="-127"/>
      <point x="383" y="-105" type="curve"/>
      <point x="373" y="-105" type="line"/>
      <point x="356" y="-116"/>
      <point x="295" y="-183"/>
      <point x="277" y="-211" type="curve"/>
      <point x="277" y="-221" type="line"/>
      <point x="304" y="-241"/>
      <point x="316" y="-252"/>
    </contour>
  </outline>
</glyph>
<glyph name="uni063D" format="2">
  <advance width="907"/>
  <unicode hex="063D"/>
  <note>
uni063D
</note>
  <outline>
    <contour>
      <point x="271" y="-371" type="curve" smooth="yes"/>
      <point x="353" y="-371"/>
      <point x="428" y="-344"/>
      <point x="495" y="-290" type="curve" smooth="yes"/>
      <point x="562" y="-236"/>
      <point x="618" y="-160"/>
      <point x="662" y="-61" type="curve" smooth="yes"/>
      <point x="706" y="38"/>
      <point x="727" y="117"/>
      <point x="727" y="177" type="curve" smooth="yes"/>
      <point x="727" y="220"/>
      <point x="719" y="249"/>
      <point x="703" y="262" type="curve" smooth="yes"/>
      <point x="687" y="275"/>
      <point x="662" y="286"/>
      <point x="629" y="295" type="curve" smooth="yes"/>
      <point x="596" y="304"/>
      <point x="579" y="322"/>
      <point x="579" y="350" type="curve" smooth="yes"/>
      <point x="579" y="410"/>
      <point x="691" y="488"/>
      <point x="759" y="488" type="curve" smooth="yes"/>
      <point x="771" y="488"/>
      <point x="786" y="484"/>
      <point x="790" y="482" type="curve"/>
      <point x="803" y="484" type="line"/>
      <point x="869" y="640" type="line" smooth="yes"/>
      <point x="874" y="651"/>
      <point x="875" y="658"/>
      <point x="875" y="664" type="curve" smooth="yes"/>
      <point x="875" y="682"/>
      <point x="858" y="692"/>
      <point x="826" y="692" type="curve" smooth="yes"/>
      <point x="685" y="692"/>
      <point x="479" y="360"/>
      <point x="479" y="195" type="curve" smooth="yes"/>
      <point x="479" y="133"/>
      <point x="506" y="95"/>
      <point x="559" y="81" type="curve" smooth="yes"/>
      <point x="612" y="67"/>
      <point x="639" y="49"/>
      <point x="639" y="30" type="curve" smooth="yes"/>
      <point x="639" y="6"/>
      <point x="608" y="-27"/>
      <point x="547" y="-70" type="curve" smooth="yes"/>
      <point x="486" y="-113"/>
      <point x="414" y="-135"/>
      <point x="332" y="-135" type="curve" smooth="yes"/>
      <point x="229" y="-135"/>
      <point x="114" y="-86"/>
      <point x="114" y="84" type="curve" smooth="yes"/>
      <point x="114" y="201"/>
      <point x="151" y="286"/>
      <point x="208" y="381" type="curve"/>
      <point x="177" y="397" type="line"/>
      <point x="75" y="251"/>
      <point x="18" y="67"/>
      <point x="18" y="-81" type="curve" smooth="yes"/>
      <point x="18" y="-242"/>
      <point x="104" y="-371"/>
    </contour>
    <contour>
      <point x="153" y="526" type="line"/>
      <point x="165" y="526" type="line"/>
      <point x="185" y="555" type="line"/>
      <point x="202" y="582" type="line" smooth="yes"/>
      <point x="227" y="621"/>
      <point x="238" y="641"/>
      <point x="255" y="672" type="curve"/>
      <point x="258" y="672" type="line"/>
      <point x="303" y="590" type="line" smooth="yes"/>
      <point x="309" y="579"/>
      <point x="317" y="567"/>
      <point x="324" y="556" type="curve" smooth="yes"/>
      <point x="341" y="528" type="line"/>
      <point x="352" y="529" type="line"/>
      <point x="365" y="544"/>
      <point x="371" y="557"/>
      <point x="374" y="568" type="curve"/>
      <point x="361" y="588"/>
      <point x="332" y="631"/>
      <point x="318" y="653" type="curve" smooth="yes"/>
      <point x="271" y="728" type="line"/>
      <point x="255" y="727" type="line"/>
      <point x="236" y="698"/>
      <point x="218" y="669"/>
      <point x="198" y="640" type="curve" smooth="yes"/>
      <point x="165" y="592" type="line" smooth="yes"/>
      <point x="154" y="577"/>
      <point x="146" y="565"/>
      <point x="139" y="558" type="curve"/>
    </contour>
  </outline>
</glyph>
<glyph name="uni063E" format="2">
  <advance width="907"/>
  <unicode hex="063E"/>
  <note>
uni063E
</note>
  <outline>
    <contour>
      <point x="272" y="-371" type="curve" smooth="yes"/>
      <point x="354" y="-371"/>
      <point x="429" y="-344"/>
      <point x="496" y="-290" type="curve" smooth="yes"/>
      <point x="563" y="-236"/>
      <point x="619" y="-160"/>
      <point x="663" y="-61" type="curve" smooth="yes"/>
      <point x="707" y="38"/>
      <point x="728" y="117"/>
      <point x="728" y="177" type="curve" smooth="yes"/>
      <point x="728" y="220"/>
      <point x="720" y="249"/>
      <point x="704" y="262" type="curve" smooth="yes"/>
      <point x="688" y="275"/>
      <point x="663" y="286"/>
      <point x="630" y="295" type="curve" smooth="yes"/>
      <point x="597" y="304"/>
      <point x="580" y="322"/>
      <point x="580" y="350" type="curve" smooth="yes"/>
      <point x="580" y="410"/>
      <point x="692" y="488"/>
      <point x="760" y="488" type="curve" smooth="yes"/>
      <point x="772" y="488"/>
      <point x="787" y="484"/>
      <point x="791" y="482" type="curve"/>
      <point x="804" y="484" type="line"/>
      <point x="870" y="640" type="line" smooth="yes"/>
      <point x="875" y="651"/>
      <point x="876" y="658"/>
      <point x="876" y="664" type="curve" smooth="yes"/>
      <point x="876" y="682"/>
      <point x="859" y="692"/>
      <point x="827" y="692" type="curve" smooth="yes"/>
      <point x="686" y="692"/>
      <point x="480" y="360"/>
      <point x="480" y="195" type="curve" smooth="yes"/>
      <point x="480" y="133"/>
      <point x="507" y="95"/>
      <point x="560" y="81" type="curve" smooth="yes"/>
      <point x="613" y="67"/>
      <point x="640" y="49"/>
      <point x="640" y="30" type="curve" smooth="yes"/>
      <point x="640" y="6"/>
      <point x="609" y="-27"/>
      <point x="548" y="-70" type="curve" smooth="yes"/>
      <point x="487" y="-113"/>
      <point x="415" y="-135"/>
      <point x="333" y="-135" type="curve" smooth="yes"/>
      <point x="230" y="-135"/>
      <point x="115" y="-86"/>
      <point x="115" y="84" type="curve" smooth="yes"/>
      <point x="115" y="201"/>
      <point x="152" y="286"/>
      <point x="209" y="381" type="curve"/>
      <point x="178" y="397" type="line"/>
      <point x="76" y="251"/>
      <point x="19" y="67"/>
      <point x="19" y="-81" type="curve" smooth="yes"/>
      <point x="19" y="-242"/>
      <point x="105" y="-371"/>
    </contour>
    <contour>
      <point x="186" y="520" type="curve"/>
      <point x="194" y="520" type="line"/>
      <point x="231" y="545"/>
      <point x="259" y="570"/>
      <point x="274" y="593" type="curve"/>
      <point x="290" y="580"/>
      <point x="306" y="565"/>
      <point x="334" y="538" type="curve"/>
      <point x="342" y="538" type="line"/>
      <point x="388" y="570"/>
      <point x="434" y="610"/>
      <point x="434" y="643" type="curve" smooth="yes"/>
      <point x="434" y="675"/>
      <point x="403" y="700"/>
      <point x="348" y="735" type="curve"/>
      <point x="338" y="735" type="line"/>
      <point x="326" y="727"/>
      <point x="296" y="696"/>
      <point x="268" y="663" type="curve"/>
      <point x="255" y="678"/>
      <point x="234" y="695"/>
      <point x="200" y="717" type="curve"/>
      <point x="190" y="717" type="line"/>
      <point x="173" y="706"/>
      <point x="112" y="639"/>
      <point x="94" y="611" type="curve"/>
      <point x="94" y="601" type="line"/>
      <point x="121" y="581"/>
      <point x="135" y="570"/>
    </contour>
  </outline>
</glyph>
<glyph name="uni063F" format="2">
  <advance width="907"/>
  <unicode hex="063F"/>
  <note>
uni063F
</note>
  <outline>
    <contour>
      <point x="271" y="-371" type="curve" smooth="yes"/>
      <point x="353" y="-371"/>
      <point x="428" y="-344"/>
      <point x="495" y="-290" type="curve" smooth="yes"/>
      <point x="562" y="-236"/>
      <point x="618" y="-160"/>
      <point x="662" y="-61" type="curve" smooth="yes"/>
      <point x="706" y="38"/>
      <point x="727" y="117"/>
      <point x="727" y="177" type="curve" smooth="yes"/>
      <point x="727" y="220"/>
      <point x="719" y="249"/>
      <point x="703" y="262" type="curve" smooth="yes"/>
      <point x="687" y="275"/>
      <point x="662" y="286"/>
      <point x="629" y="295" type="curve" smooth="yes"/>
      <point x="596" y="304"/>
      <point x="579" y="322"/>
      <point x="579" y="350" type="curve" smooth="yes"/>
      <point x="579" y="410"/>
      <point x="691" y="488"/>
      <point x="759" y="488" type="curve" smooth="yes"/>
      <point x="771" y="488"/>
      <point x="786" y="484"/>
      <point x="790" y="482" type="curve"/>
      <point x="803" y="484" type="line"/>
      <point x="869" y="640" type="line" smooth="yes"/>
      <point x="874" y="651"/>
      <point x="875" y="658"/>
      <point x="875" y="664" type="curve" smooth="yes"/>
      <point x="875" y="682"/>
      <point x="858" y="692"/>
      <point x="826" y="692" type="curve" smooth="yes"/>
      <point x="685" y="692"/>
      <point x="479" y="360"/>
      <point x="479" y="195" type="curve" smooth="yes"/>
      <point x="479" y="133"/>
      <point x="506" y="95"/>
      <point x="559" y="81" type="curve" smooth="yes"/>
      <point x="612" y="67"/>
      <point x="639" y="49"/>
      <point x="639" y="30" type="curve" smooth="yes"/>
      <point x="639" y="6"/>
      <point x="608" y="-27"/>
      <point x="547" y="-70" type="curve" smooth="yes"/>
      <point x="486" y="-113"/>
      <point x="414" y="-135"/>
      <point x="332" y="-135" type="curve" smooth="yes"/>
      <point x="229" y="-135"/>
      <point x="114" y="-86"/>
      <point x="114" y="84" type="curve" smooth="yes"/>
      <point x="114" y="201"/>
      <point x="151" y="286"/>
      <point x="208" y="381" type="curve"/>
      <point x="177" y="397" type="line"/>
      <point x="75" y="251"/>
      <point x="18" y="67"/>
      <point x="18" y="-81" type="curve" smooth="yes"/>
      <point x="18" y="-242"/>
      <point x="104" y="-371"/>
    </contour>
    <contour>
      <point x="176" y="518" type="curve"/>
      <point x="184" y="518" type="line"/>
      <point x="221" y="543"/>
      <point x="249" y="568"/>
      <point x="264" y="591" type="curve"/>
      <point x="280" y="578"/>
      <point x="296" y="563"/>
      <point x="324" y="536" type="curve"/>
      <point x="332" y="536" type="line"/>
      <point x="378" y="568"/>
      <point x="424" y="608"/>
      <point x="424" y="641" type="curve" smooth="yes"/>
      <point x="424" y="671"/>
      <point x="400" y="695"/>
      <point x="340" y="733" type="curve"/>
      <point x="330" y="733" type="line"/>
      <point x="318" y="725"/>
      <point x="286" y="694"/>
      <point x="258" y="661" type="curve"/>
      <point x="245" y="677"/>
      <point x="223" y="695"/>
      <point x="192" y="715" type="curve"/>
      <point x="182" y="715" type="line"/>
      <point x="169" y="707"/>
      <point x="105" y="640"/>
      <point x="84" y="609" type="curve"/>
      <point x="84" y="599" type="line"/>
      <point x="113" y="578"/>
      <point x="121" y="570"/>
    </contour>
    <contour>
      <point x="248" y="701" type="curve"/>
      <point x="257" y="701" type="line"/>
      <point x="313" y="745"/>
      <point x="335" y="773"/>
      <point x="335" y="793" type="curve" smooth="yes"/>
      <point x="335" y="811"/>
      <point x="318" y="830"/>
      <point x="261" y="868" type="curve"/>
      <point x="253" y="868" type="line"/>
      <point x="235" y="856"/>
      <point x="188" y="806"/>
      <point x="170" y="780" type="curve"/>
      <point x="170" y="772" type="line"/>
      <point x="216" y="732"/>
      <point x="216" y="733"/>
    </contour>
  </outline>
</glyph>
<glyph name="Tatweel" format="2">
  <advance width="65"/>
  <unicode hex="0640"/>
  <note>
Tatweel
</note>
  <outline>
    <contour>
      <point x="0" y="0" type="curve" smooth="yes"/>
      <point x="65" y="0" type="line" smooth="yes"/>
      <point x="135" y="0"/>
      <point x="212" y="63"/>
      <point x="212" y="142" type="curve" smooth="yes"/>
      <point x="212" y="199"/>
      <point x="191" y="220"/>
      <point x="172" y="220" type="curve" smooth="yes"/>
      <point x="107" y="220" type="line" smooth="yes"/>
      <point x="36" y="220"/>
      <point x="-40" y="157"/>
      <point x="-40" y="78" type="curve" smooth="yes"/>
      <point x="-40" y="26"/>
      <point x="-22" y="0"/>
    </contour>
  </outline>
</glyph>
<glyph name="Feh" format="2">
  <advance width="1239"/>
  <unicode hex="0641"/>
  <note>
Feh
</note>
  <outline>
    <contour>
      <point x="424" y="-27" type="curve" smooth="yes"/>
      <point x="569" y="-27"/>
      <point x="705" y="-5"/>
      <point x="834" y="38" type="curve" smooth="yes"/>
      <point x="962" y="81"/>
      <point x="1054" y="146"/>
      <point x="1109" y="235" type="curve" smooth="yes"/>
      <point x="1164" y="323"/>
      <point x="1192" y="422"/>
      <point x="1192" y="531" type="curve" smooth="yes"/>
      <point x="1192" y="624"/>
      <point x="1149" y="734"/>
      <point x="1055" y="734" type="curve" smooth="yes"/>
      <point x="1020" y="734"/>
      <point x="993" y="715"/>
      <point x="971" y="673" type="curve" smooth="yes"/>
      <point x="932" y="598" type="line" smooth="yes"/>
      <point x="916" y="567"/>
      <point x="904" y="535"/>
      <point x="904" y="505" type="curve" smooth="yes"/>
      <point x="904" y="446"/>
      <point x="960" y="409"/>
      <point x="1014" y="409" type="curve" smooth="yes"/>
      <point x="1052" y="409"/>
      <point x="1094" y="424"/>
      <point x="1110" y="434" type="curve"/>
      <point x="1114" y="427"/>
      <point x="1115" y="412"/>
      <point x="1115" y="400" type="curve" smooth="yes"/>
      <point x="1115" y="343"/>
      <point x="1044" y="294"/>
      <point x="901" y="255" type="curve" smooth="yes"/>
      <point x="758" y="216"/>
      <point x="602" y="195"/>
      <point x="431" y="195" type="curve" smooth="yes"/>
      <point x="289" y="195"/>
      <point x="200" y="208"/>
      <point x="165" y="234" type="curve" smooth="yes"/>
      <point x="130" y="260"/>
      <point x="111" y="291"/>
      <point x="111" y="330" type="curve" smooth="yes"/>
      <point x="111" y="349"/>
      <point x="113" y="373"/>
      <point x="115" y="383" type="curve"/>
      <point x="80" y="388" type="line"/>
      <point x="59" y="321"/>
      <point x="48" y="256"/>
      <point x="48" y="203" type="curve" smooth="yes"/>
      <point x="48" y="129"/>
      <point x="77" y="72"/>
      <point x="135" y="33" type="curve" smooth="yes"/>
      <point x="193" y="-6"/>
      <point x="289" y="-27"/>
    </contour>
    <contour>
      <point x="1027" y="844" type="curve"/>
      <point x="1035" y="844" type="line"/>
      <point x="1081" y="876"/>
      <point x="1127" y="916"/>
      <point x="1127" y="949" type="curve" smooth="yes"/>
      <point x="1127" y="981"/>
      <point x="1096" y="1006"/>
      <point x="1041" y="1041" type="curve"/>
      <point x="1031" y="1041" type="line"/>
      <point x="1014" y="1030"/>
      <point x="953" y="963"/>
      <point x="935" y="935" type="curve"/>
      <point x="935" y="925" type="line"/>
      <point x="962" y="905"/>
      <point x="974" y="894"/>
    </contour>
  </outline>
</glyph>
<glyph name="Qaf" format="2">
  <advance width="864"/>
  <unicode hex="0642"/>
  <note>
Qaf
</note>
  <outline>
    <contour>
      <point x="292" y="-371" type="curve" smooth="yes"/>
      <point x="436" y="-371"/>
      <point x="557" y="-302"/>
      <point x="654" y="-163" type="curve" smooth="yes"/>
      <point x="751" y="-24"/>
      <point x="800" y="147"/>
      <point x="800" y="350" type="curve" smooth="yes"/>
      <point x="800" y="441"/>
      <point x="761" y="578"/>
      <point x="664" y="578" type="curve" smooth="yes"/>
      <point x="628" y="578"/>
      <point x="600" y="561"/>
      <point x="578" y="517" type="curve" smooth="yes"/>
      <point x="536" y="433" type="line" smooth="yes"/>
      <point x="516" y="393"/>
      <point x="512" y="363"/>
      <point x="512" y="341" type="curve" smooth="yes"/>
      <point x="512" y="276"/>
      <point x="577" y="243"/>
      <point x="621" y="243" type="curve" smooth="yes"/>
      <point x="662" y="243"/>
      <point x="697" y="253"/>
      <point x="729" y="271" type="curve"/>
      <point x="736" y="255"/>
      <point x="737" y="228"/>
      <point x="737" y="215" type="curve" smooth="yes"/>
      <point x="737" y="131"/>
      <point x="701" y="51"/>
      <point x="630" y="-24" type="curve" smooth="yes"/>
      <point x="558" y="-100"/>
      <point x="463" y="-137"/>
      <point x="345" y="-137" type="curve" smooth="yes"/>
      <point x="197" y="-137"/>
      <point x="106" y="-44"/>
      <point x="106" y="84" type="curve" smooth="yes"/>
      <point x="106" y="148"/>
      <point x="118" y="217"/>
      <point x="156" y="307" type="curve"/>
      <point x="123" y="318" type="line"/>
      <point x="86" y="246"/>
      <point x="59" y="178"/>
      <point x="43" y="113" type="curve" smooth="yes"/>
      <point x="27" y="48"/>
      <point x="18" y="-16"/>
      <point x="18" y="-79" type="curve" smooth="yes"/>
      <point x="18" y="-266"/>
      <point x="137" y="-371"/>
    </contour>
    <contour>
      <point x="593" y="723" type="curve"/>
      <point x="601" y="723" type="line"/>
      <point x="638" y="748"/>
      <point x="666" y="773"/>
      <point x="681" y="796" type="curve"/>
      <point x="697" y="783"/>
      <point x="713" y="768"/>
      <point x="741" y="741" type="curve"/>
      <point x="749" y="741" type="line"/>
      <point x="795" y="773"/>
      <point x="841" y="813"/>
      <point x="841" y="846" type="curve" smooth="yes"/>
      <point x="841" y="878"/>
      <point x="810" y="903"/>
      <point x="755" y="938" type="curve"/>
      <point x="745" y="938" type="line"/>
      <point x="733" y="930"/>
      <point x="703" y="899"/>
      <point x="675" y="866" type="curve"/>
      <point x="662" y="881"/>
      <point x="641" y="898"/>
      <point x="607" y="920" type="curve"/>
      <point x="597" y="920" type="line"/>
      <point x="580" y="909"/>
      <point x="519" y="842"/>
      <point x="501" y="814" type="curve"/>
      <point x="501" y="804" type="line"/>
      <point x="530" y="783"/>
      <point x="537" y="775"/>
    </contour>
  </outline>
</glyph>
<glyph name="Kaf" format="2">
  <advance width="1226"/>
  <unicode hex="0643"/>
  <note>
Kaf
</note>
  <outline>
    <contour>
      <point x="358" y="-27" type="curve" smooth="yes"/>
      <point x="451" y="-27"/>
      <point x="552" y="-12"/>
      <point x="661" y="18" type="curve" smooth="yes"/>
      <point x="866" y="74"/>
      <point x="970" y="204"/>
      <point x="992" y="513" type="curve" smooth="yes"/>
      <point x="998" y="596" type="line" smooth="yes"/>
      <point x="1000" y="624"/>
      <point x="1007" y="727"/>
      <point x="1009" y="769" type="curve" smooth="yes"/>
      <point x="1012" y="834"/>
      <point x="1025" y="856"/>
      <point x="1252" y="1048" type="curve" smooth="yes"/>
      <point x="1324" y="1109"/>
      <point x="1374" y="1151"/>
      <point x="1402" y="1177" type="curve" smooth="yes"/>
      <point x="1429" y="1202"/>
      <point x="1454" y="1226"/>
      <point x="1477" y="1251" type="curve" smooth="yes"/>
      <point x="1524" y="1303"/>
      <point x="1563" y="1429"/>
      <point x="1575" y="1488" type="curve"/>
      <point x="1558" y="1494" type="line"/>
      <point x="1506" y="1442" type="line" smooth="yes"/>
      <point x="1453" y="1389"/>
      <point x="1427" y="1368"/>
      <point x="1307" y="1263" type="curve" smooth="yes"/>
      <point x="1164" y="1138"/>
      <point x="1077" y="1051"/>
      <point x="1048" y="1004" type="curve" smooth="yes"/>
      <point x="1019" y="957"/>
      <point x="993" y="905"/>
      <point x="970" y="849" type="curve" smooth="yes"/>
      <point x="947" y="793"/>
      <point x="933" y="719"/>
      <point x="930" y="627" type="curve" smooth="yes"/>
      <point x="923" y="399" type="line" smooth="yes"/>
      <point x="922" y="358"/>
      <point x="908" y="329"/>
      <point x="883" y="310" type="curve" smooth="yes"/>
      <point x="857" y="291"/>
      <point x="826" y="274"/>
      <point x="789" y="258" type="curve" smooth="yes"/>
      <point x="730" y="233"/>
      <point x="585" y="195"/>
      <point x="375" y="195" type="curve" smooth="yes"/>
      <point x="219" y="195"/>
      <point x="110" y="224"/>
      <point x="110" y="334" type="curve" smooth="yes"/>
      <point x="110" y="347"/>
      <point x="113" y="365"/>
      <point x="114" y="383" type="curve"/>
      <point x="79" y="388" type="line"/>
      <point x="60" y="317"/>
      <point x="48" y="254"/>
      <point x="48" y="201" type="curve" smooth="yes"/>
      <point x="48" y="13"/>
      <point x="188" y="-27"/>
    </contour>
    <contour>
      <point x="408" y="427" type="line"/>
      <point x="453" y="437"/>
      <point x="484" y="448"/>
      <point x="501" y="461" type="curve" smooth="yes"/>
      <point x="517" y="474"/>
      <point x="538" y="494"/>
      <point x="563" y="523" type="curve" smooth="yes"/>
      <point x="588" y="552"/>
      <point x="601" y="578"/>
      <point x="601" y="602" type="curve" smooth="yes"/>
      <point x="601" y="616"/>
      <point x="596" y="628"/>
      <point x="585" y="637" type="curve" smooth="yes"/>
      <point x="574" y="646"/>
      <point x="568" y="655"/>
      <point x="568" y="664" type="curve" smooth="yes"/>
      <point x="568" y="682"/>
      <point x="576" y="698"/>
      <point x="610" y="723" type="curve"/>
      <point x="624" y="767" type="line"/>
      <point x="615" y="775" type="line"/>
      <point x="588" y="758"/>
      <point x="558" y="729"/>
      <point x="524" y="690" type="curve" smooth="yes"/>
      <point x="489" y="650"/>
      <point x="472" y="618"/>
      <point x="472" y="594" type="curve" smooth="yes"/>
      <point x="472" y="581"/>
      <point x="477" y="569"/>
      <point x="487" y="558" type="curve" smooth="yes"/>
      <point x="497" y="547"/>
      <point x="501" y="538"/>
      <point x="501" y="531" type="curve" smooth="yes"/>
      <point x="501" y="512"/>
      <point x="461" y="483"/>
      <point x="399" y="444" type="curve"/>
    </contour>
  </outline>
</glyph>
<glyph name="Lam" format="2">
  <advance width="890"/>
  <unicode hex="0644"/>
  <note>
Lam
</note>
  <outline>
    <contour>
      <point x="287" y="-371" type="curve" smooth="yes"/>
      <point x="376" y="-371"/>
      <point x="455" y="-344"/>
      <point x="523" y="-291" type="curve" smooth="yes"/>
      <point x="591" y="-238"/>
      <point x="646" y="-165"/>
      <point x="687" y="-72" type="curve" smooth="yes"/>
      <point x="749" y="68"/>
      <point x="777" y="157"/>
      <point x="798" y="440" type="curve" smooth="yes"/>
      <point x="807" y="562"/>
      <point x="808" y="592"/>
      <point x="814" y="776" type="curve" smooth="yes"/>
      <point x="820" y="970"/>
      <point x="836" y="1081"/>
      <point x="847" y="1120" type="curve"/>
      <point x="820" y="1126" type="line"/>
      <point x="765" y="991"/>
      <point x="749" y="920"/>
      <point x="745" y="874" type="curve" smooth="yes"/>
      <point x="738" y="790"/>
      <point x="737" y="782"/>
      <point x="737" y="775" type="curve"/>
      <point x="716" y="295" type="line" smooth="yes"/>
      <point x="711" y="170"/>
      <point x="694" y="82"/>
      <point x="665" y="32" type="curve" smooth="yes"/>
      <point x="621" y="-44"/>
      <point x="519" y="-136"/>
      <point x="337" y="-136" type="curve" smooth="yes"/>
      <point x="212" y="-136"/>
      <point x="106" y="-92"/>
      <point x="106" y="67" type="curve" smooth="yes"/>
      <point x="106" y="153"/>
      <point x="131" y="234"/>
      <point x="164" y="310" type="curve"/>
      <point x="131" y="322" type="line"/>
      <point x="95" y="254"/>
      <point x="67" y="186"/>
      <point x="48" y="117" type="curve" smooth="yes"/>
      <point x="29" y="48"/>
      <point x="18" y="-23"/>
      <point x="18" y="-94" type="curve" smooth="yes"/>
      <point x="18" y="-226"/>
      <point x="74" y="-371"/>
    </contour>
  </outline>
</glyph>
<glyph name="Meem" format="2">
  <advance width="697"/>
  <unicode hex="0645"/>
  <note>
Meem
</note>
  <outline>
    <contour>
      <point x="22" y="-668" type="line"/>
      <point x="57" y="-668" type="line"/>
      <point x="59" y="-642"/>
      <point x="62" y="-609"/>
      <point x="64" y="-568" type="curve" smooth="yes"/>
      <point x="87" y="-157" type="line" smooth="yes"/>
      <point x="92" y="-70"/>
      <point x="102" y="5"/>
      <point x="114" y="69" type="curve" smooth="yes"/>
      <point x="126" y="132"/>
      <point x="154" y="182"/>
      <point x="197" y="219" type="curve" smooth="yes"/>
      <point x="240" y="256"/>
      <point x="297" y="283"/>
      <point x="368" y="302" type="curve" smooth="yes"/>
      <point x="438" y="321"/>
      <point x="492" y="332"/>
      <point x="531" y="338" type="curve" smooth="yes"/>
      <point x="569" y="344"/>
      <point x="604" y="378"/>
      <point x="637" y="441" type="curve" smooth="yes"/>
      <point x="670" y="504"/>
      <point x="686" y="551"/>
      <point x="686" y="581" type="curve" smooth="yes"/>
      <point x="686" y="635"/>
      <point x="571" y="661"/>
      <point x="527" y="661" type="curve" smooth="yes"/>
      <point x="499" y="661"/>
      <point x="465" y="640"/>
      <point x="430" y="565" type="curve" smooth="yes"/>
      <point x="399" y="498" type="line" smooth="yes"/>
      <point x="394" y="487"/>
      <point x="391" y="479"/>
      <point x="389" y="473" type="curve"/>
      <point x="283" y="428"/>
      <point x="208" y="375"/>
      <point x="164" y="314" type="curve" smooth="yes"/>
      <point x="120" y="253"/>
      <point x="85" y="176"/>
      <point x="58" y="83" type="curve" smooth="yes"/>
      <point x="31" y="-10"/>
      <point x="18" y="-167"/>
      <point x="18" y="-389" type="curve" smooth="yes"/>
      <point x="18" y="-556"/>
      <point x="19" y="-586"/>
      <point x="20" y="-607" type="curve" smooth="yes"/>
    </contour>
  </outline>
</glyph>
<glyph name="Noon" format="2">
  <advance width="870"/>
  <unicode hex="0646"/>
  <note>
Noon
</note>
  <outline>
    <contour>
      <point x="293" y="-371" type="curve" smooth="yes"/>
      <point x="390" y="-371"/>
      <point x="474" y="-339"/>
      <point x="546" y="-276" type="curve" smooth="yes"/>
      <point x="714" y="-129"/>
      <point x="771" y="148"/>
      <point x="771" y="340" type="curve" smooth="yes"/>
      <point x="771" y="388" type="line" smooth="yes"/>
      <point x="771" y="456"/>
      <point x="777" y="535"/>
      <point x="782" y="563" type="curve"/>
      <point x="755" y="569" type="line"/>
      <point x="712" y="461"/>
      <point x="691" y="375"/>
      <point x="691" y="269" type="curve" smooth="yes"/>
      <point x="691" y="244"/>
      <point x="692" y="219"/>
      <point x="692" y="194" type="curve" smooth="yes"/>
      <point x="692" y="79"/>
      <point x="679" y="27"/>
      <point x="604" y="-41" type="curve" smooth="yes"/>
      <point x="539" y="-100"/>
      <point x="451" y="-136"/>
      <point x="338" y="-136" type="curve" smooth="yes"/>
      <point x="195" y="-136"/>
      <point x="102" y="-78"/>
      <point x="102" y="75" type="curve" smooth="yes"/>
      <point x="102" y="138"/>
      <point x="116" y="215"/>
      <point x="156" y="310" type="curve"/>
      <point x="123" y="322" type="line"/>
      <point x="48" y="179"/>
      <point x="18" y="40"/>
      <point x="18" y="-83" type="curve" smooth="yes"/>
      <point x="18" y="-220"/>
      <point x="75" y="-371"/>
    </contour>
    <contour>
      <point x="403" y="119" type="curve"/>
      <point x="411" y="119" type="line"/>
      <point x="457" y="151"/>
      <point x="503" y="191"/>
      <point x="503" y="224" type="curve" smooth="yes"/>
      <point x="503" y="256"/>
      <point x="472" y="281"/>
      <point x="417" y="316" type="curve"/>
      <point x="407" y="316" type="line"/>
      <point x="390" y="305"/>
      <point x="329" y="238"/>
      <point x="311" y="210" type="curve"/>
      <point x="311" y="200" type="line"/>
      <point x="340" y="179"/>
      <point x="347" y="171"/>
    </contour>
  </outline>
</glyph>
<glyph name="Heh" format="2">
  <advance width="654"/>
  <unicode hex="0647"/>
  <note>
Heh
</note>
  <outline>
    <contour>
      <point x="-42" y="60" type="curve" smooth="yes"/>
      <point x="130" y="60"/>
      <point x="278" y="110"/>
      <point x="311" y="139" type="curve" smooth="yes"/>
      <point x="340" y="164" type="line"/>
      <point x="375" y="157"/>
      <point x="419" y="150"/>
      <point x="479" y="150" type="curve" smooth="yes"/>
      <point x="524" y="150"/>
      <point x="560" y="170"/>
      <point x="585" y="211" type="curve" smooth="yes"/>
      <point x="610" y="252"/>
      <point x="622" y="297"/>
      <point x="622" y="348" type="curve" smooth="yes"/>
      <point x="622" y="397"/>
      <point x="608" y="435"/>
      <point x="579" y="463" type="curve" smooth="yes"/>
      <point x="550" y="491"/>
      <point x="502" y="521"/>
      <point x="434" y="554" type="curve" smooth="yes"/>
      <point x="366" y="587"/>
      <point x="325" y="614"/>
      <point x="314" y="638" type="curve"/>
      <point x="305" y="640" type="line"/>
      <point x="259" y="577"/>
      <point x="244" y="537"/>
      <point x="244" y="506" type="curve" smooth="yes"/>
      <point x="244" y="496" type="line"/>
      <point x="174" y="436"/>
      <point x="142" y="375"/>
      <point x="142" y="317" type="curve" smooth="yes"/>
      <point x="142" y="260"/>
      <point x="159" y="233"/>
      <point x="207" y="206" type="curve"/>
      <point x="141" y="166"/>
      <point x="20" y="105"/>
      <point x="-61" y="87" type="curve"/>
      <point x="-63" y="61" type="line"/>
      <point x="-58" y="60"/>
      <point x="-51" y="60"/>
    </contour>
    <contour>
      <point x="328" y="310" type="curve"/>
      <point x="279" y="319"/>
      <point x="248" y="328"/>
      <point x="236" y="339" type="curve" smooth="yes"/>
      <point x="224" y="350"/>
      <point x="218" y="361"/>
      <point x="218" y="376" type="curve" smooth="yes"/>
      <point x="218" y="411"/>
      <point x="256" y="452"/>
      <point x="300" y="452" type="curve" smooth="yes"/>
      <point x="354" y="452"/>
      <point x="378" y="411"/>
      <point x="378" y="386" type="curve" smooth="yes"/>
      <point x="378" y="352"/>
      <point x="357" y="328"/>
    </contour>
    <contour>
      <point x="533" y="280" type="line"/>
      <point x="495" y="284"/>
      <point x="454" y="289"/>
      <point x="412" y="297" type="curve"/>
      <point x="421" y="317"/>
      <point x="431" y="350"/>
      <point x="431" y="390" type="curve"/>
      <point x="510" y="362"/>
      <point x="561" y="335"/>
      <point x="561" y="297" type="curve" smooth="yes"/>
      <point x="561" y="286"/>
      <point x="556" y="280"/>
      <point x="546" y="280" type="curve" smooth="yes"/>
    </contour>
  </outline>
</glyph>
<glyph name="AlefMaqsura" format="2">
  <advance width="860"/>
  <unicode hex="0649"/>
  <note>
AlefMaqsura
</note>
  <outline>
    <contour>
      <point x="250" y="-371" type="curve" smooth="yes"/>
      <point x="332" y="-371"/>
      <point x="407" y="-344"/>
      <point x="474" y="-290" type="curve" smooth="yes"/>
      <point x="541" y="-236"/>
      <point x="597" y="-160"/>
      <point x="641" y="-61" type="curve" smooth="yes"/>
      <point x="685" y="38"/>
      <point x="706" y="117"/>
      <point x="706" y="177" type="curve" smooth="yes"/>
      <point x="706" y="220"/>
      <point x="698" y="249"/>
      <point x="682" y="262" type="curve" smooth="yes"/>
      <point x="666" y="275"/>
      <point x="641" y="286"/>
      <point x="608" y="295" type="curve" smooth="yes"/>
      <point x="575" y="304"/>
      <point x="558" y="322"/>
      <point x="558" y="350" type="curve" smooth="yes"/>
      <point x="558" y="410"/>
      <point x="670" y="488"/>
      <point x="738" y="488" type="curve" smooth="yes"/>
      <point x="750" y="488"/>
      <point x="765" y="484"/>
      <point x="769" y="482" type="curve"/>
      <point x="782" y="484" type="line"/>
      <point x="848" y="640" type="line" smooth="yes"/>
      <point x="853" y="651"/>
      <point x="854" y="658"/>
      <point x="854" y="664" type="curve" smooth="yes"/>
      <point x="854" y="682"/>
      <point x="837" y="692"/>
      <point x="805" y="692" type="curve" smooth="yes"/>
      <point x="664" y="692"/>
      <point x="458" y="360"/>
      <point x="458" y="195" type="curve" smooth="yes"/>
      <point x="458" y="133"/>
      <point x="485" y="95"/>
      <point x="538" y="81" type="curve" smooth="yes"/>
      <point x="591" y="67"/>
      <point x="618" y="49"/>
      <point x="618" y="30" type="curve" smooth="yes"/>
      <point x="618" y="6"/>
      <point x="587" y="-27"/>
      <point x="526" y="-70" type="curve" smooth="yes"/>
      <point x="465" y="-113"/>
      <point x="393" y="-135"/>
      <point x="311" y="-135" type="curve" smooth="yes"/>
      <point x="208" y="-135"/>
      <point x="93" y="-86"/>
      <point x="93" y="84" type="curve" smooth="yes"/>
      <point x="93" y="201"/>
      <point x="130" y="286"/>
      <point x="187" y="381" type="curve"/>
      <point x="156" y="397" type="line"/>
      <point x="54" y="251"/>
      <point x="-3" y="67"/>
      <point x="-3" y="-81" type="curve" smooth="yes"/>
      <point x="-3" y="-242"/>
      <point x="83" y="-371"/>
    </contour>
  </outline>
</glyph>
<glyph name="Yeh" format="2">
  <advance width="907"/>
  <unicode hex="064A"/>
  <note>
Yeh
</note>
  <outline>
    <contour>
      <point x="270" y="-371" type="curve" smooth="yes"/>
      <point x="352" y="-371"/>
      <point x="427" y="-344"/>
      <point x="494" y="-290" type="curve" smooth="yes"/>
      <point x="561" y="-236"/>
      <point x="617" y="-160"/>
      <point x="661" y="-61" type="curve" smooth="yes"/>
      <point x="705" y="38"/>
      <point x="726" y="117"/>
      <point x="726" y="177" type="curve" smooth="yes"/>
      <point x="726" y="220"/>
      <point x="718" y="249"/>
      <point x="702" y="262" type="curve" smooth="yes"/>
      <point x="686" y="275"/>
      <point x="661" y="286"/>
      <point x="628" y="295" type="curve" smooth="yes"/>
      <point x="595" y="304"/>
      <point x="578" y="322"/>
      <point x="578" y="350" type="curve" smooth="yes"/>
      <point x="578" y="410"/>
      <point x="690" y="488"/>
      <point x="758" y="488" type="curve" smooth="yes"/>
      <point x="770" y="488"/>
      <point x="785" y="484"/>
      <point x="789" y="482" type="curve"/>
      <point x="802" y="484" type="line"/>
      <point x="868" y="640" type="line" smooth="yes"/>
      <point x="873" y="651"/>
      <point x="874" y="658"/>
      <point x="874" y="664" type="curve" smooth="yes"/>
      <point x="874" y="682"/>
      <point x="857" y="692"/>
      <point x="825" y="692" type="curve" smooth="yes"/>
      <point x="684" y="692"/>
      <point x="478" y="360"/>
      <point x="478" y="195" type="curve" smooth="yes"/>
      <point x="478" y="133"/>
      <point x="505" y="95"/>
      <point x="558" y="81" type="curve" smooth="yes"/>
      <point x="611" y="67"/>
      <point x="638" y="49"/>
      <point x="638" y="30" type="curve" smooth="yes"/>
      <point x="638" y="6"/>
      <point x="607" y="-27"/>
      <point x="546" y="-70" type="curve" smooth="yes"/>
      <point x="485" y="-113"/>
      <point x="413" y="-135"/>
      <point x="331" y="-135" type="curve" smooth="yes"/>
      <point x="228" y="-135"/>
      <point x="113" y="-86"/>
      <point x="113" y="84" type="curve" smooth="yes"/>
      <point x="113" y="201"/>
      <point x="150" y="286"/>
      <point x="207" y="381" type="curve"/>
      <point x="176" y="397" type="line"/>
      <point x="74" y="251"/>
      <point x="17" y="67"/>
      <point x="17" y="-81" type="curve" smooth="yes"/>
      <point x="17" y="-242"/>
      <point x="103" y="-371"/>
    </contour>
    <contour>
      <point x="238" y="-686" type="curve"/>
      <point x="246" y="-686" type="line"/>
      <point x="283" y="-661"/>
      <point x="311" y="-636"/>
      <point x="326" y="-613" type="curve"/>
      <point x="342" y="-626"/>
      <point x="358" y="-641"/>
      <point x="386" y="-668" type="curve"/>
      <point x="394" y="-668" type="line"/>
      <point x="440" y="-636"/>
      <point x="486" y="-596"/>
      <point x="486" y="-563" type="curve" smooth="yes"/>
      <point x="486" y="-531"/>
      <point x="455" y="-506"/>
      <point x="400" y="-471" type="curve"/>
      <point x="390" y="-471" type="line"/>
      <point x="378" y="-479"/>
      <point x="348" y="-510"/>
      <point x="320" y="-543" type="curve"/>
      <point x="307" y="-528"/>
      <point x="286" y="-511"/>
      <point x="252" y="-489" type="curve"/>
      <point x="242" y="-489" type="line"/>
      <point x="225" y="-500"/>
      <point x="164" y="-567"/>
      <point x="146" y="-595" type="curve"/>
      <point x="146" y="-605" type="line"/>
      <point x="175" y="-626"/>
      <point x="182" y="-634"/>
    </contour>
  </outline>
</glyph>
<glyph name="FathatanNS" format="2">
  <unicode hex="064B"/>
  <note>
FathatanNS
</note>
  <outline>
    <contour>
      <point x="-107" y="957" type="line"/>
      <point x="-96" y="969"/>
      <point x="-77" y="981"/>
      <point x="-49" y="996" type="curve" smooth="yes"/>
      <point x="104" y="1080" type="line" smooth="yes"/>
      <point x="135" y="1097"/>
      <point x="152" y="1119"/>
      <point x="164" y="1155" type="curve"/>
      <point x="151" y="1162" type="line"/>
      <point x="147" y="1159"/>
      <point x="138" y="1153"/>
      <point x="101" y="1132" type="curve" smooth="yes"/>
      <point x="75" y="1117"/>
      <point x="35" y="1096"/>
      <point x="-26" y="1061" type="curve" smooth="yes"/>
      <point x="-93" y="1023"/>
      <point x="-110" y="1003"/>
      <point x="-119" y="965" type="curve"/>
    </contour>
    <contour>
      <point x="-117" y="855" type="line"/>
      <point x="-106" y="867"/>
      <point x="-87" y="879"/>
      <point x="-59" y="894" type="curve" smooth="yes"/>
      <point x="94" y="978" type="line" smooth="yes"/>
      <point x="125" y="995"/>
      <point x="142" y="1017"/>
      <point x="154" y="1053" type="curve"/>
      <point x="141" y="1060" type="line"/>
      <point x="137" y="1057"/>
      <point x="128" y="1051"/>
      <point x="91" y="1030" type="curve" smooth="yes"/>
      <point x="65" y="1015"/>
      <point x="25" y="994"/>
      <point x="-36" y="959" type="curve" smooth="yes"/>
      <point x="-103" y="921"/>
      <point x="-120" y="901"/>
      <point x="-129" y="863" type="curve"/>
    </contour>
  </outline>
</glyph>
<glyph name="KasratanNS" format="2">
  <unicode hex="064D"/>
  <note>
KasratanNS
</note>
  <outline>
    <contour>
      <point x="-121" y="-197" type="line"/>
      <point x="-110" y="-185"/>
      <point x="-91" y="-173"/>
      <point x="-63" y="-158" type="curve" smooth="yes"/>
      <point x="90" y="-74" type="line" smooth="yes"/>
      <point x="121" y="-57"/>
      <point x="138" y="-35"/>
      <point x="150" y="1" type="curve"/>
      <point x="137" y="8" type="line"/>
      <point x="133" y="5"/>
      <point x="124" y="-1"/>
      <point x="87" y="-22" type="curve" smooth="yes"/>
      <point x="61" y="-37"/>
      <point x="21" y="-58"/>
      <point x="-40" y="-93" type="curve" smooth="yes"/>
      <point x="-107" y="-131"/>
      <point x="-124" y="-151"/>
      <point x="-133" y="-189" type="curve"/>
    </contour>
    <contour>
      <point x="-131" y="-300" type="line"/>
      <point x="-120" y="-288"/>
      <point x="-101" y="-276"/>
      <point x="-73" y="-261" type="curve" smooth="yes"/>
      <point x="80" y="-177" type="line" smooth="yes"/>
      <point x="111" y="-160"/>
      <point x="128" y="-138"/>
      <point x="140" y="-102" type="curve"/>
      <point x="127" y="-95" type="line"/>
      <point x="123" y="-98"/>
      <point x="114" y="-104"/>
      <point x="77" y="-125" type="curve" smooth="yes"/>
      <point x="51" y="-140"/>
      <point x="11" y="-161"/>
      <point x="-50" y="-196" type="curve" smooth="yes"/>
      <point x="-117" y="-234"/>
      <point x="-134" y="-254"/>
      <point x="-143" y="-292" type="curve"/>
    </contour>
  </outline>
</glyph>
<glyph name="FathaNS" format="2">
  <unicode hex="064E"/>
  <note>
FathaNS
</note>
  <outline>
    <contour>
      <point x="-117" y="855" type="line"/>
      <point x="-106" y="867"/>
      <point x="-87" y="879"/>
      <point x="-59" y="894" type="curve" smooth="yes"/>
      <point x="94" y="978" type="line" smooth="yes"/>
      <point x="125" y="995"/>
      <point x="142" y="1017"/>
      <point x="154" y="1053" type="curve"/>
      <point x="141" y="1060" type="line"/>
      <point x="137" y="1057"/>
      <point x="128" y="1051"/>
      <point x="91" y="1030" type="curve" smooth="yes"/>
      <point x="65" y="1015"/>
      <point x="25" y="994"/>
      <point x="-36" y="959" type="curve" smooth="yes"/>
      <point x="-103" y="921"/>
      <point x="-120" y="901"/>
      <point x="-129" y="863" type="curve"/>
    </contour>
  </outline>
</glyph>
<glyph name="DammaNS" format="2">
  <unicode hex="064F"/>
  <note>
DammaNS
</note>
  <outline>
    <contour>
      <point x="-119" y="846" type="line"/>
      <point x="-25" y="888"/>
      <point x="120" y="961"/>
      <point x="120" y="1067" type="curve" smooth="yes"/>
      <point x="120" y="1092"/>
      <point x="108" y="1118"/>
      <point x="76" y="1118" type="curve" smooth="yes"/>
      <point x="25" y="1118"/>
      <point x="-9" y="1066"/>
      <point x="-9" y="1022" type="curve" smooth="yes"/>
      <point x="-9" y="1010"/>
      <point x="-5" y="994"/>
      <point x="13" y="973" type="curve"/>
      <point x="-37" y="934" type="line" smooth="yes"/>
      <point x="-66" y="911"/>
      <point x="-97" y="885"/>
      <point x="-127" y="857" type="curve"/>
    </contour>
    <contour>
      <point x="59" y="1009" type="curve"/>
      <point x="37" y="1026"/>
      <point x="28" y="1037"/>
      <point x="28" y="1049" type="curve" smooth="yes"/>
      <point x="28" y="1063"/>
      <point x="37" y="1076"/>
      <point x="56" y="1076" type="curve" smooth="yes"/>
      <point x="74" y="1076"/>
      <point x="83" y="1063"/>
      <point x="83" y="1050" type="curve" smooth="yes"/>
      <point x="83" y="1033"/>
      <point x="71" y="1020"/>
    </contour>
  </outline>
</glyph>
<glyph name="KasraNS" format="2">
  <unicode hex="0650"/>
  <note>
KasraNS
</note>
  <outline>
    <contour>
      <point x="-121" y="-197" type="line"/>
      <point x="-110" y="-185"/>
      <point x="-91" y="-173"/>
      <point x="-63" y="-158" type="curve" smooth="yes"/>
      <point x="90" y="-74" type="line" smooth="yes"/>
      <point x="121" y="-57"/>
      <point x="138" y="-35"/>
      <point x="150" y="1" type="curve"/>
      <point x="137" y="8" type="line"/>
      <point x="133" y="5"/>
      <point x="124" y="-1"/>
      <point x="87" y="-22" type="curve" smooth="yes"/>
      <point x="61" y="-37"/>
      <point x="21" y="-58"/>
      <point x="-40" y="-93" type="curve" smooth="yes"/>
      <point x="-107" y="-131"/>
      <point x="-124" y="-151"/>
      <point x="-133" y="-189" type="curve"/>
    </contour>
  </outline>
</glyph>
<glyph name="ShaddaNS" format="2">
  <unicode hex="0651"/>
  <note>
ShaddaNS
</note>
  <outline>
    <contour>
      <point x="-88" y="862" type="curve" smooth="yes"/>
      <point x="-45" y="862"/>
      <point x="-18" y="899"/>
      <point x="-6" y="938" type="curve"/>
      <point x="1" y="932"/>
      <point x="15" y="928"/>
      <point x="27" y="928" type="curve" smooth="yes"/>
      <point x="92" y="928"/>
      <point x="125" y="994"/>
      <point x="125" y="1060" type="curve" smooth="yes"/>
      <point x="125" y="1077" type="line"/>
      <point x="98" y="1072" type="line"/>
      <point x="92" y="1023"/>
      <point x="75" y="996"/>
      <point x="45" y="996" type="curve" smooth="yes"/>
      <point x="30" y="996"/>
      <point x="19" y="1003"/>
      <point x="13" y="1016" type="curve"/>
      <point x="-10" y="1011" type="line"/>
      <point x="-22" y="956"/>
      <point x="-39" y="928"/>
      <point x="-74" y="928" type="curve" smooth="yes"/>
      <point x="-93" y="928"/>
      <point x="-103" y="938"/>
      <point x="-105" y="958" type="curve" smooth="yes"/>
      <point x="-106" y="970" type="line"/>
      <point x="-129" y="966" type="line"/>
      <point x="-136" y="948"/>
      <point x="-139" y="934"/>
      <point x="-139" y="917" type="curve" smooth="yes"/>
      <point x="-139" y="883"/>
      <point x="-117" y="862"/>
    </contour>
  </outline>
</glyph>
<glyph name="MaddaNS" format="2">
  <unicode hex="0653"/>
  <note>
MaddaNS
</note>
  <outline>
    <contour>
      <point x="-255" y="875" type="line"/>
      <point x="-234" y="902"/>
      <point x="-223" y="921"/>
      <point x="-190" y="921" type="curve" smooth="yes"/>
      <point x="-161" y="921"/>
      <point x="-108" y="900"/>
      <point x="-13" y="900" type="curve" smooth="yes"/>
      <point x="94" y="900"/>
      <point x="207" y="943"/>
      <point x="295" y="1063" type="curve"/>
      <point x="278" y="1077" type="line"/>
      <point x="220" y="1029"/>
      <point x="160" y="1012"/>
      <point x="64" y="1012" type="curve" smooth="yes"/>
      <point x="-34" y="1012"/>
      <point x="-92" y="1034"/>
      <point x="-130" y="1034" type="curve" smooth="yes"/>
      <point x="-185" y="1034"/>
      <point x="-235" y="974"/>
      <point x="-277" y="885" type="curve"/>
    </contour>
  </outline>
</glyph>
<glyph name="HamzaAboveNS" format="2">
  <unicode hex="0654"/>
  <note>
HamzaAboveNS
</note>
  <outline>
    <contour>
      <point x="-98" y="837" type="curve" smooth="yes"/>
      <point x="-68" y="837"/>
      <point x="-40" y="860"/>
      <point x="-13" y="907" type="curve" smooth="yes"/>
      <point x="14" y="954"/>
      <point x="37" y="977"/>
      <point x="56" y="977" type="curve" smooth="yes"/>
      <point x="74" y="977"/>
      <point x="84" y="966"/>
      <point x="84" y="953" type="curve" smooth="yes"/>
      <point x="84" y="950"/>
      <point x="83" y="946"/>
      <point x="82" y="942" type="curve"/>
      <point x="100" y="937" type="line"/>
      <point x="117" y="957"/>
      <point x="134" y="1002"/>
      <point x="134" y="1029" type="curve" smooth="yes"/>
      <point x="134" y="1065"/>
      <point x="112" y="1075"/>
      <point x="92" y="1075" type="curve" smooth="yes"/>
      <point x="62" y="1075"/>
      <point x="42" y="1054"/>
      <point x="17" y="1015" type="curve" smooth="yes"/>
      <point x="-12" y="970" type="line" smooth="yes"/>
      <point x="-30" y="943"/>
      <point x="-45" y="935"/>
      <point x="-59" y="935" type="curve" smooth="yes"/>
      <point x="-76" y="935"/>
      <point x="-84" y="944"/>
      <point x="-84" y="958" type="curve" smooth="yes"/>
      <point x="-84" y="962"/>
      <point x="-83" y="966"/>
      <point x="-82" y="970" type="curve"/>
      <point x="-101" y="975" type="line"/>
      <point x="-116" y="957"/>
      <point x="-137" y="919"/>
      <point x="-137" y="882" type="curve" smooth="yes"/>
      <point x="-137" y="853"/>
      <point x="-121" y="837"/>
    </contour>
  </outline>
</glyph>
<glyph name="HamzaBelowNS" format="2">
  <unicode hex="0655"/>
  <note>
HamzaBelowNS
</note>
  <outline>
    <contour>
      <point x="-98" y="-288" type="curve" smooth="yes"/>
      <point x="-68" y="-288"/>
      <point x="-40" y="-265"/>
      <point x="-13" y="-218" type="curve" smooth="yes"/>
      <point x="14" y="-171"/>
      <point x="37" y="-148"/>
      <point x="56" y="-148" type="curve" smooth="yes"/>
      <point x="74" y="-148"/>
      <point x="84" y="-159"/>
      <point x="84" y="-172" type="curve" smooth="yes"/>
      <point x="84" y="-175"/>
      <point x="83" y="-179"/>
      <point x="82" y="-183" type="curve"/>
      <point x="100" y="-188" type="line"/>
      <point x="117" y="-168"/>
      <point x="134" y="-123"/>
      <point x="134" y="-96" type="curve" smooth="yes"/>
      <point x="134" y="-60"/>
      <point x="112" y="-50"/>
      <point x="92" y="-50" type="curve" smooth="yes"/>
      <point x="62" y="-50"/>
      <point x="42" y="-71"/>
      <point x="17" y="-110" type="curve" smooth="yes"/>
      <point x="-12" y="-155" type="line" smooth="yes"/>
      <point x="-30" y="-182"/>
      <point x="-45" y="-190"/>
      <point x="-59" y="-190" type="curve" smooth="yes"/>
      <point x="-76" y="-190"/>
      <point x="-84" y="-181"/>
      <point x="-84" y="-167" type="curve" smooth="yes"/>
      <point x="-84" y="-163"/>
      <point x="-83" y="-159"/>
      <point x="-82" y="-155" type="curve"/>
      <point x="-101" y="-150" type="line"/>
      <point x="-116" y="-168"/>
      <point x="-137" y="-206"/>
      <point x="-137" y="-243" type="curve" smooth="yes"/>
      <point x="-137" y="-272"/>
      <point x="-121" y="-288"/>
    </contour>
  </outline>
</glyph>
<glyph name="AlefInferiorNS" format="2">
  <unicode hex="0656"/>
  <note>
AlefInferiorNS
</note>
  <outline>
    <contour>
      <point x="-6" y="-281" type="line"/>
      <point x="16" y="-229"/>
      <point x="31" y="-177"/>
      <point x="34" y="-129" type="curve" smooth="yes"/>
      <point x="35" y="-109" type="line" smooth="yes"/>
      <point x="38" y="-34"/>
      <point x="40" y="-11"/>
      <point x="45" y="1" type="curve"/>
      <point x="28" y="4" type="line"/>
      <point x="0" y="-50"/>
      <point x="-8" y="-68"/>
      <point x="-11" y="-125" type="curve" smooth="yes"/>
      <point x="-16" y="-218"/>
      <point x="-18" y="-254"/>
      <point x="-23" y="-278" type="curve"/>
    </contour>
  </outline>
</glyph>
<glyph name="UltapeshNS" format="2">
  <unicode hex="0657"/>
  <note>
UltapeshNS
</note>
  <outline>
    <contour>
      <point x="-82" y="846" type="curve" smooth="yes"/>
      <point x="-37" y="846"/>
      <point x="3" y="891"/>
      <point x="3" y="942" type="curve" smooth="yes"/>
      <point x="3" y="958"/>
      <point x="-4" y="972"/>
      <point x="-19" y="991" type="curve"/>
      <point x="31" y="1030" type="line" smooth="yes"/>
      <point x="59" y="1052"/>
      <point x="91" y="1079"/>
      <point x="121" y="1107" type="curve"/>
      <point x="113" y="1118" type="line"/>
      <point x="92" y="1111"/>
      <point x="22" y="1074"/>
      <point x="-17" y="1049" type="curve" smooth="yes"/>
      <point x="-77" y="1011"/>
      <point x="-126" y="960"/>
      <point x="-126" y="897" type="curve" smooth="yes"/>
      <point x="-126" y="874"/>
      <point x="-114" y="846"/>
    </contour>
    <contour>
      <point x="-62" y="888" type="curve" smooth="yes"/>
      <point x="-78" y="888"/>
      <point x="-89" y="897"/>
      <point x="-89" y="914" type="curve" smooth="yes"/>
      <point x="-89" y="927"/>
      <point x="-82" y="940"/>
      <point x="-65" y="955" type="curve"/>
      <point x="-44" y="939"/>
      <point x="-34" y="927"/>
      <point x="-34" y="915" type="curve" smooth="yes"/>
      <point x="-34" y="899"/>
      <point x="-47" y="888"/>
    </contour>
  </outline>
</glyph>
<glyph name="NoonGhunnaMarkNS" format="2">
  <unicode hex="0658"/>
  <note>
NoonGhunnaMarkNS
</note>
  <outline>
    <contour>
      <point x="-18" y="875" type="curve" smooth="yes"/>
      <point x="76" y="875"/>
      <point x="142" y="967"/>
      <point x="144" y="1054" type="curve"/>
      <point x="119" y="1054" type="line"/>
      <point x="104" y="994"/>
      <point x="62" y="957"/>
      <point x="-13" y="957" type="curve" smooth="yes"/>
      <point x="-73" y="957"/>
      <point x="-96" y="981"/>
      <point x="-96" y="1030" type="curve" smooth="yes"/>
      <point x="-96" y="1036"/>
      <point x="-95" y="1041"/>
      <point x="-94" y="1045" type="curve"/>
      <point x="-119" y="1048" type="line"/>
      <point x="-126" y="1030"/>
      <point x="-128" y="1005"/>
      <point x="-128" y="988" type="curve" smooth="yes"/>
      <point x="-128" y="912"/>
      <point x="-90" y="875"/>
    </contour>
  </outline>
</glyph>
<glyph name="Fatha2dotsNS" format="2">
  <unicode hex="065E"/>
  <note>
Fatha2dotsNS
</note>
  <outline>
    <contour>
      <point x="-119" y="872" type="line"/>
      <point x="-108" y="884"/>
      <point x="-89" y="896"/>
      <point x="-61" y="911" type="curve" smooth="yes"/>
      <point x="92" y="995" type="line" smooth="yes"/>
      <point x="123" y="1012"/>
      <point x="140" y="1034"/>
      <point x="152" y="1070" type="curve"/>
      <point x="139" y="1077" type="line"/>
      <point x="134" y="1073"/>
      <point x="126" y="1068"/>
      <point x="115" y="1062" type="curve" smooth="yes"/>
      <point x="-38" y="976" type="line" smooth="yes"/>
      <point x="-106" y="938"/>
      <point x="-122" y="918"/>
      <point x="-131" y="880" type="curve"/>
    </contour>
    <contour>
      <point x="51" y="836" type="curve"/>
      <point x="56" y="836" type="line"/>
      <point x="81" y="854"/>
      <point x="97" y="870"/>
      <point x="97" y="884" type="curve" smooth="yes"/>
      <point x="97" y="895"/>
      <point x="84" y="909"/>
      <point x="58" y="925" type="curve"/>
      <point x="54" y="925" type="line"/>
      <point x="47" y="919"/>
      <point x="24" y="897"/>
      <point x="10" y="877" type="curve"/>
      <point x="10" y="873" type="line"/>
      <point x="20" y="865"/>
      <point x="41" y="848"/>
    </contour>
    <contour>
      <point x="-50" y="1019" type="curve"/>
      <point x="-46" y="1019" type="line"/>
      <point x="-19" y="1037"/>
      <point x="-5" y="1055"/>
      <point x="-5" y="1066" type="curve" smooth="yes"/>
      <point x="-5" y="1077"/>
      <point x="-18" y="1091"/>
      <point x="-43" y="1108" type="curve"/>
      <point x="-48" y="1108" type="line"/>
      <point x="-73" y="1082"/>
      <point x="-80" y="1076"/>
      <point x="-91" y="1059" type="curve"/>
      <point x="-91" y="1055" type="line"/>
      <point x="-82" y="1048"/>
      <point x="-62" y="1031"/>
    </contour>
  </outline>
</glyph>
<glyph name="ZeroArabic" format="2">
  <advance width="439"/>
  <unicode hex="0660"/>
  <note>
ZeroArabic
</note>
  <outline>
    <contour>
      <point x="210" y="176" type="curve"/>
      <point x="218" y="176" type="line"/>
      <point x="300" y="232"/>
      <point x="333" y="275"/>
      <point x="333" y="306" type="curve" smooth="yes"/>
      <point x="333" y="342"/>
      <point x="305" y="369"/>
      <point x="227" y="420" type="curve"/>
      <point x="214" y="420" type="line"/>
      <point x="198" y="410"/>
      <point x="124" y="335"/>
      <point x="95" y="290" type="curve"/>
      <point x="95" y="276" type="line"/>
      <point x="115" y="263"/>
      <point x="177" y="210"/>
    </contour>
  </outline>
</glyph>
<glyph name="OneArabic" format="2">
  <advance width="564"/>
  <unicode hex="0661"/>
  <note>
OneArabic
</note>
  <outline>
    <contour>
      <point x="286" y="-3" type="line"/>
      <point x="328" y="99"/>
      <point x="335" y="149"/>
      <point x="335" y="330" type="curve" smooth="yes"/>
      <point x="335" y="438"/>
      <point x="313" y="650"/>
      <point x="300" y="683" type="curve"/>
      <point x="278" y="684" type="line"/>
      <point x="247" y="616" type="line" smooth="yes"/>
      <point x="229" y="577"/>
      <point x="220" y="550"/>
      <point x="218" y="537" type="curve"/>
      <point x="231" y="463"/>
      <point x="239" y="409"/>
      <point x="243" y="374" type="curve" smooth="yes"/>
      <point x="255" y="277" type="line" smooth="yes"/>
      <point x="265" y="195"/>
      <point x="266" y="151"/>
      <point x="266" y="124" type="curve" smooth="yes"/>
      <point x="266" y="65"/>
      <point x="264" y="26"/>
      <point x="260" y="2" type="curve"/>
    </contour>
  </outline>
</glyph>
<glyph name="TwoArabic" format="2">
  <advance width="601"/>
  <unicode hex="0662"/>
  <note>
TwoArabic
</note>
  <outline>
    <contour>
      <point x="181" y="-3" type="line"/>
      <point x="219" y="84"/>
      <point x="229" y="149"/>
      <point x="229" y="316" type="curve" smooth="yes"/>
      <point x="229" y="338"/>
      <point x="226" y="386"/>
      <point x="225" y="399" type="curve"/>
      <point x="245" y="392"/>
      <point x="279" y="386"/>
      <point x="310" y="386" type="curve" smooth="yes"/>
      <point x="446" y="386"/>
      <point x="513" y="487"/>
      <point x="538" y="679" type="curve"/>
      <point x="506" y="685" type="line"/>
      <point x="480" y="609"/>
      <point x="410" y="583"/>
      <point x="340" y="583" type="curve" smooth="yes"/>
      <point x="245" y="583"/>
      <point x="210" y="621"/>
      <point x="200" y="632" type="curve"/>
      <point x="194" y="646"/>
      <point x="193" y="650"/>
      <point x="185" y="683" type="curve"/>
      <point x="163" y="684" type="line"/>
      <point x="143" y="641"/>
      <point x="136" y="626"/>
      <point x="132" y="616" type="curve" smooth="yes"/>
      <point x="108" y="556"/>
      <point x="106" y="552"/>
      <point x="106" y="547" type="curve" smooth="yes"/>
      <point x="106" y="542"/>
      <point x="108" y="530"/>
      <point x="112" y="512" type="curve" smooth="yes"/>
      <point x="138" y="394"/>
      <point x="161" y="207"/>
      <point x="161" y="124" type="curve" smooth="yes"/>
      <point x="161" y="65"/>
      <point x="159" y="26"/>
      <point x="155" y="2" type="curve"/>
    </contour>
  </outline>
</glyph>
<glyph name="ThreeArabic" format="2">
  <advance width="583"/>
  <unicode hex="0663"/>
  <note>
ThreeArabic
</note>
  <outline>
    <contour>
      <point x="127" y="-3" type="line"/>
      <point x="167" y="95"/>
      <point x="175" y="161"/>
      <point x="175" y="310" type="curve" smooth="yes"/>
      <point x="175" y="340"/>
      <point x="173" y="369"/>
      <point x="172" y="399" type="curve"/>
      <point x="188" y="393"/>
      <point x="209" y="392"/>
      <point x="220" y="392" type="curve" smooth="yes"/>
      <point x="258" y="392"/>
      <point x="286" y="402"/>
      <point x="305" y="422" type="curve"/>
      <point x="323" y="407"/>
      <point x="356" y="397"/>
      <point x="389" y="397" type="curve" smooth="yes"/>
      <point x="508" y="397"/>
      <point x="557" y="518"/>
      <point x="572" y="681" type="curve"/>
      <point x="539" y="684" type="line"/>
      <point x="518" y="607"/>
      <point x="491" y="583"/>
      <point x="434" y="583" type="curve" smooth="yes"/>
      <point x="408" y="583"/>
      <point x="377" y="594"/>
      <point x="367" y="612" type="curve"/>
      <point x="371" y="633"/>
      <point x="373" y="645"/>
      <point x="376" y="680" type="curve"/>
      <point x="344" y="683" type="line"/>
      <point x="324" y="602"/>
      <point x="285" y="583"/>
      <point x="229" y="583" type="curve" smooth="yes"/>
      <point x="196" y="583"/>
      <point x="158" y="594"/>
      <point x="143" y="628" type="curve"/>
      <point x="137" y="659" type="line" smooth="yes"/>
      <point x="135" y="668"/>
      <point x="133" y="676"/>
      <point x="130" y="683" type="curve"/>
      <point x="109" y="684" type="line"/>
      <point x="79" y="616" type="line" smooth="yes"/>
      <point x="65" y="585"/>
      <point x="60" y="572"/>
      <point x="52" y="547" type="curve"/>
      <point x="54" y="535"/>
      <point x="55" y="524"/>
      <point x="58" y="512" type="curve"/>
      <point x="80" y="407"/>
      <point x="107" y="233"/>
      <point x="107" y="124" type="curve" smooth="yes"/>
      <point x="107" y="65"/>
      <point x="105" y="26"/>
      <point x="101" y="2" type="curve"/>
    </contour>
  </outline>
</glyph>
<glyph name="FourArabic" format="2">
  <advance width="618"/>
  <unicode hex="0664"/>
  <note>
FourArabic
</note>
  <outline>
    <contour>
      <point x="269" y="0" type="curve" smooth="yes"/>
      <point x="350" y="0"/>
      <point x="443" y="52"/>
      <point x="539" y="152" type="curve"/>
      <point x="535" y="164" type="line"/>
      <point x="476" y="164"/>
      <point x="416" y="169"/>
      <point x="355" y="178" type="curve" smooth="yes"/>
      <point x="293" y="187"/>
      <point x="262" y="203"/>
      <point x="262" y="227" type="curve" smooth="yes"/>
      <point x="262" y="245"/>
      <point x="284" y="271"/>
      <point x="328" y="305" type="curve" smooth="yes"/>
      <point x="371" y="339"/>
      <point x="393" y="366"/>
      <point x="393" y="386" type="curve" smooth="yes"/>
      <point x="393" y="400"/>
      <point x="383" y="416"/>
      <point x="351" y="427" type="curve" smooth="yes"/>
      <point x="219" y="472"/>
      <point x="199" y="477"/>
      <point x="199" y="500" type="curve" smooth="yes"/>
      <point x="199" y="521"/>
      <point x="243" y="541"/>
      <point x="345" y="578" type="curve"/>
      <point x="378" y="615"/>
      <point x="426" y="684"/>
      <point x="433" y="703" type="curve"/>
      <point x="420" y="707" type="line"/>
      <point x="327" y="678"/>
      <point x="247" y="633"/>
      <point x="182" y="572" type="curve" smooth="yes"/>
      <point x="116" y="511"/>
      <point x="83" y="456"/>
      <point x="83" y="407" type="curve" smooth="yes"/>
      <point x="83" y="336"/>
      <point x="134" y="306"/>
      <point x="221" y="276" type="curve"/>
      <point x="127" y="196"/>
      <point x="104" y="148"/>
      <point x="104" y="104" type="curve" smooth="yes"/>
      <point x="104" y="23"/>
      <point x="177" y="0"/>
    </contour>
  </outline>
</glyph>
<glyph name="FiveArabic" format="2">
  <advance width="558"/>
  <unicode hex="0665"/>
  <note>
FiveArabic
</note>
  <outline>
    <contour>
      <point x="240" y="25" type="curve" smooth="yes"/>
      <point x="416" y="25"/>
      <point x="487" y="140"/>
      <point x="487" y="335" type="curve" smooth="yes"/>
      <point x="487" y="474"/>
      <point x="403" y="616"/>
      <point x="304" y="616" type="curve" smooth="yes"/>
      <point x="174" y="616"/>
      <point x="69" y="372"/>
      <point x="69" y="204" type="curve" smooth="yes"/>
      <point x="69" y="80"/>
      <point x="137" y="25"/>
    </contour>
    <contour>
      <point x="271" y="223" type="curve" smooth="yes"/>
      <point x="199" y="223"/>
      <point x="142" y="240"/>
      <point x="142" y="296" type="curve" smooth="yes"/>
      <point x="142" y="348"/>
      <point x="206" y="417"/>
      <point x="267" y="417" type="curve" smooth="yes"/>
      <point x="330" y="417"/>
      <point x="429" y="361"/>
      <point x="429" y="294" type="curve" smooth="yes"/>
      <point x="429" y="255"/>
      <point x="384" y="223"/>
    </contour>
  </outline>
</glyph>
<glyph name="SixArabic" format="2">
  <advance width="588"/>
  <unicode hex="0666"/>
  <note>
SixArabic
</note>
  <outline>
    <contour>
      <point x="424" y="-1" type="line"/>
      <point x="445" y="46"/>
      <point x="458" y="77"/>
      <point x="476" y="132" type="curve"/>
      <point x="447" y="339"/>
      <point x="443" y="372"/>
      <point x="443" y="549" type="curve" smooth="yes"/>
      <point x="443" y="624"/>
      <point x="445" y="654"/>
      <point x="447" y="665" type="curve"/>
      <point x="420" y="670" type="line"/>
      <point x="381" y="637"/>
      <point x="304" y="622"/>
      <point x="261" y="622" type="curve" smooth="yes"/>
      <point x="173" y="622"/>
      <point x="118" y="638"/>
      <point x="80" y="676" type="curve"/>
      <point x="59" y="674" type="line"/>
      <point x="42" y="616"/>
      <point x="36" y="574"/>
      <point x="36" y="526" type="curve" smooth="yes"/>
      <point x="36" y="480"/>
      <point x="57" y="451"/>
      <point x="98" y="438" type="curve" smooth="yes"/>
      <point x="139" y="425"/>
      <point x="181" y="419"/>
      <point x="222" y="419" type="curve" smooth="yes"/>
      <point x="282" y="419"/>
      <point x="356" y="435"/>
      <point x="385" y="451" type="curve"/>
      <point x="379" y="382"/>
      <point x="376" y="307"/>
      <point x="376" y="267" type="curve" smooth="yes"/>
      <point x="376" y="184"/>
      <point x="387" y="56"/>
      <point x="408" y="0" type="curve"/>
    </contour>
  </outline>
</glyph>
<glyph name="SevenArabic" format="2">
  <advance width="591"/>
  <unicode hex="0667"/>
  <note>
SevenArabic
</note>
  <outline>
    <contour>
      <point x="249" y="0" type="curve"/>
      <point x="279" y="0" type="line"/>
      <point x="282" y="5"/>
      <point x="287" y="12"/>
      <point x="292" y="21" type="curve" smooth="yes"/>
      <point x="370" y="162"/>
      <point x="439" y="308"/>
      <point x="510" y="455" type="curve" smooth="yes"/>
      <point x="529" y="494"/>
      <point x="545" y="525"/>
      <point x="557" y="550" type="curve"/>
      <point x="557" y="554"/>
      <point x="556" y="560"/>
      <point x="541" y="614" type="curve" smooth="yes"/>
      <point x="528" y="662"/>
      <point x="524" y="673"/>
      <point x="519" y="684" type="curve"/>
      <point x="505" y="684" type="line"/>
      <point x="435" y="506" type="line" smooth="yes"/>
      <point x="407" y="434"/>
      <point x="352" y="282"/>
      <point x="338" y="247" type="curve"/>
      <point x="334" y="247" type="line"/>
      <point x="282" y="396"/>
      <point x="194" y="588"/>
      <point x="147" y="684" type="curve"/>
      <point x="133" y="684" type="line"/>
      <point x="117" y="673"/>
      <point x="89" y="624"/>
      <point x="69" y="585" type="curve" smooth="yes"/>
      <point x="30" y="509"/>
      <point x="20" y="486"/>
      <point x="18" y="472" type="curve"/>
      <point x="154" y="187" type="line" smooth="yes"/>
      <point x="221" y="47"/>
      <point x="236" y="15"/>
    </contour>
  </outline>
</glyph>
<glyph name="EightArabic" format="2">
  <advance width="589"/>
  <unicode hex="0668"/>
  <note>
EightArabic
</note>
  <outline>
    <contour>
      <point x="58" y="0" type="curve"/>
      <point x="72" y="0" type="line"/>
      <point x="103" y="85"/>
      <point x="136" y="169"/>
      <point x="166" y="254" type="curve" smooth="yes"/>
      <point x="209" y="376" type="line" smooth="yes"/>
      <point x="215" y="394"/>
      <point x="223" y="415"/>
      <point x="232" y="438" type="curve"/>
      <point x="236" y="438" type="line"/>
      <point x="251" y="397"/>
      <point x="296" y="285"/>
      <point x="330" y="211" type="curve" smooth="yes"/>
      <point x="391" y="77"/>
      <point x="406" y="44"/>
      <point x="430" y="0" type="curve"/>
      <point x="444" y="0" type="line"/>
      <point x="473" y="23"/>
      <point x="549" y="180"/>
      <point x="555" y="212" type="curve"/>
      <point x="509" y="307"/>
      <point x="470" y="387"/>
      <point x="416" y="497" type="curve" smooth="yes"/>
      <point x="356" y="619"/>
      <point x="337" y="656"/>
      <point x="317" y="684" type="curve"/>
      <point x="287" y="684" type="line"/>
      <point x="274" y="662"/>
      <point x="217" y="548"/>
      <point x="195" y="503" type="curve" smooth="yes"/>
      <point x="46" y="195" type="line" smooth="yes"/>
      <point x="35" y="172"/>
      <point x="25" y="152"/>
      <point x="18" y="135" type="curve"/>
      <point x="18" y="122"/>
      <point x="48" y="21"/>
    </contour>
  </outline>
</glyph>
